<mxGraphModel dx="1336" dy="801" grid="1" gridSize="10" guides="1" tooltips="1" connect="1" arrows="1" fold="1" page="1" pageScale="1" pageWidth="827" pageHeight="1169" math="0" shadow="0">
  <root>
    <mxCell id="0" />
    <mxCell id="1" parent="0" />
    
      <mxCell id="3a493096-02e9-11eb-b860-f9eaec6c9f5e" value="" style="group" vertex="1" connectable="0" parent="1">
        <mxGeometry x="20" y="-171.0" width="300" height="582" as="geometry" />
      </mxCell>

      <object label="" id="3a493098-02e9-11eb-b860-f9eaec6c9f5e" Type="label">
        <mxCell style="group;fontFamily=Comic Sans MS;fontColor=#FFF11F;" parent="3a493096-02e9-11eb-b860-f9eaec6c9f5e" vertex="1" connectable="0">
          <mxGeometry width="300" height="60" as="geometry" />
        </mxCell>
      </object>
      <object label="Thing"   Type="Tier" id="3a493099-02e9-11eb-b860-f9eaec6c9f5e">
        <mxCell style="rounded=1;whiteSpace=wrap;html=1;arcSize=0;fillColor=#6E7A8A;strokeColor=#6C8EBF;fontFamily=Helvetica;fontSize=22;fontColor=#FFFFFF;" parent="3a493098-02e9-11eb-b860-f9eaec6c9f5e" vertex="1">
          <mxGeometry width="300" height="60" as="geometry" />
        </mxCell>
      </object>
      
      <object label="Lyra" Type="ThingNode" Tier="3a493099-02e9-11eb-b860-f9eaec6c9f5e" id="3a49309a-02e9-11eb-b860-f9eaec6c9f5e">
        <mxCell  style="group;align=center;labelBackgroundColor=none;fillColor=none;fontSize=16;fontColor=#000000;rounded=1;fontStyle=1;" vertex="1" connectable="0" parent="3a493096-02e9-11eb-b860-f9eaec6c9f5e">
          <mxGeometry x="0" y="80" width="300" height="562" as="geometry" />
        </mxCell>
      </object>
    <mxCell id="3a49309b-02e9-11eb-b860-f9eaec6c9f5e" value="&lt;font style=&quot;font-size: 16px&quot;&gt;Lyra&lt;/font&gt;" style="rounded=0;whiteSpace=wrap;html=1;align=center;horizontal=1;verticalAlign=top;fontStyle=1;;strokeWidth=2;" parent="3a49309a-02e9-11eb-b860-f9eaec6c9f5e" vertex="1">
      <mxGeometry width="300" height="562" as="geometry" />
    </mxCell>

    
    <mxCell id="3a49309e-02e9-11eb-b860-f9eaec6c9f5e" value="" style="group;labelBackgroundColor=#FF99CC;fillColor=#FFFFFF;strokeColor=#999999;" parent="3a49309a-02e9-11eb-b860-f9eaec6c9f5e" vertex="1" connectable="0">
      <mxGeometry x="10" y="27" width="280" height="60" as="geometry" />
    </mxCell>
    <object label="" Type="ServicelayerElement" id="3a49309d-02e9-11eb-b860-f9eaec6c9f5e" Node="3a49309a-02e9-11eb-b860-f9eaec6c9f5e" Hub="False">
      <mxCell style="rounded=0;whiteSpace=wrap;html=1;labelPosition=center;verticalLabelPosition=middle;align=center;verticalAlign=middle;fillColor=#FFFFFF;strokeColor=#999999;" parent="3a49309e-02e9-11eb-b860-f9eaec6c9f5e" vertex="1">
        <mxGeometry width="280" height="60" as="geometry" />
      </mxCell>
    </object>
      
    <mxCell id="3a49309f-02e9-11eb-b860-f9eaec6c9f5e" value="Service" style="text;html=1;strokeColor=none;fillColor=none;align=center;verticalAlign=middle;whiteSpace=wrap;rounded=0;fontStyle=2;fontColor=#999999;fontSize=11;" parent="3a49309e-02e9-11eb-b860-f9eaec6c9f5e" vertex="1">
      <mxGeometry x="5" y="-2" width="40" height="20" as="geometry" />
    </mxCell>
    
    
    
    
    <mxCell id="3a4930a2-02e9-11eb-b860-f9eaec6c9f5e" value="" style="group;labelBackgroundColor=#FF99CC;fillColor=#FFFFFF;strokeColor=#999999;" parent="3a49309a-02e9-11eb-b860-f9eaec6c9f5e" vertex="1" connectable="0">
      <mxGeometry x="10" y="97" width="280" height="60" as="geometry" />
    </mxCell>
    <object label="" Type="DatalayerElement" id="3a4930a1-02e9-11eb-b860-f9eaec6c9f5e" Node="3a49309a-02e9-11eb-b860-f9eaec6c9f5e" Hub="False">
      <mxCell style="rounded=0;whiteSpace=wrap;html=1;labelPosition=center;verticalLabelPosition=middle;align=center;verticalAlign=middle;fillColor=#FFFFFF;strokeColor=#999999;" parent="3a4930a2-02e9-11eb-b860-f9eaec6c9f5e" vertex="1">
        <mxGeometry width="280" height="60" as="geometry" />
      </mxCell>
    </object>
      
    <mxCell id="3a4930a3-02e9-11eb-b860-f9eaec6c9f5e" value="Data" style="text;html=1;strokeColor=none;fillColor=none;align=center;verticalAlign=middle;whiteSpace=wrap;rounded=0;fontStyle=2;fontColor=#999999;fontSize=11;" parent="3a4930a2-02e9-11eb-b860-f9eaec6c9f5e" vertex="1">
      <mxGeometry x="-2" y="-2" width="40" height="20" as="geometry" />
    </mxCell>
    
    
    
    
    <mxCell id="3a4930a6-02e9-11eb-b860-f9eaec6c9f5e" value="" style="group;labelBackgroundColor=#FF99CC;fillColor=#2A9187;strokeColor=#none;" parent="3a49309a-02e9-11eb-b860-f9eaec6c9f5e" vertex="1" connectable="0">
      <mxGeometry x="10" y="167" width="280" height="60" as="geometry" />
    </mxCell>
    <object label="" Type="MessaginglayerElement" id="3a4930a5-02e9-11eb-b860-f9eaec6c9f5e" Node="3a49309a-02e9-11eb-b860-f9eaec6c9f5e" Hub="False">
      <mxCell style="rounded=0;whiteSpace=wrap;html=1;labelPosition=center;verticalLabelPosition=middle;align=center;verticalAlign=middle;fillColor=#2A9187;strokeColor=#none;" parent="3a4930a6-02e9-11eb-b860-f9eaec6c9f5e" vertex="1">
        <mxGeometry width="280" height="60" as="geometry" />
      </mxCell>
    </object>
      
    <mxCell id="3a4930a7-02e9-11eb-b860-f9eaec6c9f5e" value="Messaging" style="text;html=1;strokeColor=none;fillColor=none;align=center;verticalAlign=middle;whiteSpace=wrap;rounded=0;fontStyle=2;fontColor=#none;fontSize=11;" parent="3a4930a6-02e9-11eb-b860-f9eaec6c9f5e" vertex="1">
      <mxGeometry x="13" y="-2" width="40" height="20" as="geometry" />
    </mxCell>
    
    
      


      <object label="LyraMQTT" Type="SoftwareComponent" id="3a4930a9-02e9-11eb-b860-f9eaec6c9f5e">
      <mxCell style="group" vertex="1" connectable="0" parent="3a4930a6-02e9-11eb-b860-f9eaec6c9f5e">
        <mxGeometry x="10" y="17" width="240" height="35" as="geometry" />
      </mxCell>
    </object>
    <mxCell id="3a4930a9-02e9-11eb-b860-f9eaec6c9f5e1" value="&lt;span&gt;&amp;lt;/&amp;gt;&lt;/span&gt;" style="rounded=1;whiteSpace=wrap;html=1;strokeColor=#000000;strokeWidth=1;fontColor=none;align=left;" vertex="1" parent="3a4930a9-02e9-11eb-b860-f9eaec6c9f5e">
      <mxGeometry width="29" height="35" as="geometry" />
    </mxCell>
    <mxCell id="3a4930a9-02e9-11eb-b860-f9eaec6c9f5e2" value="&lt;font style=&quot;font-size: 17px&quot;&gt;LyraMQTT&lt;/font&gt;" style="rounded=0;whiteSpace=wrap;html=1;strokeWidth=1;fontColor=none;align=center;fillColor=#FFFFFF;" vertex="1" parent="3a4930a9-02e9-11eb-b860-f9eaec6c9f5e">
      <mxGeometry x="21" width="240" height="35" as="geometry" />
    </mxCell>
    
    
    
    
    <mxCell id="3a4930ab-02e9-11eb-b860-f9eaec6c9f5e" value="" style="group;labelBackgroundColor=#FF99CC;fillColor=#5937AE;strokeColor=#none;" parent="3a49309a-02e9-11eb-b860-f9eaec6c9f5e" vertex="1" connectable="0">
      <mxGeometry x="10" y="237" width="280" height="60" as="geometry" />
    </mxCell>
    <object label="" Type="ConnectivitylayerElement" id="3a4930aa-02e9-11eb-b860-f9eaec6c9f5e" Node="3a49309a-02e9-11eb-b860-f9eaec6c9f5e" Hub="False">
      <mxCell style="rounded=0;whiteSpace=wrap;html=1;labelPosition=center;verticalLabelPosition=middle;align=center;verticalAlign=middle;fillColor=#5937AE;strokeColor=#none;" parent="3a4930ab-02e9-11eb-b860-f9eaec6c9f5e" vertex="1">
        <mxGeometry width="280" height="60" as="geometry" />
      </mxCell>
    </object>
      
    <mxCell id="3a4930ac-02e9-11eb-b860-f9eaec6c9f5e" value="Connectivity" style="text;html=1;strokeColor=none;fillColor=none;align=center;verticalAlign=middle;whiteSpace=wrap;rounded=0;fontStyle=2;fontColor=#none;fontSize=11;" parent="3a4930ab-02e9-11eb-b860-f9eaec6c9f5e" vertex="1">
      <mxGeometry x="16" y="-2" width="40" height="20" as="geometry" />
    </mxCell>
    
    
      


      <object label="LyraSSL" Type="SoftwareComponent" id="3a4930ae-02e9-11eb-b860-f9eaec6c9f5e">
      <mxCell style="group" vertex="1" connectable="0" parent="3a4930ab-02e9-11eb-b860-f9eaec6c9f5e">
        <mxGeometry x="10" y="17" width="240" height="35" as="geometry" />
      </mxCell>
    </object>
    <mxCell id="3a4930ae-02e9-11eb-b860-f9eaec6c9f5e1" value="&lt;span&gt;&amp;lt;/&amp;gt;&lt;/span&gt;" style="rounded=1;whiteSpace=wrap;html=1;strokeColor=#000000;strokeWidth=1;fontColor=none;align=left;" vertex="1" parent="3a4930ae-02e9-11eb-b860-f9eaec6c9f5e">
      <mxGeometry width="29" height="35" as="geometry" />
    </mxCell>
    <mxCell id="3a4930ae-02e9-11eb-b860-f9eaec6c9f5e2" value="&lt;font style=&quot;font-size: 17px&quot;&gt;LyraSSL&lt;/font&gt;" style="rounded=0;whiteSpace=wrap;html=1;strokeWidth=1;fontColor=none;align=center;fillColor=#FFFFFF;" vertex="1" parent="3a4930ae-02e9-11eb-b860-f9eaec6c9f5e">
      <mxGeometry x="21" width="240" height="35" as="geometry" />
    </mxCell>
    
    
    
    
    <mxCell id="3a4930b0-02e9-11eb-b860-f9eaec6c9f5e" value="" style="group;labelBackgroundColor=#FF99CC;fillColor=#6D41DA;strokeColor=#none;" parent="3a49309a-02e9-11eb-b860-f9eaec6c9f5e" vertex="1" connectable="0">
      <mxGeometry x="10" y="307" width="280" height="60" as="geometry" />
    </mxCell>
    <object label="" Type="NetworklayerElement" id="3a4930af-02e9-11eb-b860-f9eaec6c9f5e" Node="3a49309a-02e9-11eb-b860-f9eaec6c9f5e" Hub="False">
      <mxCell style="rounded=0;whiteSpace=wrap;html=1;labelPosition=center;verticalLabelPosition=middle;align=center;verticalAlign=middle;fillColor=#6D41DA;strokeColor=#none;" parent="3a4930b0-02e9-11eb-b860-f9eaec6c9f5e" vertex="1">
        <mxGeometry width="280" height="60" as="geometry" />
      </mxCell>
    </object>
      
    <mxCell id="3a4930b1-02e9-11eb-b860-f9eaec6c9f5e" value="Network" style="text;html=1;strokeColor=none;fillColor=none;align=center;verticalAlign=middle;whiteSpace=wrap;rounded=0;fontStyle=2;fontColor=#none;fontSize=11;" parent="3a4930b0-02e9-11eb-b860-f9eaec6c9f5e" vertex="1">
      <mxGeometry x="7" y="-2" width="40" height="20" as="geometry" />
    </mxCell>
    
    
      
      <object label="LyraBle" Type="PhysicalComponent" id="3a4930b3-02e9-11eb-b860-f9eaec6c9f5e">
      <mxCell style="group;strokeWidth=1;fillColor=none;fontColor=none;" vertex="1" connectable="0" parent="3a4930b0-02e9-11eb-b860-f9eaec6c9f5e">
        <mxGeometry x="10" y="17" width="260" height="35" as="geometry" />
      </mxCell>
    </object>
    <mxCell id="3a4930b3-02e9-11eb-b860-f9eaec6c9f5e1" value="" style="rounded=0;whiteSpace=wrap;html=1;strokeWidth=1;" vertex="1" parent="3a4930b3-02e9-11eb-b860-f9eaec6c9f5e">
      <mxGeometry x="2.9165384615384653" width="257.08346153846156" height="35" as="geometry" />
    </mxCell>
    <mxCell id="3a4930b3-02e9-11eb-b860-f9eaec6c9f5e2" value="&lt;font style=&quot;font-size: 17px&quot;&gt;LyraBle&lt;/font&gt;" style="rounded=0;whiteSpace=wrap;html=1;strokeWidth=1;verticalAlign=middle;" vertex="1" parent="3a4930b3-02e9-11eb-b860-f9eaec6c9f5e">
      <mxGeometry x="4.9581153846153825" y="2.2999999999999545" width="253.08346153846153" height="30.5" as="geometry" />
    </mxCell>
    <mxCell id="3a4930b3-02e9-11eb-b860-f9eaec6c9f5e3" value="" style="ellipse;whiteSpace=wrap;html=1;aspect=fixed;fillColor=#000000;" vertex="1" parent="3a4930b3-02e9-11eb-b860-f9eaec6c9f5e">
      <mxGeometry x="7" y="4.559999999999945" width="2" height="2" as="geometry" />
    </mxCell>
    
    <mxCell id="3a4930b3-02e9-11eb-b860-f9eaec6c9f5e9" value="" style="rounded=0;whiteSpace=wrap;html=1;fillColor=#000000;" vertex="1" parent="3a4930b3-02e9-11eb-b860-f9eaec6c9f5e">
      <mxGeometry x="260.08346153846156" y="5" width="2.916538461538462" height="0.7844016136261763" as="geometry" />
    </mxCell>

    <mxCell id="3a4930b3-02e9-11eb-b860-f9eaec6c9f5e1500000000005" value="" style="rounded=0;whiteSpace=wrap;html=1;fillColor=#000000;" vertex="1" parent="3a4930b3-02e9-11eb-b860-f9eaec6c9f5e">
      <mxGeometry y="5" width="2.916538461538462" height="0.7844016136261763" as="geometry" />
    </mxCell>
    
    <mxCell id="3a4930b3-02e9-11eb-b860-f9eaec6c9f5e14" value="" style="rounded=0;whiteSpace=wrap;html=1;fillColor=#000000;" vertex="1" parent="3a4930b3-02e9-11eb-b860-f9eaec6c9f5e">
      <mxGeometry x="260.08346153846156" y="10" width="2.916538461538462" height="0.7844016136261763" as="geometry" />
    </mxCell>

    <mxCell id="3a4930b3-02e9-11eb-b860-f9eaec6c9f5e1500000000010" value="" style="rounded=0;whiteSpace=wrap;html=1;fillColor=#000000;" vertex="1" parent="3a4930b3-02e9-11eb-b860-f9eaec6c9f5e">
      <mxGeometry y="10" width="2.916538461538462" height="0.7844016136261763" as="geometry" />
    </mxCell>
    
    <mxCell id="3a4930b3-02e9-11eb-b860-f9eaec6c9f5e19" value="" style="rounded=0;whiteSpace=wrap;html=1;fillColor=#000000;" vertex="1" parent="3a4930b3-02e9-11eb-b860-f9eaec6c9f5e">
      <mxGeometry x="260.08346153846156" y="15" width="2.916538461538462" height="0.7844016136261763" as="geometry" />
    </mxCell>

    <mxCell id="3a4930b3-02e9-11eb-b860-f9eaec6c9f5e1500000000015" value="" style="rounded=0;whiteSpace=wrap;html=1;fillColor=#000000;" vertex="1" parent="3a4930b3-02e9-11eb-b860-f9eaec6c9f5e">
      <mxGeometry y="15" width="2.916538461538462" height="0.7844016136261763" as="geometry" />
    </mxCell>
    
    <mxCell id="3a4930b3-02e9-11eb-b860-f9eaec6c9f5e24" value="" style="rounded=0;whiteSpace=wrap;html=1;fillColor=#000000;" vertex="1" parent="3a4930b3-02e9-11eb-b860-f9eaec6c9f5e">
      <mxGeometry x="260.08346153846156" y="20" width="2.916538461538462" height="0.7844016136261763" as="geometry" />
    </mxCell>

    <mxCell id="3a4930b3-02e9-11eb-b860-f9eaec6c9f5e1500000000020" value="" style="rounded=0;whiteSpace=wrap;html=1;fillColor=#000000;" vertex="1" parent="3a4930b3-02e9-11eb-b860-f9eaec6c9f5e">
      <mxGeometry y="20" width="2.916538461538462" height="0.7844016136261763" as="geometry" />
    </mxCell>
    
    <mxCell id="3a4930b3-02e9-11eb-b860-f9eaec6c9f5e29" value="" style="rounded=0;whiteSpace=wrap;html=1;fillColor=#000000;" vertex="1" parent="3a4930b3-02e9-11eb-b860-f9eaec6c9f5e">
      <mxGeometry x="260.08346153846156" y="25" width="2.916538461538462" height="0.7844016136261763" as="geometry" />
    </mxCell>

    <mxCell id="3a4930b3-02e9-11eb-b860-f9eaec6c9f5e1500000000025" value="" style="rounded=0;whiteSpace=wrap;html=1;fillColor=#000000;" vertex="1" parent="3a4930b3-02e9-11eb-b860-f9eaec6c9f5e">
      <mxGeometry y="25" width="2.916538461538462" height="0.7844016136261763" as="geometry" />
    </mxCell>
    
    <mxCell id="3a4930b3-02e9-11eb-b860-f9eaec6c9f5e34" value="" style="rounded=0;whiteSpace=wrap;html=1;fillColor=#000000;" vertex="1" parent="3a4930b3-02e9-11eb-b860-f9eaec6c9f5e">
      <mxGeometry x="260.08346153846156" y="30" width="2.916538461538462" height="0.7844016136261763" as="geometry" />
    </mxCell>

    <mxCell id="3a4930b3-02e9-11eb-b860-f9eaec6c9f5e1500000000030" value="" style="rounded=0;whiteSpace=wrap;html=1;fillColor=#000000;" vertex="1" parent="3a4930b3-02e9-11eb-b860-f9eaec6c9f5e">
      <mxGeometry y="30" width="2.916538461538462" height="0.7844016136261763" as="geometry" />
    </mxCell>
    
      
    
    
    
    <mxCell id="3a4930b5-02e9-11eb-b860-f9eaec6c9f5e" value="" style="group;labelBackgroundColor=#FF99CC;fillColor=#B281FF;strokeColor=#none;" parent="3a49309a-02e9-11eb-b860-f9eaec6c9f5e" vertex="1" connectable="0">
      <mxGeometry x="10" y="377" width="280" height="105" as="geometry" />
    </mxCell>
    <object label="" Type="PhysicallayerElement" id="3a4930b4-02e9-11eb-b860-f9eaec6c9f5e" Node="3a49309a-02e9-11eb-b860-f9eaec6c9f5e" Hub="False">
      <mxCell style="rounded=0;whiteSpace=wrap;html=1;labelPosition=center;verticalLabelPosition=middle;align=center;verticalAlign=middle;fillColor=#B281FF;strokeColor=#none;" parent="3a4930b5-02e9-11eb-b860-f9eaec6c9f5e" vertex="1">
        <mxGeometry width="280" height="105" as="geometry" />
      </mxCell>
    </object>
      
    <mxCell id="3a4930b6-02e9-11eb-b860-f9eaec6c9f5e" value="Physical" style="text;html=1;strokeColor=none;fillColor=none;align=center;verticalAlign=middle;whiteSpace=wrap;rounded=0;fontStyle=2;fontColor=#none;fontSize=11;" parent="3a4930b5-02e9-11eb-b860-f9eaec6c9f5e" vertex="1">
      <mxGeometry x="7" y="-2" width="40" height="20" as="geometry" />
    </mxCell>
    
    
      
      <object label="LyraHardware" Type="PhysicalComponent" id="3a4930b8-02e9-11eb-b860-f9eaec6c9f5e">
      <mxCell style="group;strokeWidth=1;fillColor=none;fontColor=none;" vertex="1" connectable="0" parent="3a4930b5-02e9-11eb-b860-f9eaec6c9f5e">
        <mxGeometry x="10" y="17" width="260" height="35" as="geometry" />
      </mxCell>
    </object>
    <mxCell id="3a4930b8-02e9-11eb-b860-f9eaec6c9f5e1" value="" style="rounded=0;whiteSpace=wrap;html=1;strokeWidth=1;" vertex="1" parent="3a4930b8-02e9-11eb-b860-f9eaec6c9f5e">
      <mxGeometry x="2.9165384615384653" width="257.08346153846156" height="35" as="geometry" />
    </mxCell>
    <mxCell id="3a4930b8-02e9-11eb-b860-f9eaec6c9f5e2" value="&lt;font style=&quot;font-size: 17px&quot;&gt;LyraHardware&lt;/font&gt;" style="rounded=0;whiteSpace=wrap;html=1;strokeWidth=1;verticalAlign=middle;" vertex="1" parent="3a4930b8-02e9-11eb-b860-f9eaec6c9f5e">
      <mxGeometry x="4.9581153846153825" y="2.2999999999999545" width="253.08346153846153" height="30.5" as="geometry" />
    </mxCell>
    <mxCell id="3a4930b8-02e9-11eb-b860-f9eaec6c9f5e3" value="" style="ellipse;whiteSpace=wrap;html=1;aspect=fixed;fillColor=#000000;" vertex="1" parent="3a4930b8-02e9-11eb-b860-f9eaec6c9f5e">
      <mxGeometry x="7" y="4.559999999999945" width="2" height="2" as="geometry" />
    </mxCell>
    
    <mxCell id="3a4930b8-02e9-11eb-b860-f9eaec6c9f5e9" value="" style="rounded=0;whiteSpace=wrap;html=1;fillColor=#000000;" vertex="1" parent="3a4930b8-02e9-11eb-b860-f9eaec6c9f5e">
      <mxGeometry x="260.08346153846156" y="5" width="2.916538461538462" height="0.7844016136261763" as="geometry" />
    </mxCell>

    <mxCell id="3a4930b8-02e9-11eb-b860-f9eaec6c9f5e1500000000005" value="" style="rounded=0;whiteSpace=wrap;html=1;fillColor=#000000;" vertex="1" parent="3a4930b8-02e9-11eb-b860-f9eaec6c9f5e">
      <mxGeometry y="5" width="2.916538461538462" height="0.7844016136261763" as="geometry" />
    </mxCell>
    
    <mxCell id="3a4930b8-02e9-11eb-b860-f9eaec6c9f5e14" value="" style="rounded=0;whiteSpace=wrap;html=1;fillColor=#000000;" vertex="1" parent="3a4930b8-02e9-11eb-b860-f9eaec6c9f5e">
      <mxGeometry x="260.08346153846156" y="10" width="2.916538461538462" height="0.7844016136261763" as="geometry" />
    </mxCell>

    <mxCell id="3a4930b8-02e9-11eb-b860-f9eaec6c9f5e1500000000010" value="" style="rounded=0;whiteSpace=wrap;html=1;fillColor=#000000;" vertex="1" parent="3a4930b8-02e9-11eb-b860-f9eaec6c9f5e">
      <mxGeometry y="10" width="2.916538461538462" height="0.7844016136261763" as="geometry" />
    </mxCell>
    
    <mxCell id="3a4930b8-02e9-11eb-b860-f9eaec6c9f5e19" value="" style="rounded=0;whiteSpace=wrap;html=1;fillColor=#000000;" vertex="1" parent="3a4930b8-02e9-11eb-b860-f9eaec6c9f5e">
      <mxGeometry x="260.08346153846156" y="15" width="2.916538461538462" height="0.7844016136261763" as="geometry" />
    </mxCell>

    <mxCell id="3a4930b8-02e9-11eb-b860-f9eaec6c9f5e1500000000015" value="" style="rounded=0;whiteSpace=wrap;html=1;fillColor=#000000;" vertex="1" parent="3a4930b8-02e9-11eb-b860-f9eaec6c9f5e">
      <mxGeometry y="15" width="2.916538461538462" height="0.7844016136261763" as="geometry" />
    </mxCell>
    
    <mxCell id="3a4930b8-02e9-11eb-b860-f9eaec6c9f5e24" value="" style="rounded=0;whiteSpace=wrap;html=1;fillColor=#000000;" vertex="1" parent="3a4930b8-02e9-11eb-b860-f9eaec6c9f5e">
      <mxGeometry x="260.08346153846156" y="20" width="2.916538461538462" height="0.7844016136261763" as="geometry" />
    </mxCell>

    <mxCell id="3a4930b8-02e9-11eb-b860-f9eaec6c9f5e1500000000020" value="" style="rounded=0;whiteSpace=wrap;html=1;fillColor=#000000;" vertex="1" parent="3a4930b8-02e9-11eb-b860-f9eaec6c9f5e">
      <mxGeometry y="20" width="2.916538461538462" height="0.7844016136261763" as="geometry" />
    </mxCell>
    
    <mxCell id="3a4930b8-02e9-11eb-b860-f9eaec6c9f5e29" value="" style="rounded=0;whiteSpace=wrap;html=1;fillColor=#000000;" vertex="1" parent="3a4930b8-02e9-11eb-b860-f9eaec6c9f5e">
      <mxGeometry x="260.08346153846156" y="25" width="2.916538461538462" height="0.7844016136261763" as="geometry" />
    </mxCell>

    <mxCell id="3a4930b8-02e9-11eb-b860-f9eaec6c9f5e1500000000025" value="" style="rounded=0;whiteSpace=wrap;html=1;fillColor=#000000;" vertex="1" parent="3a4930b8-02e9-11eb-b860-f9eaec6c9f5e">
      <mxGeometry y="25" width="2.916538461538462" height="0.7844016136261763" as="geometry" />
    </mxCell>
    
    <mxCell id="3a4930b8-02e9-11eb-b860-f9eaec6c9f5e34" value="" style="rounded=0;whiteSpace=wrap;html=1;fillColor=#000000;" vertex="1" parent="3a4930b8-02e9-11eb-b860-f9eaec6c9f5e">
      <mxGeometry x="260.08346153846156" y="30" width="2.916538461538462" height="0.7844016136261763" as="geometry" />
    </mxCell>

    <mxCell id="3a4930b8-02e9-11eb-b860-f9eaec6c9f5e1500000000030" value="" style="rounded=0;whiteSpace=wrap;html=1;fillColor=#000000;" vertex="1" parent="3a4930b8-02e9-11eb-b860-f9eaec6c9f5e">
      <mxGeometry y="30" width="2.916538461538462" height="0.7844016136261763" as="geometry" />
    </mxCell>
    
      
    
      
      <object label="CoreSensor" Type="PhysicalComponent" id="3a4930b9-02e9-11eb-b860-f9eaec6c9f5e">
      <mxCell style="group;strokeWidth=1;fillColor=none;fontColor=none;" vertex="1" connectable="0" parent="3a4930b5-02e9-11eb-b860-f9eaec6c9f5e">
        <mxGeometry x="10" y="62" width="260" height="35" as="geometry" />
      </mxCell>
    </object>
    <mxCell id="3a4930b9-02e9-11eb-b860-f9eaec6c9f5e1" value="" style="rounded=0;whiteSpace=wrap;html=1;strokeWidth=1;" vertex="1" parent="3a4930b9-02e9-11eb-b860-f9eaec6c9f5e">
      <mxGeometry x="2.9165384615384653" width="257.08346153846156" height="35" as="geometry" />
    </mxCell>
    <mxCell id="3a4930b9-02e9-11eb-b860-f9eaec6c9f5e2" value="&lt;font style=&quot;font-size: 17px&quot;&gt;CoreSensor&lt;/font&gt;" style="rounded=0;whiteSpace=wrap;html=1;strokeWidth=1;verticalAlign=middle;" vertex="1" parent="3a4930b9-02e9-11eb-b860-f9eaec6c9f5e">
      <mxGeometry x="4.9581153846153825" y="2.2999999999999545" width="253.08346153846153" height="30.5" as="geometry" />
    </mxCell>
    <mxCell id="3a4930b9-02e9-11eb-b860-f9eaec6c9f5e3" value="" style="ellipse;whiteSpace=wrap;html=1;aspect=fixed;fillColor=#000000;" vertex="1" parent="3a4930b9-02e9-11eb-b860-f9eaec6c9f5e">
      <mxGeometry x="7" y="4.559999999999945" width="2" height="2" as="geometry" />
    </mxCell>
    
    <mxCell id="3a4930b9-02e9-11eb-b860-f9eaec6c9f5e9" value="" style="rounded=0;whiteSpace=wrap;html=1;fillColor=#000000;" vertex="1" parent="3a4930b9-02e9-11eb-b860-f9eaec6c9f5e">
      <mxGeometry x="260.08346153846156" y="5" width="2.916538461538462" height="0.7844016136261763" as="geometry" />
    </mxCell>

    <mxCell id="3a4930b9-02e9-11eb-b860-f9eaec6c9f5e1500000000005" value="" style="rounded=0;whiteSpace=wrap;html=1;fillColor=#000000;" vertex="1" parent="3a4930b9-02e9-11eb-b860-f9eaec6c9f5e">
      <mxGeometry y="5" width="2.916538461538462" height="0.7844016136261763" as="geometry" />
    </mxCell>
    
    <mxCell id="3a4930b9-02e9-11eb-b860-f9eaec6c9f5e14" value="" style="rounded=0;whiteSpace=wrap;html=1;fillColor=#000000;" vertex="1" parent="3a4930b9-02e9-11eb-b860-f9eaec6c9f5e">
      <mxGeometry x="260.08346153846156" y="10" width="2.916538461538462" height="0.7844016136261763" as="geometry" />
    </mxCell>

    <mxCell id="3a4930b9-02e9-11eb-b860-f9eaec6c9f5e1500000000010" value="" style="rounded=0;whiteSpace=wrap;html=1;fillColor=#000000;" vertex="1" parent="3a4930b9-02e9-11eb-b860-f9eaec6c9f5e">
      <mxGeometry y="10" width="2.916538461538462" height="0.7844016136261763" as="geometry" />
    </mxCell>
    
    <mxCell id="3a4930b9-02e9-11eb-b860-f9eaec6c9f5e19" value="" style="rounded=0;whiteSpace=wrap;html=1;fillColor=#000000;" vertex="1" parent="3a4930b9-02e9-11eb-b860-f9eaec6c9f5e">
      <mxGeometry x="260.08346153846156" y="15" width="2.916538461538462" height="0.7844016136261763" as="geometry" />
    </mxCell>

    <mxCell id="3a4930b9-02e9-11eb-b860-f9eaec6c9f5e1500000000015" value="" style="rounded=0;whiteSpace=wrap;html=1;fillColor=#000000;" vertex="1" parent="3a4930b9-02e9-11eb-b860-f9eaec6c9f5e">
      <mxGeometry y="15" width="2.916538461538462" height="0.7844016136261763" as="geometry" />
    </mxCell>
    
    <mxCell id="3a4930b9-02e9-11eb-b860-f9eaec6c9f5e24" value="" style="rounded=0;whiteSpace=wrap;html=1;fillColor=#000000;" vertex="1" parent="3a4930b9-02e9-11eb-b860-f9eaec6c9f5e">
      <mxGeometry x="260.08346153846156" y="20" width="2.916538461538462" height="0.7844016136261763" as="geometry" />
    </mxCell>

    <mxCell id="3a4930b9-02e9-11eb-b860-f9eaec6c9f5e1500000000020" value="" style="rounded=0;whiteSpace=wrap;html=1;fillColor=#000000;" vertex="1" parent="3a4930b9-02e9-11eb-b860-f9eaec6c9f5e">
      <mxGeometry y="20" width="2.916538461538462" height="0.7844016136261763" as="geometry" />
    </mxCell>
    
    <mxCell id="3a4930b9-02e9-11eb-b860-f9eaec6c9f5e29" value="" style="rounded=0;whiteSpace=wrap;html=1;fillColor=#000000;" vertex="1" parent="3a4930b9-02e9-11eb-b860-f9eaec6c9f5e">
      <mxGeometry x="260.08346153846156" y="25" width="2.916538461538462" height="0.7844016136261763" as="geometry" />
    </mxCell>

    <mxCell id="3a4930b9-02e9-11eb-b860-f9eaec6c9f5e1500000000025" value="" style="rounded=0;whiteSpace=wrap;html=1;fillColor=#000000;" vertex="1" parent="3a4930b9-02e9-11eb-b860-f9eaec6c9f5e">
      <mxGeometry y="25" width="2.916538461538462" height="0.7844016136261763" as="geometry" />
    </mxCell>
    
    <mxCell id="3a4930b9-02e9-11eb-b860-f9eaec6c9f5e34" value="" style="rounded=0;whiteSpace=wrap;html=1;fillColor=#000000;" vertex="1" parent="3a4930b9-02e9-11eb-b860-f9eaec6c9f5e">
      <mxGeometry x="260.08346153846156" y="30" width="2.916538461538462" height="0.7844016136261763" as="geometry" />
    </mxCell>

    <mxCell id="3a4930b9-02e9-11eb-b860-f9eaec6c9f5e1500000000030" value="" style="rounded=0;whiteSpace=wrap;html=1;fillColor=#000000;" vertex="1" parent="3a4930b9-02e9-11eb-b860-f9eaec6c9f5e">
      <mxGeometry y="30" width="2.916538461538462" height="0.7844016136261763" as="geometry" />
    </mxCell>
    
      
    
    
    
    <mxCell id="3a4930bb-02e9-11eb-b860-f9eaec6c9f5e" value="" style="group;labelBackgroundColor=#FF99CC;fillColor=#F8CECC;strokeColor=#none;" parent="3a49309a-02e9-11eb-b860-f9eaec6c9f5e" vertex="1" connectable="0">
      <mxGeometry x="10" y="492" width="280" height="60" as="geometry" />
    </mxCell>
    <object label="" Type="EnergylayerElement" id="3a4930ba-02e9-11eb-b860-f9eaec6c9f5e" Node="3a49309a-02e9-11eb-b860-f9eaec6c9f5e" Hub="False">
      <mxCell style="rounded=0;whiteSpace=wrap;html=1;labelPosition=center;verticalLabelPosition=middle;align=center;verticalAlign=middle;fillColor=#F8CECC;strokeColor=#none;" parent="3a4930bb-02e9-11eb-b860-f9eaec6c9f5e" vertex="1">
        <mxGeometry width="280" height="60" as="geometry" />
      </mxCell>
    </object>
      
    <mxCell id="3a4930bc-02e9-11eb-b860-f9eaec6c9f5e" value="Energy" style="text;html=1;strokeColor=none;fillColor=none;align=center;verticalAlign=middle;whiteSpace=wrap;rounded=0;fontStyle=2;fontColor=#none;fontSize=11;" parent="3a4930bb-02e9-11eb-b860-f9eaec6c9f5e" vertex="1">
      <mxGeometry x="4" y="-2" width="40" height="20" as="geometry" />
    </mxCell>
    
    
      
      <object label="lyraPower" Type="PhysicalComponent" id="3a4930be-02e9-11eb-b860-f9eaec6c9f5e">
      <mxCell style="group;strokeWidth=1;fillColor=none;fontColor=none;" vertex="1" connectable="0" parent="3a4930bb-02e9-11eb-b860-f9eaec6c9f5e">
        <mxGeometry x="10" y="17" width="260" height="35" as="geometry" />
      </mxCell>
    </object>
    <mxCell id="3a4930be-02e9-11eb-b860-f9eaec6c9f5e1" value="" style="rounded=0;whiteSpace=wrap;html=1;strokeWidth=1;" vertex="1" parent="3a4930be-02e9-11eb-b860-f9eaec6c9f5e">
      <mxGeometry x="2.9165384615384653" width="257.08346153846156" height="35" as="geometry" />
    </mxCell>
    <mxCell id="3a4930be-02e9-11eb-b860-f9eaec6c9f5e2" value="&lt;font style=&quot;font-size: 17px&quot;&gt;lyraPower&lt;/font&gt;" style="rounded=0;whiteSpace=wrap;html=1;strokeWidth=1;verticalAlign=middle;" vertex="1" parent="3a4930be-02e9-11eb-b860-f9eaec6c9f5e">
      <mxGeometry x="4.9581153846153825" y="2.2999999999999545" width="253.08346153846153" height="30.5" as="geometry" />
    </mxCell>
    <mxCell id="3a4930be-02e9-11eb-b860-f9eaec6c9f5e3" value="" style="ellipse;whiteSpace=wrap;html=1;aspect=fixed;fillColor=#000000;" vertex="1" parent="3a4930be-02e9-11eb-b860-f9eaec6c9f5e">
      <mxGeometry x="7" y="4.559999999999945" width="2" height="2" as="geometry" />
    </mxCell>
    
    <mxCell id="3a4930be-02e9-11eb-b860-f9eaec6c9f5e9" value="" style="rounded=0;whiteSpace=wrap;html=1;fillColor=#000000;" vertex="1" parent="3a4930be-02e9-11eb-b860-f9eaec6c9f5e">
      <mxGeometry x="260.08346153846156" y="5" width="2.916538461538462" height="0.7844016136261763" as="geometry" />
    </mxCell>

    <mxCell id="3a4930be-02e9-11eb-b860-f9eaec6c9f5e1500000000005" value="" style="rounded=0;whiteSpace=wrap;html=1;fillColor=#000000;" vertex="1" parent="3a4930be-02e9-11eb-b860-f9eaec6c9f5e">
      <mxGeometry y="5" width="2.916538461538462" height="0.7844016136261763" as="geometry" />
    </mxCell>
    
    <mxCell id="3a4930be-02e9-11eb-b860-f9eaec6c9f5e14" value="" style="rounded=0;whiteSpace=wrap;html=1;fillColor=#000000;" vertex="1" parent="3a4930be-02e9-11eb-b860-f9eaec6c9f5e">
      <mxGeometry x="260.08346153846156" y="10" width="2.916538461538462" height="0.7844016136261763" as="geometry" />
    </mxCell>

    <mxCell id="3a4930be-02e9-11eb-b860-f9eaec6c9f5e1500000000010" value="" style="rounded=0;whiteSpace=wrap;html=1;fillColor=#000000;" vertex="1" parent="3a4930be-02e9-11eb-b860-f9eaec6c9f5e">
      <mxGeometry y="10" width="2.916538461538462" height="0.7844016136261763" as="geometry" />
    </mxCell>
    
    <mxCell id="3a4930be-02e9-11eb-b860-f9eaec6c9f5e19" value="" style="rounded=0;whiteSpace=wrap;html=1;fillColor=#000000;" vertex="1" parent="3a4930be-02e9-11eb-b860-f9eaec6c9f5e">
      <mxGeometry x="260.08346153846156" y="15" width="2.916538461538462" height="0.7844016136261763" as="geometry" />
    </mxCell>

    <mxCell id="3a4930be-02e9-11eb-b860-f9eaec6c9f5e1500000000015" value="" style="rounded=0;whiteSpace=wrap;html=1;fillColor=#000000;" vertex="1" parent="3a4930be-02e9-11eb-b860-f9eaec6c9f5e">
      <mxGeometry y="15" width="2.916538461538462" height="0.7844016136261763" as="geometry" />
    </mxCell>
    
    <mxCell id="3a4930be-02e9-11eb-b860-f9eaec6c9f5e24" value="" style="rounded=0;whiteSpace=wrap;html=1;fillColor=#000000;" vertex="1" parent="3a4930be-02e9-11eb-b860-f9eaec6c9f5e">
      <mxGeometry x="260.08346153846156" y="20" width="2.916538461538462" height="0.7844016136261763" as="geometry" />
    </mxCell>

    <mxCell id="3a4930be-02e9-11eb-b860-f9eaec6c9f5e1500000000020" value="" style="rounded=0;whiteSpace=wrap;html=1;fillColor=#000000;" vertex="1" parent="3a4930be-02e9-11eb-b860-f9eaec6c9f5e">
      <mxGeometry y="20" width="2.916538461538462" height="0.7844016136261763" as="geometry" />
    </mxCell>
    
    <mxCell id="3a4930be-02e9-11eb-b860-f9eaec6c9f5e29" value="" style="rounded=0;whiteSpace=wrap;html=1;fillColor=#000000;" vertex="1" parent="3a4930be-02e9-11eb-b860-f9eaec6c9f5e">
      <mxGeometry x="260.08346153846156" y="25" width="2.916538461538462" height="0.7844016136261763" as="geometry" />
    </mxCell>

    <mxCell id="3a4930be-02e9-11eb-b860-f9eaec6c9f5e1500000000025" value="" style="rounded=0;whiteSpace=wrap;html=1;fillColor=#000000;" vertex="1" parent="3a4930be-02e9-11eb-b860-f9eaec6c9f5e">
      <mxGeometry y="25" width="2.916538461538462" height="0.7844016136261763" as="geometry" />
    </mxCell>
    
    <mxCell id="3a4930be-02e9-11eb-b860-f9eaec6c9f5e34" value="" style="rounded=0;whiteSpace=wrap;html=1;fillColor=#000000;" vertex="1" parent="3a4930be-02e9-11eb-b860-f9eaec6c9f5e">
      <mxGeometry x="260.08346153846156" y="30" width="2.916538461538462" height="0.7844016136261763" as="geometry" />
    </mxCell>

    <mxCell id="3a4930be-02e9-11eb-b860-f9eaec6c9f5e1500000000030" value="" style="rounded=0;whiteSpace=wrap;html=1;fillColor=#000000;" vertex="1" parent="3a4930be-02e9-11eb-b860-f9eaec6c9f5e">
      <mxGeometry y="30" width="2.916538461538462" height="0.7844016136261763" as="geometry" />
    </mxCell>
    
      
    
    
    
    
    
      <mxCell id="3a4930bf-02e9-11eb-b860-f9eaec6c9f5e" value="" style="group" vertex="1" connectable="0" parent="1">
        <mxGeometry x="370" y="-171.0" width="300" height="582" as="geometry" />
      </mxCell>

      <object label="" id="3a4930c1-02e9-11eb-b860-f9eaec6c9f5e" Type="label">
        <mxCell style="group;fontFamily=Comic Sans MS;fontColor=#FFF11F;" parent="3a4930bf-02e9-11eb-b860-f9eaec6c9f5e" vertex="1" connectable="0">
          <mxGeometry width="300" height="60" as="geometry" />
        </mxCell>
      </object>
      <object label="Edge"   Type="Tier" id="3a4930c2-02e9-11eb-b860-f9eaec6c9f5e">
        <mxCell style="rounded=1;whiteSpace=wrap;html=1;arcSize=0;fillColor=#6E7A8A;strokeColor=#6C8EBF;fontFamily=Helvetica;fontSize=22;fontColor=#FFFFFF;" parent="3a4930c1-02e9-11eb-b860-f9eaec6c9f5e" vertex="1">
          <mxGeometry width="300" height="60" as="geometry" />
        </mxCell>
      </object>
      
      <object label="Polaris" Type="EdgeNode" Tier="3a4930c2-02e9-11eb-b860-f9eaec6c9f5e" id="3a4930c3-02e9-11eb-b860-f9eaec6c9f5e">
        <mxCell  style="group;align=center;labelBackgroundColor=none;fillColor=none;fontSize=16;fontColor=#000000;rounded=1;fontStyle=1;" vertex="1" connectable="0" parent="3a4930bf-02e9-11eb-b860-f9eaec6c9f5e">
          <mxGeometry x="0" y="80" width="300" height="562" as="geometry" />
        </mxCell>
      </object>
    <mxCell id="3a4930c4-02e9-11eb-b860-f9eaec6c9f5e" value="&lt;font style=&quot;font-size: 16px&quot;&gt;Polaris&lt;/font&gt;" style="rounded=0;whiteSpace=wrap;html=1;align=center;horizontal=1;verticalAlign=top;fontStyle=1;;strokeWidth=2;" parent="3a4930c3-02e9-11eb-b860-f9eaec6c9f5e" vertex="1">
      <mxGeometry width="300" height="562" as="geometry" />
    </mxCell>

    
    <mxCell id="3a4930c7-02e9-11eb-b860-f9eaec6c9f5e" value="" style="group;labelBackgroundColor=#FF99CC;fillColor=#FFFFFF;strokeColor=#999999;" parent="3a4930c3-02e9-11eb-b860-f9eaec6c9f5e" vertex="1" connectable="0">
      <mxGeometry x="10" y="27" width="280" height="60" as="geometry" />
    </mxCell>
    <object label="" Type="ServicelayerElement" id="3a4930c6-02e9-11eb-b860-f9eaec6c9f5e" Node="3a4930c3-02e9-11eb-b860-f9eaec6c9f5e" Hub="False">
      <mxCell style="rounded=0;whiteSpace=wrap;html=1;labelPosition=center;verticalLabelPosition=middle;align=center;verticalAlign=middle;fillColor=#FFFFFF;strokeColor=#999999;" parent="3a4930c7-02e9-11eb-b860-f9eaec6c9f5e" vertex="1">
        <mxGeometry width="280" height="60" as="geometry" />
      </mxCell>
    </object>
      
    <mxCell id="3a4930c8-02e9-11eb-b860-f9eaec6c9f5e" value="Service" style="text;html=1;strokeColor=none;fillColor=none;align=center;verticalAlign=middle;whiteSpace=wrap;rounded=0;fontStyle=2;fontColor=#999999;fontSize=11;" parent="3a4930c7-02e9-11eb-b860-f9eaec6c9f5e" vertex="1">
      <mxGeometry x="5" y="-2" width="40" height="20" as="geometry" />
    </mxCell>
    
    
    
    
    <mxCell id="3a4930cb-02e9-11eb-b860-f9eaec6c9f5e" value="" style="group;labelBackgroundColor=#FF99CC;fillColor=#FFFFFF;strokeColor=#999999;" parent="3a4930c3-02e9-11eb-b860-f9eaec6c9f5e" vertex="1" connectable="0">
      <mxGeometry x="10" y="97" width="280" height="60" as="geometry" />
    </mxCell>
    <object label="" Type="DatalayerElement" id="3a4930ca-02e9-11eb-b860-f9eaec6c9f5e" Node="3a4930c3-02e9-11eb-b860-f9eaec6c9f5e" Hub="False">
      <mxCell style="rounded=0;whiteSpace=wrap;html=1;labelPosition=center;verticalLabelPosition=middle;align=center;verticalAlign=middle;fillColor=#FFFFFF;strokeColor=#999999;" parent="3a4930cb-02e9-11eb-b860-f9eaec6c9f5e" vertex="1">
        <mxGeometry width="280" height="60" as="geometry" />
      </mxCell>
    </object>
      
    <mxCell id="3a4930cc-02e9-11eb-b860-f9eaec6c9f5e" value="Data" style="text;html=1;strokeColor=none;fillColor=none;align=center;verticalAlign=middle;whiteSpace=wrap;rounded=0;fontStyle=2;fontColor=#999999;fontSize=11;" parent="3a4930cb-02e9-11eb-b860-f9eaec6c9f5e" vertex="1">
      <mxGeometry x="-2" y="-2" width="40" height="20" as="geometry" />
    </mxCell>
    
    
    
    
    <mxCell id="3a4930cf-02e9-11eb-b860-f9eaec6c9f5e" value="" style="group;labelBackgroundColor=#FF99CC;fillColor=#2A9187;strokeColor=#none;" parent="3a4930c3-02e9-11eb-b860-f9eaec6c9f5e" vertex="1" connectable="0">
      <mxGeometry x="10" y="167" width="280" height="60" as="geometry" />
    </mxCell>
    <object label="" Type="MessaginglayerElement" id="3a4930ce-02e9-11eb-b860-f9eaec6c9f5e" Node="3a4930c3-02e9-11eb-b860-f9eaec6c9f5e" Hub="False">
      <mxCell style="rounded=0;whiteSpace=wrap;html=1;labelPosition=center;verticalLabelPosition=middle;align=center;verticalAlign=middle;fillColor=#2A9187;strokeColor=#none;" parent="3a4930cf-02e9-11eb-b860-f9eaec6c9f5e" vertex="1">
        <mxGeometry width="280" height="60" as="geometry" />
      </mxCell>
    </object>
      
    <mxCell id="3a4930d0-02e9-11eb-b860-f9eaec6c9f5e" value="Messaging" style="text;html=1;strokeColor=none;fillColor=none;align=center;verticalAlign=middle;whiteSpace=wrap;rounded=0;fontStyle=2;fontColor=#none;fontSize=11;" parent="3a4930cf-02e9-11eb-b860-f9eaec6c9f5e" vertex="1">
      <mxGeometry x="13" y="-2" width="40" height="20" as="geometry" />
    </mxCell>
    
    
      


      <object label="PolarisBroker" Type="SoftwareComponent" id="3a4930d2-02e9-11eb-b860-f9eaec6c9f5e">
      <mxCell style="group" vertex="1" connectable="0" parent="3a4930cf-02e9-11eb-b860-f9eaec6c9f5e">
        <mxGeometry x="10" y="17" width="240" height="35" as="geometry" />
      </mxCell>
    </object>
    <mxCell id="3a4930d2-02e9-11eb-b860-f9eaec6c9f5e1" value="&lt;span&gt;&amp;lt;/&amp;gt;&lt;/span&gt;" style="rounded=1;whiteSpace=wrap;html=1;strokeColor=#000000;strokeWidth=1;fontColor=none;align=left;" vertex="1" parent="3a4930d2-02e9-11eb-b860-f9eaec6c9f5e">
      <mxGeometry width="29" height="35" as="geometry" />
    </mxCell>
    <mxCell id="3a4930d2-02e9-11eb-b860-f9eaec6c9f5e2" value="&lt;font style=&quot;font-size: 17px&quot;&gt;PolarisBroker&lt;/font&gt;" style="rounded=0;whiteSpace=wrap;html=1;strokeWidth=1;fontColor=none;align=center;fillColor=#FFFFFF;" vertex="1" parent="3a4930d2-02e9-11eb-b860-f9eaec6c9f5e">
      <mxGeometry x="21" width="240" height="35" as="geometry" />
    </mxCell>
    
    
    
    
    <mxCell id="3a4930d4-02e9-11eb-b860-f9eaec6c9f5e" value="" style="group;labelBackgroundColor=#FF99CC;fillColor=#5937AE;strokeColor=#none;" parent="3a4930c3-02e9-11eb-b860-f9eaec6c9f5e" vertex="1" connectable="0">
      <mxGeometry x="10" y="237" width="280" height="60" as="geometry" />
    </mxCell>
    <object label="" Type="ConnectivitylayerElement" id="3a4930d3-02e9-11eb-b860-f9eaec6c9f5e" Node="3a4930c3-02e9-11eb-b860-f9eaec6c9f5e" Hub="True">
      <mxCell style="rounded=0;whiteSpace=wrap;html=1;labelPosition=center;verticalLabelPosition=middle;align=center;verticalAlign=middle;fillColor=#5937AE;strokeColor=#none;" parent="3a4930d4-02e9-11eb-b860-f9eaec6c9f5e" vertex="1">
        <mxGeometry width="280" height="60" as="geometry" />
      </mxCell>
    </object>
      
    <mxCell id="3a4930d5-02e9-11eb-b860-f9eaec6c9f5e" value="Connectivity" style="text;html=1;strokeColor=none;fillColor=none;align=center;verticalAlign=middle;whiteSpace=wrap;rounded=0;fontStyle=2;fontColor=#none;fontSize=11;" parent="3a4930d4-02e9-11eb-b860-f9eaec6c9f5e" vertex="1">
      <mxGeometry x="16" y="-2" width="40" height="20" as="geometry" />
    </mxCell>
    
    
      
      <object label="PolarisSSL" Type="SoftwareComponent" id="3a4930d7-02e9-11eb-b860-f9eaec6c9f5e">
      <mxCell style="group" vertex="1" connectable="0" parent="3a4930d6-02e9-11eb-b860-f9eaec6c9f5e">
        <mxGeometry  x="2.0" width="124.0" height="35" as="geometry" />
      </mxCell>
    </object>
    <mxCell id="3a4930d7-02e9-11eb-b860-f9eaec6c9f5e1" value="&lt;span&gt;&amp;lt;/&amp;gt;&lt;/span&gt;" style="rounded=1;whiteSpace=wrap;html=1;strokeColor=#000000;strokeWidth=1;fontColor=none;align=left;" vertex="1" parent="3a4930d7-02e9-11eb-b860-f9eaec6c9f5e">
      <mxGeometry width="29" height="35" as="geometry" />
    </mxCell>
    <mxCell id="3a4930d7-02e9-11eb-b860-f9eaec6c9f5e2" value="&lt;font style=&quot;font-size: 17px&quot;&gt;PolarisSSL&lt;/font&gt;" style="rounded=0;whiteSpace=wrap;html=1;strokeWidth=1;fontColor=none;align=center;fillColor=#FFFFFF;" vertex="1" parent="3a4930d7-02e9-11eb-b860-f9eaec6c9f5e">
      <mxGeometry x="21" width="104.0" height="35  " as="geometry" />
    </mxCell>

      
    
      
      <object label="PolarisTwilio" Type="ServiceComponent" id="3a4930d8-02e9-11eb-b860-f9eaec6c9f5e">
      <mxCell style="group" vertex="1" connectable="0" parent="3a4930d6-02e9-11eb-b860-f9eaec6c9f5e">
        <mxGeometry  x="136.0" width="124.0" height="35" as="geometry" />
      </mxCell>
    </object>
    <mxCell id="3a4930d8-02e9-11eb-b860-f9eaec6c9f5e1" value="" style="rounded=1;whiteSpace=wrap;html=1;strokeWidth=1;fillColor=#FFFFFF;fontColor=none;align=left;" vertex="1" parent="3a4930d8-02e9-11eb-b860-f9eaec6c9f5e">
      <mxGeometry width="47" height="35" as="geometry" />
    </mxCell>
    <mxCell id="3a4930d8-02e9-11eb-b860-f9eaec6c9f5e2" value="&lt;font style=&quot;font-size: 17px&quot;&gt;PolarisTwilio&lt;/font&gt;" style="rounded=0;whiteSpace=wrap;html=1;strokeWidth=1;fontColor=none;align=center;fillColor=#FFFFFF;" vertex="1" parent="3a4930d8-02e9-11eb-b860-f9eaec6c9f5e">
      <mxGeometry x="22" width="104.0" height="35  " as="geometry" />
    </mxCell>
    <mxCell id="3a4930d8-02e9-11eb-b860-f9eaec6c9f5e3" value="" style="html=1;verticalLabelPosition=bottom;align=center;labelBackgroundColor=#ffffff;verticalAlign=top;strokeWidth=1;shadow=0;dashed=0;shape=mxgraph.ios7.icons.cloud;rounded=0;fillColor=#FFFFFF;fontColor=none;aspect=fixed;" vertex="1" parent="3a4930d8-02e9-11eb-b860-f9eaec6c9f5e">
      <mxGeometry x="2" y="13.099999999999994" width="18" height="10.8" as="geometry" />
    </mxCell>
    
    
    <object label="" Type="Hub" id="3a4930d6-02e9-11eb-b860-f9eaec6c9f5e">
      <mxCell style="group" vertex="1" connectable="0" parent="3a4930d4-02e9-11eb-b860-f9eaec6c9f5e">
        <mxGeometry x="8.4473684210526017" y="20" width="250" height="25" as="geometry" />
      </mxCell>
    </object>
    
    
    <mxCell id="3a4930da-02e9-11eb-b860-f9eaec6c9f5e" value="" style="group;labelBackgroundColor=#FF99CC;fillColor=#6D41DA;strokeColor=#none;" parent="3a4930c3-02e9-11eb-b860-f9eaec6c9f5e" vertex="1" connectable="0">
      <mxGeometry x="10" y="307" width="280" height="60" as="geometry" />
    </mxCell>
    <object label="" Type="NetworklayerElement" id="3a4930d9-02e9-11eb-b860-f9eaec6c9f5e" Node="3a4930c3-02e9-11eb-b860-f9eaec6c9f5e" Hub="True">
      <mxCell style="rounded=0;whiteSpace=wrap;html=1;labelPosition=center;verticalLabelPosition=middle;align=center;verticalAlign=middle;fillColor=#6D41DA;strokeColor=#none;" parent="3a4930da-02e9-11eb-b860-f9eaec6c9f5e" vertex="1">
        <mxGeometry width="280" height="60" as="geometry" />
      </mxCell>
    </object>
      
    <mxCell id="3a4930db-02e9-11eb-b860-f9eaec6c9f5e" value="Network" style="text;html=1;strokeColor=none;fillColor=none;align=center;verticalAlign=middle;whiteSpace=wrap;rounded=0;fontStyle=2;fontColor=#none;fontSize=11;" parent="3a4930da-02e9-11eb-b860-f9eaec6c9f5e" vertex="1">
      <mxGeometry x="7" y="-2" width="40" height="20" as="geometry" />
    </mxCell>
    
    
      
      <object label="" Type="PhysicalComponent" id="3a4930dd-02e9-11eb-b860-f9eaec6c9f5e">
      <mxCell style="group;strokeWidth=1;fillColor=none;fontColor=none;" vertex="1" connectable="0" parent="3a4930dc-02e9-11eb-b860-f9eaec6c9f5e">
        <mxGeometry x="2.0" width="124.0" height="35" as="geometry" />
      </mxCell>
    </object>
    <mxCell id="3a4930dd-02e9-11eb-b860-f9eaec6c9f5e1" value="" style="rounded=0;whiteSpace=wrap;html=1;strokeWidth=1;" vertex="1" parent="3a4930dd-02e9-11eb-b860-f9eaec6c9f5e">
      <mxGeometry x="2.9165384615384653" width="121.08346153846153" height="35" as="geometry" />
    </mxCell>
    <mxCell id="3a4930dd-02e9-11eb-b860-f9eaec6c9f5e2" value="&lt;font style=&quot;font-size: 17px&quot;&gt;PolarisBLE&lt;/font&gt;" style="rounded=0;whiteSpace=wrap;html=1;strokeWidth=1;verticalAlign=middle;" vertex="1" parent="3a4930dd-02e9-11eb-b860-f9eaec6c9f5e">
      <mxGeometry x="4.9581153846153825" y="2.2999999999999545" width="117.08346153846153" height="30.5"  as="geometry" />
    </mxCell>
    <mxCell id="3a4930dd-02e9-11eb-b860-f9eaec6c9f5e3" value="" style="ellipse;whiteSpace=wrap;html=1;aspect=fixed;fillColor=#000000;" vertex="1" parent="3a4930dd-02e9-11eb-b860-f9eaec6c9f5e">
      <mxGeometry x="7" y="4.559999999999945" width="2" height="2" as="geometry" />
    </mxCell>

    
    <mxCell id="3a4930dd-02e9-11eb-b860-f9eaec6c9f5e9" value="" style="rounded=0;whiteSpace=wrap;html=1;fillColor=#000000;" vertex="1" parent="3a4930dd-02e9-11eb-b860-f9eaec6c9f5e">
      <mxGeometry x="124.08346153846153" y="5" width="2.916538461538462" height="0.7844016136261763" as="geometry" />
    </mxCell>

    <mxCell id="3a4930dd-02e9-11eb-b860-f9eaec6c9f5e1500000000005" value="" style="rounded=0;whiteSpace=wrap;html=1;fillColor=#000000;" vertex="1" parent="3a4930dd-02e9-11eb-b860-f9eaec6c9f5e">
      <mxGeometry  y="5" width="2.916538461538462" height="0.7844016136261763" as="geometry" />
    </mxCell>


    
    <mxCell id="3a4930dd-02e9-11eb-b860-f9eaec6c9f5e14" value="" style="rounded=0;whiteSpace=wrap;html=1;fillColor=#000000;" vertex="1" parent="3a4930dd-02e9-11eb-b860-f9eaec6c9f5e">
      <mxGeometry x="124.08346153846153" y="10" width="2.916538461538462" height="0.7844016136261763" as="geometry" />
    </mxCell>

    <mxCell id="3a4930dd-02e9-11eb-b860-f9eaec6c9f5e1500000000010" value="" style="rounded=0;whiteSpace=wrap;html=1;fillColor=#000000;" vertex="1" parent="3a4930dd-02e9-11eb-b860-f9eaec6c9f5e">
      <mxGeometry  y="10" width="2.916538461538462" height="0.7844016136261763" as="geometry" />
    </mxCell>


    
    <mxCell id="3a4930dd-02e9-11eb-b860-f9eaec6c9f5e19" value="" style="rounded=0;whiteSpace=wrap;html=1;fillColor=#000000;" vertex="1" parent="3a4930dd-02e9-11eb-b860-f9eaec6c9f5e">
      <mxGeometry x="124.08346153846153" y="15" width="2.916538461538462" height="0.7844016136261763" as="geometry" />
    </mxCell>

    <mxCell id="3a4930dd-02e9-11eb-b860-f9eaec6c9f5e1500000000015" value="" style="rounded=0;whiteSpace=wrap;html=1;fillColor=#000000;" vertex="1" parent="3a4930dd-02e9-11eb-b860-f9eaec6c9f5e">
      <mxGeometry  y="15" width="2.916538461538462" height="0.7844016136261763" as="geometry" />
    </mxCell>


    
    <mxCell id="3a4930dd-02e9-11eb-b860-f9eaec6c9f5e24" value="" style="rounded=0;whiteSpace=wrap;html=1;fillColor=#000000;" vertex="1" parent="3a4930dd-02e9-11eb-b860-f9eaec6c9f5e">
      <mxGeometry x="124.08346153846153" y="20" width="2.916538461538462" height="0.7844016136261763" as="geometry" />
    </mxCell>

    <mxCell id="3a4930dd-02e9-11eb-b860-f9eaec6c9f5e1500000000020" value="" style="rounded=0;whiteSpace=wrap;html=1;fillColor=#000000;" vertex="1" parent="3a4930dd-02e9-11eb-b860-f9eaec6c9f5e">
      <mxGeometry  y="20" width="2.916538461538462" height="0.7844016136261763" as="geometry" />
    </mxCell>


    
    <mxCell id="3a4930dd-02e9-11eb-b860-f9eaec6c9f5e29" value="" style="rounded=0;whiteSpace=wrap;html=1;fillColor=#000000;" vertex="1" parent="3a4930dd-02e9-11eb-b860-f9eaec6c9f5e">
      <mxGeometry x="124.08346153846153" y="25" width="2.916538461538462" height="0.7844016136261763" as="geometry" />
    </mxCell>

    <mxCell id="3a4930dd-02e9-11eb-b860-f9eaec6c9f5e1500000000025" value="" style="rounded=0;whiteSpace=wrap;html=1;fillColor=#000000;" vertex="1" parent="3a4930dd-02e9-11eb-b860-f9eaec6c9f5e">
      <mxGeometry  y="25" width="2.916538461538462" height="0.7844016136261763" as="geometry" />
    </mxCell>


    
    <mxCell id="3a4930dd-02e9-11eb-b860-f9eaec6c9f5e34" value="" style="rounded=0;whiteSpace=wrap;html=1;fillColor=#000000;" vertex="1" parent="3a4930dd-02e9-11eb-b860-f9eaec6c9f5e">
      <mxGeometry x="124.08346153846153" y="30" width="2.916538461538462" height="0.7844016136261763" as="geometry" />
    </mxCell>

    <mxCell id="3a4930dd-02e9-11eb-b860-f9eaec6c9f5e1500000000030" value="" style="rounded=0;whiteSpace=wrap;html=1;fillColor=#000000;" vertex="1" parent="3a4930dd-02e9-11eb-b860-f9eaec6c9f5e">
      <mxGeometry  y="30" width="2.916538461538462" height="0.7844016136261763" as="geometry" />
    </mxCell>


    
      
    
      
      <object label="polarisLTE-M" Type="ServiceComponent" id="3a4930de-02e9-11eb-b860-f9eaec6c9f5e">
      <mxCell style="group" vertex="1" connectable="0" parent="3a4930dc-02e9-11eb-b860-f9eaec6c9f5e">
        <mxGeometry  x="136.0" width="124.0" height="35" as="geometry" />
      </mxCell>
    </object>
    <mxCell id="3a4930de-02e9-11eb-b860-f9eaec6c9f5e1" value="" style="rounded=1;whiteSpace=wrap;html=1;strokeWidth=1;fillColor=#FFFFFF;fontColor=none;align=left;" vertex="1" parent="3a4930de-02e9-11eb-b860-f9eaec6c9f5e">
      <mxGeometry width="47" height="35" as="geometry" />
    </mxCell>
    <mxCell id="3a4930de-02e9-11eb-b860-f9eaec6c9f5e2" value="&lt;font style=&quot;font-size: 17px&quot;&gt;polarisLTE-M&lt;/font&gt;" style="rounded=0;whiteSpace=wrap;html=1;strokeWidth=1;fontColor=none;align=center;fillColor=#FFFFFF;" vertex="1" parent="3a4930de-02e9-11eb-b860-f9eaec6c9f5e">
      <mxGeometry x="22" width="104.0" height="35  " as="geometry" />
    </mxCell>
    <mxCell id="3a4930de-02e9-11eb-b860-f9eaec6c9f5e3" value="" style="html=1;verticalLabelPosition=bottom;align=center;labelBackgroundColor=#ffffff;verticalAlign=top;strokeWidth=1;shadow=0;dashed=0;shape=mxgraph.ios7.icons.cloud;rounded=0;fillColor=#FFFFFF;fontColor=none;aspect=fixed;" vertex="1" parent="3a4930de-02e9-11eb-b860-f9eaec6c9f5e">
      <mxGeometry x="2" y="13.099999999999994" width="18" height="10.8" as="geometry" />
    </mxCell>
    
    
    <object label="" Type="Hub" id="3a4930dc-02e9-11eb-b860-f9eaec6c9f5e">
      <mxCell style="group" vertex="1" connectable="0" parent="3a4930da-02e9-11eb-b860-f9eaec6c9f5e">
        <mxGeometry x="8.4473684210526017" y="20" width="250" height="25" as="geometry" />
      </mxCell>
    </object>
    
    
    <mxCell id="3a4930e0-02e9-11eb-b860-f9eaec6c9f5e" value="" style="group;labelBackgroundColor=#FF99CC;fillColor=#B281FF;strokeColor=#none;" parent="3a4930c3-02e9-11eb-b860-f9eaec6c9f5e" vertex="1" connectable="0">
      <mxGeometry x="10" y="377" width="280" height="105" as="geometry" />
    </mxCell>
    <object label="" Type="PhysicallayerElement" id="3a4930df-02e9-11eb-b860-f9eaec6c9f5e" Node="3a4930c3-02e9-11eb-b860-f9eaec6c9f5e" Hub="False">
      <mxCell style="rounded=0;whiteSpace=wrap;html=1;labelPosition=center;verticalLabelPosition=middle;align=center;verticalAlign=middle;fillColor=#B281FF;strokeColor=#none;" parent="3a4930e0-02e9-11eb-b860-f9eaec6c9f5e" vertex="1">
        <mxGeometry width="280" height="105" as="geometry" />
      </mxCell>
    </object>
      
    <mxCell id="3a4930e1-02e9-11eb-b860-f9eaec6c9f5e" value="Physical" style="text;html=1;strokeColor=none;fillColor=none;align=center;verticalAlign=middle;whiteSpace=wrap;rounded=0;fontStyle=2;fontColor=#none;fontSize=11;" parent="3a4930e0-02e9-11eb-b860-f9eaec6c9f5e" vertex="1">
      <mxGeometry x="7" y="-2" width="40" height="20" as="geometry" />
    </mxCell>
    
    
      
      <object label="PolarisHardware" Type="PhysicalComponent" id="3a4930e3-02e9-11eb-b860-f9eaec6c9f5e">
      <mxCell style="group;strokeWidth=1;fillColor=none;fontColor=none;" vertex="1" connectable="0" parent="3a4930e0-02e9-11eb-b860-f9eaec6c9f5e">
        <mxGeometry x="10" y="17" width="260" height="80" as="geometry" />
      </mxCell>
    </object>
    <mxCell id="3a4930e3-02e9-11eb-b860-f9eaec6c9f5e1" value="" style="rounded=0;whiteSpace=wrap;html=1;strokeWidth=1;" vertex="1" parent="3a4930e3-02e9-11eb-b860-f9eaec6c9f5e">
      <mxGeometry x="2.9165384615384653" width="257.08346153846156" height="80" as="geometry" />
    </mxCell>
    <mxCell id="3a4930e3-02e9-11eb-b860-f9eaec6c9f5e2" value="&lt;font style=&quot;font-size: 17px&quot;&gt;PolarisHardware&lt;/font&gt;" style="rounded=0;whiteSpace=wrap;html=1;strokeWidth=1;verticalAlign=middle;" vertex="1" parent="3a4930e3-02e9-11eb-b860-f9eaec6c9f5e">
      <mxGeometry x="4.9581153846153825" y="2.2999999999999545" width="253.08346153846153" height="75.5" as="geometry" />
    </mxCell>
    <mxCell id="3a4930e3-02e9-11eb-b860-f9eaec6c9f5e3" value="" style="ellipse;whiteSpace=wrap;html=1;aspect=fixed;fillColor=#000000;" vertex="1" parent="3a4930e3-02e9-11eb-b860-f9eaec6c9f5e">
      <mxGeometry x="7" y="4.559999999999945" width="2" height="2" as="geometry" />
    </mxCell>
    
    <mxCell id="3a4930e3-02e9-11eb-b860-f9eaec6c9f5e9" value="" style="rounded=0;whiteSpace=wrap;html=1;fillColor=#000000;" vertex="1" parent="3a4930e3-02e9-11eb-b860-f9eaec6c9f5e">
      <mxGeometry x="260.08346153846156" y="5" width="2.916538461538462" height="0.7844016136261763" as="geometry" />
    </mxCell>

    <mxCell id="3a4930e3-02e9-11eb-b860-f9eaec6c9f5e1500000000005" value="" style="rounded=0;whiteSpace=wrap;html=1;fillColor=#000000;" vertex="1" parent="3a4930e3-02e9-11eb-b860-f9eaec6c9f5e">
      <mxGeometry y="5" width="2.916538461538462" height="0.7844016136261763" as="geometry" />
    </mxCell>
    
    <mxCell id="3a4930e3-02e9-11eb-b860-f9eaec6c9f5e14" value="" style="rounded=0;whiteSpace=wrap;html=1;fillColor=#000000;" vertex="1" parent="3a4930e3-02e9-11eb-b860-f9eaec6c9f5e">
      <mxGeometry x="260.08346153846156" y="10" width="2.916538461538462" height="0.7844016136261763" as="geometry" />
    </mxCell>

    <mxCell id="3a4930e3-02e9-11eb-b860-f9eaec6c9f5e1500000000010" value="" style="rounded=0;whiteSpace=wrap;html=1;fillColor=#000000;" vertex="1" parent="3a4930e3-02e9-11eb-b860-f9eaec6c9f5e">
      <mxGeometry y="10" width="2.916538461538462" height="0.7844016136261763" as="geometry" />
    </mxCell>
    
    <mxCell id="3a4930e3-02e9-11eb-b860-f9eaec6c9f5e19" value="" style="rounded=0;whiteSpace=wrap;html=1;fillColor=#000000;" vertex="1" parent="3a4930e3-02e9-11eb-b860-f9eaec6c9f5e">
      <mxGeometry x="260.08346153846156" y="15" width="2.916538461538462" height="0.7844016136261763" as="geometry" />
    </mxCell>

    <mxCell id="3a4930e3-02e9-11eb-b860-f9eaec6c9f5e1500000000015" value="" style="rounded=0;whiteSpace=wrap;html=1;fillColor=#000000;" vertex="1" parent="3a4930e3-02e9-11eb-b860-f9eaec6c9f5e">
      <mxGeometry y="15" width="2.916538461538462" height="0.7844016136261763" as="geometry" />
    </mxCell>
    
    <mxCell id="3a4930e3-02e9-11eb-b860-f9eaec6c9f5e24" value="" style="rounded=0;whiteSpace=wrap;html=1;fillColor=#000000;" vertex="1" parent="3a4930e3-02e9-11eb-b860-f9eaec6c9f5e">
      <mxGeometry x="260.08346153846156" y="20" width="2.916538461538462" height="0.7844016136261763" as="geometry" />
    </mxCell>

    <mxCell id="3a4930e3-02e9-11eb-b860-f9eaec6c9f5e1500000000020" value="" style="rounded=0;whiteSpace=wrap;html=1;fillColor=#000000;" vertex="1" parent="3a4930e3-02e9-11eb-b860-f9eaec6c9f5e">
      <mxGeometry y="20" width="2.916538461538462" height="0.7844016136261763" as="geometry" />
    </mxCell>
    
    <mxCell id="3a4930e3-02e9-11eb-b860-f9eaec6c9f5e29" value="" style="rounded=0;whiteSpace=wrap;html=1;fillColor=#000000;" vertex="1" parent="3a4930e3-02e9-11eb-b860-f9eaec6c9f5e">
      <mxGeometry x="260.08346153846156" y="25" width="2.916538461538462" height="0.7844016136261763" as="geometry" />
    </mxCell>

    <mxCell id="3a4930e3-02e9-11eb-b860-f9eaec6c9f5e1500000000025" value="" style="rounded=0;whiteSpace=wrap;html=1;fillColor=#000000;" vertex="1" parent="3a4930e3-02e9-11eb-b860-f9eaec6c9f5e">
      <mxGeometry y="25" width="2.916538461538462" height="0.7844016136261763" as="geometry" />
    </mxCell>
    
    <mxCell id="3a4930e3-02e9-11eb-b860-f9eaec6c9f5e34" value="" style="rounded=0;whiteSpace=wrap;html=1;fillColor=#000000;" vertex="1" parent="3a4930e3-02e9-11eb-b860-f9eaec6c9f5e">
      <mxGeometry x="260.08346153846156" y="30" width="2.916538461538462" height="0.7844016136261763" as="geometry" />
    </mxCell>

    <mxCell id="3a4930e3-02e9-11eb-b860-f9eaec6c9f5e1500000000030" value="" style="rounded=0;whiteSpace=wrap;html=1;fillColor=#000000;" vertex="1" parent="3a4930e3-02e9-11eb-b860-f9eaec6c9f5e">
      <mxGeometry y="30" width="2.916538461538462" height="0.7844016136261763" as="geometry" />
    </mxCell>
    
    <mxCell id="3a4930e3-02e9-11eb-b860-f9eaec6c9f5e39" value="" style="rounded=0;whiteSpace=wrap;html=1;fillColor=#000000;" vertex="1" parent="3a4930e3-02e9-11eb-b860-f9eaec6c9f5e">
      <mxGeometry x="260.08346153846156" y="35" width="2.916538461538462" height="0.7844016136261763" as="geometry" />
    </mxCell>

    <mxCell id="3a4930e3-02e9-11eb-b860-f9eaec6c9f5e1500000000035" value="" style="rounded=0;whiteSpace=wrap;html=1;fillColor=#000000;" vertex="1" parent="3a4930e3-02e9-11eb-b860-f9eaec6c9f5e">
      <mxGeometry y="35" width="2.916538461538462" height="0.7844016136261763" as="geometry" />
    </mxCell>
    
    <mxCell id="3a4930e3-02e9-11eb-b860-f9eaec6c9f5e44" value="" style="rounded=0;whiteSpace=wrap;html=1;fillColor=#000000;" vertex="1" parent="3a4930e3-02e9-11eb-b860-f9eaec6c9f5e">
      <mxGeometry x="260.08346153846156" y="40" width="2.916538461538462" height="0.7844016136261763" as="geometry" />
    </mxCell>

    <mxCell id="3a4930e3-02e9-11eb-b860-f9eaec6c9f5e1500000000040" value="" style="rounded=0;whiteSpace=wrap;html=1;fillColor=#000000;" vertex="1" parent="3a4930e3-02e9-11eb-b860-f9eaec6c9f5e">
      <mxGeometry y="40" width="2.916538461538462" height="0.7844016136261763" as="geometry" />
    </mxCell>
    
    <mxCell id="3a4930e3-02e9-11eb-b860-f9eaec6c9f5e49" value="" style="rounded=0;whiteSpace=wrap;html=1;fillColor=#000000;" vertex="1" parent="3a4930e3-02e9-11eb-b860-f9eaec6c9f5e">
      <mxGeometry x="260.08346153846156" y="45" width="2.916538461538462" height="0.7844016136261763" as="geometry" />
    </mxCell>

    <mxCell id="3a4930e3-02e9-11eb-b860-f9eaec6c9f5e1500000000045" value="" style="rounded=0;whiteSpace=wrap;html=1;fillColor=#000000;" vertex="1" parent="3a4930e3-02e9-11eb-b860-f9eaec6c9f5e">
      <mxGeometry y="45" width="2.916538461538462" height="0.7844016136261763" as="geometry" />
    </mxCell>
    
    <mxCell id="3a4930e3-02e9-11eb-b860-f9eaec6c9f5e54" value="" style="rounded=0;whiteSpace=wrap;html=1;fillColor=#000000;" vertex="1" parent="3a4930e3-02e9-11eb-b860-f9eaec6c9f5e">
      <mxGeometry x="260.08346153846156" y="50" width="2.916538461538462" height="0.7844016136261763" as="geometry" />
    </mxCell>

    <mxCell id="3a4930e3-02e9-11eb-b860-f9eaec6c9f5e1500000000050" value="" style="rounded=0;whiteSpace=wrap;html=1;fillColor=#000000;" vertex="1" parent="3a4930e3-02e9-11eb-b860-f9eaec6c9f5e">
      <mxGeometry y="50" width="2.916538461538462" height="0.7844016136261763" as="geometry" />
    </mxCell>
    
    <mxCell id="3a4930e3-02e9-11eb-b860-f9eaec6c9f5e59" value="" style="rounded=0;whiteSpace=wrap;html=1;fillColor=#000000;" vertex="1" parent="3a4930e3-02e9-11eb-b860-f9eaec6c9f5e">
      <mxGeometry x="260.08346153846156" y="55" width="2.916538461538462" height="0.7844016136261763" as="geometry" />
    </mxCell>

    <mxCell id="3a4930e3-02e9-11eb-b860-f9eaec6c9f5e1500000000055" value="" style="rounded=0;whiteSpace=wrap;html=1;fillColor=#000000;" vertex="1" parent="3a4930e3-02e9-11eb-b860-f9eaec6c9f5e">
      <mxGeometry y="55" width="2.916538461538462" height="0.7844016136261763" as="geometry" />
    </mxCell>
    
    <mxCell id="3a4930e3-02e9-11eb-b860-f9eaec6c9f5e64" value="" style="rounded=0;whiteSpace=wrap;html=1;fillColor=#000000;" vertex="1" parent="3a4930e3-02e9-11eb-b860-f9eaec6c9f5e">
      <mxGeometry x="260.08346153846156" y="60" width="2.916538461538462" height="0.7844016136261763" as="geometry" />
    </mxCell>

    <mxCell id="3a4930e3-02e9-11eb-b860-f9eaec6c9f5e1500000000060" value="" style="rounded=0;whiteSpace=wrap;html=1;fillColor=#000000;" vertex="1" parent="3a4930e3-02e9-11eb-b860-f9eaec6c9f5e">
      <mxGeometry y="60" width="2.916538461538462" height="0.7844016136261763" as="geometry" />
    </mxCell>
    
    <mxCell id="3a4930e3-02e9-11eb-b860-f9eaec6c9f5e69" value="" style="rounded=0;whiteSpace=wrap;html=1;fillColor=#000000;" vertex="1" parent="3a4930e3-02e9-11eb-b860-f9eaec6c9f5e">
      <mxGeometry x="260.08346153846156" y="65" width="2.916538461538462" height="0.7844016136261763" as="geometry" />
    </mxCell>

    <mxCell id="3a4930e3-02e9-11eb-b860-f9eaec6c9f5e1500000000065" value="" style="rounded=0;whiteSpace=wrap;html=1;fillColor=#000000;" vertex="1" parent="3a4930e3-02e9-11eb-b860-f9eaec6c9f5e">
      <mxGeometry y="65" width="2.916538461538462" height="0.7844016136261763" as="geometry" />
    </mxCell>
    
    <mxCell id="3a4930e3-02e9-11eb-b860-f9eaec6c9f5e74" value="" style="rounded=0;whiteSpace=wrap;html=1;fillColor=#000000;" vertex="1" parent="3a4930e3-02e9-11eb-b860-f9eaec6c9f5e">
      <mxGeometry x="260.08346153846156" y="70" width="2.916538461538462" height="0.7844016136261763" as="geometry" />
    </mxCell>

    <mxCell id="3a4930e3-02e9-11eb-b860-f9eaec6c9f5e1500000000070" value="" style="rounded=0;whiteSpace=wrap;html=1;fillColor=#000000;" vertex="1" parent="3a4930e3-02e9-11eb-b860-f9eaec6c9f5e">
      <mxGeometry y="70" width="2.916538461538462" height="0.7844016136261763" as="geometry" />
    </mxCell>
    
    <mxCell id="3a4930e3-02e9-11eb-b860-f9eaec6c9f5e79" value="" style="rounded=0;whiteSpace=wrap;html=1;fillColor=#000000;" vertex="1" parent="3a4930e3-02e9-11eb-b860-f9eaec6c9f5e">
      <mxGeometry x="260.08346153846156" y="75" width="2.916538461538462" height="0.7844016136261763" as="geometry" />
    </mxCell>

    <mxCell id="3a4930e3-02e9-11eb-b860-f9eaec6c9f5e1500000000075" value="" style="rounded=0;whiteSpace=wrap;html=1;fillColor=#000000;" vertex="1" parent="3a4930e3-02e9-11eb-b860-f9eaec6c9f5e">
      <mxGeometry y="75" width="2.916538461538462" height="0.7844016136261763" as="geometry" />
    </mxCell>
    
      
    
    
    
    <mxCell id="3a4930e5-02e9-11eb-b860-f9eaec6c9f5e" value="" style="group;labelBackgroundColor=#FF99CC;fillColor=#F8CECC;strokeColor=#none;" parent="3a4930c3-02e9-11eb-b860-f9eaec6c9f5e" vertex="1" connectable="0">
      <mxGeometry x="10" y="492" width="280" height="60" as="geometry" />
    </mxCell>
    <object label="" Type="EnergylayerElement" id="3a4930e4-02e9-11eb-b860-f9eaec6c9f5e" Node="3a4930c3-02e9-11eb-b860-f9eaec6c9f5e" Hub="False">
      <mxCell style="rounded=0;whiteSpace=wrap;html=1;labelPosition=center;verticalLabelPosition=middle;align=center;verticalAlign=middle;fillColor=#F8CECC;strokeColor=#none;" parent="3a4930e5-02e9-11eb-b860-f9eaec6c9f5e" vertex="1">
        <mxGeometry width="280" height="60" as="geometry" />
      </mxCell>
    </object>
      
    <mxCell id="3a4930e6-02e9-11eb-b860-f9eaec6c9f5e" value="Energy" style="text;html=1;strokeColor=none;fillColor=none;align=center;verticalAlign=middle;whiteSpace=wrap;rounded=0;fontStyle=2;fontColor=#none;fontSize=11;" parent="3a4930e5-02e9-11eb-b860-f9eaec6c9f5e" vertex="1">
      <mxGeometry x="4" y="-2" width="40" height="20" as="geometry" />
    </mxCell>
    
    
      
      <object label="PolarisEnergy" Type="PhysicalComponent" id="3a4930e8-02e9-11eb-b860-f9eaec6c9f5e">
      <mxCell style="group;strokeWidth=1;fillColor=none;fontColor=none;" vertex="1" connectable="0" parent="3a4930e5-02e9-11eb-b860-f9eaec6c9f5e">
        <mxGeometry x="10" y="17" width="260" height="35" as="geometry" />
      </mxCell>
    </object>
    <mxCell id="3a4930e8-02e9-11eb-b860-f9eaec6c9f5e1" value="" style="rounded=0;whiteSpace=wrap;html=1;strokeWidth=1;" vertex="1" parent="3a4930e8-02e9-11eb-b860-f9eaec6c9f5e">
      <mxGeometry x="2.9165384615384653" width="257.08346153846156" height="35" as="geometry" />
    </mxCell>
    <mxCell id="3a4930e8-02e9-11eb-b860-f9eaec6c9f5e2" value="&lt;font style=&quot;font-size: 17px&quot;&gt;PolarisEnergy&lt;/font&gt;" style="rounded=0;whiteSpace=wrap;html=1;strokeWidth=1;verticalAlign=middle;" vertex="1" parent="3a4930e8-02e9-11eb-b860-f9eaec6c9f5e">
      <mxGeometry x="4.9581153846153825" y="2.2999999999999545" width="253.08346153846153" height="30.5" as="geometry" />
    </mxCell>
    <mxCell id="3a4930e8-02e9-11eb-b860-f9eaec6c9f5e3" value="" style="ellipse;whiteSpace=wrap;html=1;aspect=fixed;fillColor=#000000;" vertex="1" parent="3a4930e8-02e9-11eb-b860-f9eaec6c9f5e">
      <mxGeometry x="7" y="4.559999999999945" width="2" height="2" as="geometry" />
    </mxCell>
    
    <mxCell id="3a4930e8-02e9-11eb-b860-f9eaec6c9f5e9" value="" style="rounded=0;whiteSpace=wrap;html=1;fillColor=#000000;" vertex="1" parent="3a4930e8-02e9-11eb-b860-f9eaec6c9f5e">
      <mxGeometry x="260.08346153846156" y="5" width="2.916538461538462" height="0.7844016136261763" as="geometry" />
    </mxCell>

    <mxCell id="3a4930e8-02e9-11eb-b860-f9eaec6c9f5e1500000000005" value="" style="rounded=0;whiteSpace=wrap;html=1;fillColor=#000000;" vertex="1" parent="3a4930e8-02e9-11eb-b860-f9eaec6c9f5e">
      <mxGeometry y="5" width="2.916538461538462" height="0.7844016136261763" as="geometry" />
    </mxCell>
    
    <mxCell id="3a4930e8-02e9-11eb-b860-f9eaec6c9f5e14" value="" style="rounded=0;whiteSpace=wrap;html=1;fillColor=#000000;" vertex="1" parent="3a4930e8-02e9-11eb-b860-f9eaec6c9f5e">
      <mxGeometry x="260.08346153846156" y="10" width="2.916538461538462" height="0.7844016136261763" as="geometry" />
    </mxCell>

    <mxCell id="3a4930e8-02e9-11eb-b860-f9eaec6c9f5e1500000000010" value="" style="rounded=0;whiteSpace=wrap;html=1;fillColor=#000000;" vertex="1" parent="3a4930e8-02e9-11eb-b860-f9eaec6c9f5e">
      <mxGeometry y="10" width="2.916538461538462" height="0.7844016136261763" as="geometry" />
    </mxCell>
    
    <mxCell id="3a4930e8-02e9-11eb-b860-f9eaec6c9f5e19" value="" style="rounded=0;whiteSpace=wrap;html=1;fillColor=#000000;" vertex="1" parent="3a4930e8-02e9-11eb-b860-f9eaec6c9f5e">
      <mxGeometry x="260.08346153846156" y="15" width="2.916538461538462" height="0.7844016136261763" as="geometry" />
    </mxCell>

    <mxCell id="3a4930e8-02e9-11eb-b860-f9eaec6c9f5e1500000000015" value="" style="rounded=0;whiteSpace=wrap;html=1;fillColor=#000000;" vertex="1" parent="3a4930e8-02e9-11eb-b860-f9eaec6c9f5e">
      <mxGeometry y="15" width="2.916538461538462" height="0.7844016136261763" as="geometry" />
    </mxCell>
    
    <mxCell id="3a4930e8-02e9-11eb-b860-f9eaec6c9f5e24" value="" style="rounded=0;whiteSpace=wrap;html=1;fillColor=#000000;" vertex="1" parent="3a4930e8-02e9-11eb-b860-f9eaec6c9f5e">
      <mxGeometry x="260.08346153846156" y="20" width="2.916538461538462" height="0.7844016136261763" as="geometry" />
    </mxCell>

    <mxCell id="3a4930e8-02e9-11eb-b860-f9eaec6c9f5e1500000000020" value="" style="rounded=0;whiteSpace=wrap;html=1;fillColor=#000000;" vertex="1" parent="3a4930e8-02e9-11eb-b860-f9eaec6c9f5e">
      <mxGeometry y="20" width="2.916538461538462" height="0.7844016136261763" as="geometry" />
    </mxCell>
    
    <mxCell id="3a4930e8-02e9-11eb-b860-f9eaec6c9f5e29" value="" style="rounded=0;whiteSpace=wrap;html=1;fillColor=#000000;" vertex="1" parent="3a4930e8-02e9-11eb-b860-f9eaec6c9f5e">
      <mxGeometry x="260.08346153846156" y="25" width="2.916538461538462" height="0.7844016136261763" as="geometry" />
    </mxCell>

    <mxCell id="3a4930e8-02e9-11eb-b860-f9eaec6c9f5e1500000000025" value="" style="rounded=0;whiteSpace=wrap;html=1;fillColor=#000000;" vertex="1" parent="3a4930e8-02e9-11eb-b860-f9eaec6c9f5e">
      <mxGeometry y="25" width="2.916538461538462" height="0.7844016136261763" as="geometry" />
    </mxCell>
    
    <mxCell id="3a4930e8-02e9-11eb-b860-f9eaec6c9f5e34" value="" style="rounded=0;whiteSpace=wrap;html=1;fillColor=#000000;" vertex="1" parent="3a4930e8-02e9-11eb-b860-f9eaec6c9f5e">
      <mxGeometry x="260.08346153846156" y="30" width="2.916538461538462" height="0.7844016136261763" as="geometry" />
    </mxCell>

    <mxCell id="3a4930e8-02e9-11eb-b860-f9eaec6c9f5e1500000000030" value="" style="rounded=0;whiteSpace=wrap;html=1;fillColor=#000000;" vertex="1" parent="3a4930e8-02e9-11eb-b860-f9eaec6c9f5e">
      <mxGeometry y="30" width="2.916538461538462" height="0.7844016136261763" as="geometry" />
    </mxCell>
    
      
    
    
    
    
    
      <mxCell id="3a4930e9-02e9-11eb-b860-f9eaec6c9f5e" value="" style="group" vertex="1" connectable="0" parent="1">
        <mxGeometry x="720" y="-171.0" width="300" height="582" as="geometry" />
      </mxCell>

      <object label="" id="3a4930eb-02e9-11eb-b860-f9eaec6c9f5e" Type="label">
        <mxCell style="group;fontFamily=Comic Sans MS;fontColor=#FFF11F;" parent="3a4930e9-02e9-11eb-b860-f9eaec6c9f5e" vertex="1" connectable="0">
          <mxGeometry width="300" height="60" as="geometry" />
        </mxCell>
      </object>
      <object label="Network"   Type="Tier" id="3a4930ec-02e9-11eb-b860-f9eaec6c9f5e">
        <mxCell style="rounded=1;whiteSpace=wrap;html=1;arcSize=0;fillColor=#6E7A8A;strokeColor=#6C8EBF;fontFamily=Helvetica;fontSize=22;fontColor=#FFFFFF;" parent="3a4930eb-02e9-11eb-b860-f9eaec6c9f5e" vertex="1">
          <mxGeometry width="300" height="60" as="geometry" />
        </mxCell>
      </object>
      
      <object label="Twilio" Type="NetworkNode" Tier="3a4930ec-02e9-11eb-b860-f9eaec6c9f5e" id="3a4930ed-02e9-11eb-b860-f9eaec6c9f5e">
        <mxCell  style="group;align=center;labelBackgroundColor=none;fillColor=none;fontSize=16;fontColor=#000000;rounded=1;fontStyle=1;" vertex="1" connectable="0" parent="3a4930e9-02e9-11eb-b860-f9eaec6c9f5e">
          <mxGeometry x="0" y="80" width="300" height="562" as="geometry" />
        </mxCell>
      </object>
    <mxCell id="3a4930ee-02e9-11eb-b860-f9eaec6c9f5e" value="&lt;font style=&quot;font-size: 16px&quot;&gt;Twilio&lt;/font&gt;" style="rounded=0;whiteSpace=wrap;html=1;align=center;horizontal=1;verticalAlign=top;fontStyle=1;dashed=1;dashPattern=1 4;;strokeWidth=2;" parent="3a4930ed-02e9-11eb-b860-f9eaec6c9f5e" vertex="1">
      <mxGeometry width="300" height="562" as="geometry" />
    </mxCell>

    
    <mxCell id="3a4930f1-02e9-11eb-b860-f9eaec6c9f5e" value="" style="group;labelBackgroundColor=#FF99CC;fillColor=#FFFFFF;strokeColor=#999999;" parent="3a4930ed-02e9-11eb-b860-f9eaec6c9f5e" vertex="1" connectable="0">
      <mxGeometry x="10" y="27" width="280" height="60" as="geometry" />
    </mxCell>
    <object label="" Type="ServicelayerElement" id="3a4930f0-02e9-11eb-b860-f9eaec6c9f5e" Node="3a4930ed-02e9-11eb-b860-f9eaec6c9f5e" Hub="False">
      <mxCell style="rounded=0;whiteSpace=wrap;html=1;labelPosition=center;verticalLabelPosition=middle;align=center;verticalAlign=middle;fillColor=#FFFFFF;strokeColor=#999999;" parent="3a4930f1-02e9-11eb-b860-f9eaec6c9f5e" vertex="1">
        <mxGeometry width="280" height="60" as="geometry" />
      </mxCell>
    </object>
      
    <mxCell id="3a4930f2-02e9-11eb-b860-f9eaec6c9f5e" value="Service" style="text;html=1;strokeColor=none;fillColor=none;align=center;verticalAlign=middle;whiteSpace=wrap;rounded=0;fontStyle=2;fontColor=#999999;fontSize=11;" parent="3a4930f1-02e9-11eb-b860-f9eaec6c9f5e" vertex="1">
      <mxGeometry x="5" y="-2" width="40" height="20" as="geometry" />
    </mxCell>
    
    
    
    
    <mxCell id="3a4930f5-02e9-11eb-b860-f9eaec6c9f5e" value="" style="group;labelBackgroundColor=#FF99CC;fillColor=#FFFFFF;strokeColor=#999999;" parent="3a4930ed-02e9-11eb-b860-f9eaec6c9f5e" vertex="1" connectable="0">
      <mxGeometry x="10" y="97" width="280" height="60" as="geometry" />
    </mxCell>
    <object label="" Type="DatalayerElement" id="3a4930f4-02e9-11eb-b860-f9eaec6c9f5e" Node="3a4930ed-02e9-11eb-b860-f9eaec6c9f5e" Hub="False">
      <mxCell style="rounded=0;whiteSpace=wrap;html=1;labelPosition=center;verticalLabelPosition=middle;align=center;verticalAlign=middle;fillColor=#FFFFFF;strokeColor=#999999;" parent="3a4930f5-02e9-11eb-b860-f9eaec6c9f5e" vertex="1">
        <mxGeometry width="280" height="60" as="geometry" />
      </mxCell>
    </object>
      
    <mxCell id="3a4930f6-02e9-11eb-b860-f9eaec6c9f5e" value="Data" style="text;html=1;strokeColor=none;fillColor=none;align=center;verticalAlign=middle;whiteSpace=wrap;rounded=0;fontStyle=2;fontColor=#999999;fontSize=11;" parent="3a4930f5-02e9-11eb-b860-f9eaec6c9f5e" vertex="1">
      <mxGeometry x="-2" y="-2" width="40" height="20" as="geometry" />
    </mxCell>
    
    
    
    
    <mxCell id="3a4930f9-02e9-11eb-b860-f9eaec6c9f5e" value="" style="group;labelBackgroundColor=#FF99CC;fillColor=#FFFFFF;strokeColor=#999999;" parent="3a4930ed-02e9-11eb-b860-f9eaec6c9f5e" vertex="1" connectable="0">
      <mxGeometry x="10" y="167" width="280" height="60" as="geometry" />
    </mxCell>
    <object label="" Type="MessaginglayerElement" id="3a4930f8-02e9-11eb-b860-f9eaec6c9f5e" Node="3a4930ed-02e9-11eb-b860-f9eaec6c9f5e" Hub="False">
      <mxCell style="rounded=0;whiteSpace=wrap;html=1;labelPosition=center;verticalLabelPosition=middle;align=center;verticalAlign=middle;fillColor=#FFFFFF;strokeColor=#999999;" parent="3a4930f9-02e9-11eb-b860-f9eaec6c9f5e" vertex="1">
        <mxGeometry width="280" height="60" as="geometry" />
      </mxCell>
    </object>
      
    <mxCell id="3a4930fa-02e9-11eb-b860-f9eaec6c9f5e" value="Messaging" style="text;html=1;strokeColor=none;fillColor=none;align=center;verticalAlign=middle;whiteSpace=wrap;rounded=0;fontStyle=2;fontColor=#999999;fontSize=11;" parent="3a4930f9-02e9-11eb-b860-f9eaec6c9f5e" vertex="1">
      <mxGeometry x="13" y="-2" width="40" height="20" as="geometry" />
    </mxCell>
    
    
    
    
    <mxCell id="3a4930fd-02e9-11eb-b860-f9eaec6c9f5e" value="" style="group;labelBackgroundColor=#FF99CC;fillColor=#5937AE;strokeColor=#none;" parent="3a4930ed-02e9-11eb-b860-f9eaec6c9f5e" vertex="1" connectable="0">
      <mxGeometry x="10" y="237" width="280" height="60" as="geometry" />
    </mxCell>
    <object label="" Type="ConnectivitylayerElement" id="3a4930fc-02e9-11eb-b860-f9eaec6c9f5e" Node="3a4930ed-02e9-11eb-b860-f9eaec6c9f5e" Hub="False">
      <mxCell style="rounded=0;whiteSpace=wrap;html=1;labelPosition=center;verticalLabelPosition=middle;align=center;verticalAlign=middle;fillColor=#5937AE;strokeColor=#none;" parent="3a4930fd-02e9-11eb-b860-f9eaec6c9f5e" vertex="1">
        <mxGeometry width="280" height="60" as="geometry" />
      </mxCell>
    </object>
      
    <mxCell id="3a4930fe-02e9-11eb-b860-f9eaec6c9f5e" value="Connectivity" style="text;html=1;strokeColor=none;fillColor=none;align=center;verticalAlign=middle;whiteSpace=wrap;rounded=0;fontStyle=2;fontColor=#none;fontSize=11;" parent="3a4930fd-02e9-11eb-b860-f9eaec6c9f5e" vertex="1">
      <mxGeometry x="16" y="-2" width="40" height="20" as="geometry" />
    </mxCell>
    
    
      


      <object label="TwilioCloud" Type="ServiceComponent" id="3a493100-02e9-11eb-b860-f9eaec6c9f5e">
      <mxCell style="group" vertex="1" connectable="0" parent="3a4930fd-02e9-11eb-b860-f9eaec6c9f5e">
        <mxGeometry x="10" y="17" width="240" height="35" as="geometry" />
      </mxCell>
    </object>
    <mxCell id="3a493100-02e9-11eb-b860-f9eaec6c9f5e1" value="" style="rounded=1;whiteSpace=wrap;html=1;strokeWidth=1;fillColor=#FFFFFF;fontColor=none;align=left;" vertex="1" parent="3a493100-02e9-11eb-b860-f9eaec6c9f5e">
      <mxGeometry width="47" height="35" as="geometry" />
    </mxCell>
    <mxCell id="3a493100-02e9-11eb-b860-f9eaec6c9f5e2" value="&lt;font style=&quot;font-size: 17px&quot;&gt;TwilioCloud&lt;/font&gt;" style="rounded=0;whiteSpace=wrap;html=1;strokeWidth=1;fontColor=none;align=center;fillColor=#FFFFFF;" vertex="1" parent="3a493100-02e9-11eb-b860-f9eaec6c9f5e">
      <mxGeometry x="22" width="240" height="35  " as="geometry" />
    </mxCell>
    <mxCell id="3a493100-02e9-11eb-b860-f9eaec6c9f5e3" value="" style="html=1;verticalLabelPosition=bottom;align=center;labelBackgroundColor=#ffffff;verticalAlign=top;strokeWidth=1;shadow=0;dashed=0;shape=mxgraph.ios7.icons.cloud;rounded=0;fillColor=#FFFFFF;fontColor=none;aspect=fixed;" vertex="1" parent="3a493100-02e9-11eb-b860-f9eaec6c9f5e">
      <mxGeometry x="2" y="13.099999999999994" width="18" height="10.8" as="geometry" />
    </mxCell>


      
    
    
    
    <mxCell id="3a493102-02e9-11eb-b860-f9eaec6c9f5e" value="" style="group;labelBackgroundColor=#FF99CC;fillColor=#6D41DA;strokeColor=#none;" parent="3a4930ed-02e9-11eb-b860-f9eaec6c9f5e" vertex="1" connectable="0">
      <mxGeometry x="10" y="307" width="280" height="60" as="geometry" />
    </mxCell>
    <object label="" Type="NetworklayerElement" id="3a493101-02e9-11eb-b860-f9eaec6c9f5e" Node="3a4930ed-02e9-11eb-b860-f9eaec6c9f5e" Hub="True">
      <mxCell style="rounded=0;whiteSpace=wrap;html=1;labelPosition=center;verticalLabelPosition=middle;align=center;verticalAlign=middle;fillColor=#6D41DA;strokeColor=#none;" parent="3a493102-02e9-11eb-b860-f9eaec6c9f5e" vertex="1">
        <mxGeometry width="280" height="60" as="geometry" />
      </mxCell>
    </object>
      
    <mxCell id="3a493103-02e9-11eb-b860-f9eaec6c9f5e" value="Network" style="text;html=1;strokeColor=none;fillColor=none;align=center;verticalAlign=middle;whiteSpace=wrap;rounded=0;fontStyle=2;fontColor=#none;fontSize=11;" parent="3a493102-02e9-11eb-b860-f9eaec6c9f5e" vertex="1">
      <mxGeometry x="7" y="-2" width="40" height="20" as="geometry" />
    </mxCell>
    
    
      
      <object label="" Type="PhysicalComponent" id="3a493105-02e9-11eb-b860-f9eaec6c9f5e">
      <mxCell style="group;strokeWidth=1;fillColor=none;fontColor=none;" vertex="1" connectable="0" parent="3a493104-02e9-11eb-b860-f9eaec6c9f5e">
        <mxGeometry x="2.0" width="124.0" height="35" as="geometry" />
      </mxCell>
    </object>
    <mxCell id="3a493105-02e9-11eb-b860-f9eaec6c9f5e1" value="" style="rounded=0;whiteSpace=wrap;html=1;strokeWidth=1;" vertex="1" parent="3a493105-02e9-11eb-b860-f9eaec6c9f5e">
      <mxGeometry x="2.9165384615384653" width="121.08346153846153" height="35" as="geometry" />
    </mxCell>
    <mxCell id="3a493105-02e9-11eb-b860-f9eaec6c9f5e2" value="&lt;font style=&quot;font-size: 17px&quot;&gt;SFR_LTE-M&lt;/font&gt;" style="rounded=0;whiteSpace=wrap;html=1;strokeWidth=1;verticalAlign=middle;" vertex="1" parent="3a493105-02e9-11eb-b860-f9eaec6c9f5e">
      <mxGeometry x="4.9581153846153825" y="2.2999999999999545" width="117.08346153846153" height="30.5"  as="geometry" />
    </mxCell>
    <mxCell id="3a493105-02e9-11eb-b860-f9eaec6c9f5e3" value="" style="ellipse;whiteSpace=wrap;html=1;aspect=fixed;fillColor=#000000;" vertex="1" parent="3a493105-02e9-11eb-b860-f9eaec6c9f5e">
      <mxGeometry x="7" y="4.559999999999945" width="2" height="2" as="geometry" />
    </mxCell>

    
    <mxCell id="3a493105-02e9-11eb-b860-f9eaec6c9f5e9" value="" style="rounded=0;whiteSpace=wrap;html=1;fillColor=#000000;" vertex="1" parent="3a493105-02e9-11eb-b860-f9eaec6c9f5e">
      <mxGeometry x="124.08346153846153" y="5" width="2.916538461538462" height="0.7844016136261763" as="geometry" />
    </mxCell>

    <mxCell id="3a493105-02e9-11eb-b860-f9eaec6c9f5e1500000000005" value="" style="rounded=0;whiteSpace=wrap;html=1;fillColor=#000000;" vertex="1" parent="3a493105-02e9-11eb-b860-f9eaec6c9f5e">
      <mxGeometry  y="5" width="2.916538461538462" height="0.7844016136261763" as="geometry" />
    </mxCell>


    
    <mxCell id="3a493105-02e9-11eb-b860-f9eaec6c9f5e14" value="" style="rounded=0;whiteSpace=wrap;html=1;fillColor=#000000;" vertex="1" parent="3a493105-02e9-11eb-b860-f9eaec6c9f5e">
      <mxGeometry x="124.08346153846153" y="10" width="2.916538461538462" height="0.7844016136261763" as="geometry" />
    </mxCell>

    <mxCell id="3a493105-02e9-11eb-b860-f9eaec6c9f5e1500000000010" value="" style="rounded=0;whiteSpace=wrap;html=1;fillColor=#000000;" vertex="1" parent="3a493105-02e9-11eb-b860-f9eaec6c9f5e">
      <mxGeometry  y="10" width="2.916538461538462" height="0.7844016136261763" as="geometry" />
    </mxCell>


    
    <mxCell id="3a493105-02e9-11eb-b860-f9eaec6c9f5e19" value="" style="rounded=0;whiteSpace=wrap;html=1;fillColor=#000000;" vertex="1" parent="3a493105-02e9-11eb-b860-f9eaec6c9f5e">
      <mxGeometry x="124.08346153846153" y="15" width="2.916538461538462" height="0.7844016136261763" as="geometry" />
    </mxCell>

    <mxCell id="3a493105-02e9-11eb-b860-f9eaec6c9f5e1500000000015" value="" style="rounded=0;whiteSpace=wrap;html=1;fillColor=#000000;" vertex="1" parent="3a493105-02e9-11eb-b860-f9eaec6c9f5e">
      <mxGeometry  y="15" width="2.916538461538462" height="0.7844016136261763" as="geometry" />
    </mxCell>


    
    <mxCell id="3a493105-02e9-11eb-b860-f9eaec6c9f5e24" value="" style="rounded=0;whiteSpace=wrap;html=1;fillColor=#000000;" vertex="1" parent="3a493105-02e9-11eb-b860-f9eaec6c9f5e">
      <mxGeometry x="124.08346153846153" y="20" width="2.916538461538462" height="0.7844016136261763" as="geometry" />
    </mxCell>

    <mxCell id="3a493105-02e9-11eb-b860-f9eaec6c9f5e1500000000020" value="" style="rounded=0;whiteSpace=wrap;html=1;fillColor=#000000;" vertex="1" parent="3a493105-02e9-11eb-b860-f9eaec6c9f5e">
      <mxGeometry  y="20" width="2.916538461538462" height="0.7844016136261763" as="geometry" />
    </mxCell>


    
    <mxCell id="3a493105-02e9-11eb-b860-f9eaec6c9f5e29" value="" style="rounded=0;whiteSpace=wrap;html=1;fillColor=#000000;" vertex="1" parent="3a493105-02e9-11eb-b860-f9eaec6c9f5e">
      <mxGeometry x="124.08346153846153" y="25" width="2.916538461538462" height="0.7844016136261763" as="geometry" />
    </mxCell>

    <mxCell id="3a493105-02e9-11eb-b860-f9eaec6c9f5e1500000000025" value="" style="rounded=0;whiteSpace=wrap;html=1;fillColor=#000000;" vertex="1" parent="3a493105-02e9-11eb-b860-f9eaec6c9f5e">
      <mxGeometry  y="25" width="2.916538461538462" height="0.7844016136261763" as="geometry" />
    </mxCell>


    
    <mxCell id="3a493105-02e9-11eb-b860-f9eaec6c9f5e34" value="" style="rounded=0;whiteSpace=wrap;html=1;fillColor=#000000;" vertex="1" parent="3a493105-02e9-11eb-b860-f9eaec6c9f5e">
      <mxGeometry x="124.08346153846153" y="30" width="2.916538461538462" height="0.7844016136261763" as="geometry" />
    </mxCell>

    <mxCell id="3a493105-02e9-11eb-b860-f9eaec6c9f5e1500000000030" value="" style="rounded=0;whiteSpace=wrap;html=1;fillColor=#000000;" vertex="1" parent="3a493105-02e9-11eb-b860-f9eaec6c9f5e">
      <mxGeometry  y="30" width="2.916538461538462" height="0.7844016136261763" as="geometry" />
    </mxCell>


    
      
    
      
      <object label="" Type="PhysicalComponent" id="3a493106-02e9-11eb-b860-f9eaec6c9f5e">
      <mxCell style="group;strokeWidth=1;fillColor=none;fontColor=none;" vertex="1" connectable="0" parent="3a493104-02e9-11eb-b860-f9eaec6c9f5e">
        <mxGeometry x="136.0" width="124.0" height="35" as="geometry" />
      </mxCell>
    </object>
    <mxCell id="3a493106-02e9-11eb-b860-f9eaec6c9f5e1" value="" style="rounded=0;whiteSpace=wrap;html=1;strokeWidth=1;" vertex="1" parent="3a493106-02e9-11eb-b860-f9eaec6c9f5e">
      <mxGeometry x="2.9165384615384653" width="121.08346153846153" height="35" as="geometry" />
    </mxCell>
    <mxCell id="3a493106-02e9-11eb-b860-f9eaec6c9f5e2" value="&lt;font style=&quot;font-size: 17px&quot;&gt;SFR-Aws&lt;/font&gt;" style="rounded=0;whiteSpace=wrap;html=1;strokeWidth=1;verticalAlign=middle;" vertex="1" parent="3a493106-02e9-11eb-b860-f9eaec6c9f5e">
      <mxGeometry x="4.9581153846153825" y="2.2999999999999545" width="117.08346153846153" height="30.5"  as="geometry" />
    </mxCell>
    <mxCell id="3a493106-02e9-11eb-b860-f9eaec6c9f5e3" value="" style="ellipse;whiteSpace=wrap;html=1;aspect=fixed;fillColor=#000000;" vertex="1" parent="3a493106-02e9-11eb-b860-f9eaec6c9f5e">
      <mxGeometry x="7" y="4.559999999999945" width="2" height="2" as="geometry" />
    </mxCell>

    
    <mxCell id="3a493106-02e9-11eb-b860-f9eaec6c9f5e9" value="" style="rounded=0;whiteSpace=wrap;html=1;fillColor=#000000;" vertex="1" parent="3a493106-02e9-11eb-b860-f9eaec6c9f5e">
      <mxGeometry x="124.08346153846153" y="5" width="2.916538461538462" height="0.7844016136261763" as="geometry" />
    </mxCell>

    <mxCell id="3a493106-02e9-11eb-b860-f9eaec6c9f5e1500000000005" value="" style="rounded=0;whiteSpace=wrap;html=1;fillColor=#000000;" vertex="1" parent="3a493106-02e9-11eb-b860-f9eaec6c9f5e">
      <mxGeometry  y="5" width="2.916538461538462" height="0.7844016136261763" as="geometry" />
    </mxCell>


    
    <mxCell id="3a493106-02e9-11eb-b860-f9eaec6c9f5e14" value="" style="rounded=0;whiteSpace=wrap;html=1;fillColor=#000000;" vertex="1" parent="3a493106-02e9-11eb-b860-f9eaec6c9f5e">
      <mxGeometry x="124.08346153846153" y="10" width="2.916538461538462" height="0.7844016136261763" as="geometry" />
    </mxCell>

    <mxCell id="3a493106-02e9-11eb-b860-f9eaec6c9f5e1500000000010" value="" style="rounded=0;whiteSpace=wrap;html=1;fillColor=#000000;" vertex="1" parent="3a493106-02e9-11eb-b860-f9eaec6c9f5e">
      <mxGeometry  y="10" width="2.916538461538462" height="0.7844016136261763" as="geometry" />
    </mxCell>


    
    <mxCell id="3a493106-02e9-11eb-b860-f9eaec6c9f5e19" value="" style="rounded=0;whiteSpace=wrap;html=1;fillColor=#000000;" vertex="1" parent="3a493106-02e9-11eb-b860-f9eaec6c9f5e">
      <mxGeometry x="124.08346153846153" y="15" width="2.916538461538462" height="0.7844016136261763" as="geometry" />
    </mxCell>

    <mxCell id="3a493106-02e9-11eb-b860-f9eaec6c9f5e1500000000015" value="" style="rounded=0;whiteSpace=wrap;html=1;fillColor=#000000;" vertex="1" parent="3a493106-02e9-11eb-b860-f9eaec6c9f5e">
      <mxGeometry  y="15" width="2.916538461538462" height="0.7844016136261763" as="geometry" />
    </mxCell>


    
    <mxCell id="3a493106-02e9-11eb-b860-f9eaec6c9f5e24" value="" style="rounded=0;whiteSpace=wrap;html=1;fillColor=#000000;" vertex="1" parent="3a493106-02e9-11eb-b860-f9eaec6c9f5e">
      <mxGeometry x="124.08346153846153" y="20" width="2.916538461538462" height="0.7844016136261763" as="geometry" />
    </mxCell>

    <mxCell id="3a493106-02e9-11eb-b860-f9eaec6c9f5e1500000000020" value="" style="rounded=0;whiteSpace=wrap;html=1;fillColor=#000000;" vertex="1" parent="3a493106-02e9-11eb-b860-f9eaec6c9f5e">
      <mxGeometry  y="20" width="2.916538461538462" height="0.7844016136261763" as="geometry" />
    </mxCell>


    
    <mxCell id="3a493106-02e9-11eb-b860-f9eaec6c9f5e29" value="" style="rounded=0;whiteSpace=wrap;html=1;fillColor=#000000;" vertex="1" parent="3a493106-02e9-11eb-b860-f9eaec6c9f5e">
      <mxGeometry x="124.08346153846153" y="25" width="2.916538461538462" height="0.7844016136261763" as="geometry" />
    </mxCell>

    <mxCell id="3a493106-02e9-11eb-b860-f9eaec6c9f5e1500000000025" value="" style="rounded=0;whiteSpace=wrap;html=1;fillColor=#000000;" vertex="1" parent="3a493106-02e9-11eb-b860-f9eaec6c9f5e">
      <mxGeometry  y="25" width="2.916538461538462" height="0.7844016136261763" as="geometry" />
    </mxCell>


    
    <mxCell id="3a493106-02e9-11eb-b860-f9eaec6c9f5e34" value="" style="rounded=0;whiteSpace=wrap;html=1;fillColor=#000000;" vertex="1" parent="3a493106-02e9-11eb-b860-f9eaec6c9f5e">
      <mxGeometry x="124.08346153846153" y="30" width="2.916538461538462" height="0.7844016136261763" as="geometry" />
    </mxCell>

    <mxCell id="3a493106-02e9-11eb-b860-f9eaec6c9f5e1500000000030" value="" style="rounded=0;whiteSpace=wrap;html=1;fillColor=#000000;" vertex="1" parent="3a493106-02e9-11eb-b860-f9eaec6c9f5e">
      <mxGeometry  y="30" width="2.916538461538462" height="0.7844016136261763" as="geometry" />
    </mxCell>


    
      
    
    <object label="" Type="Hub" id="3a493104-02e9-11eb-b860-f9eaec6c9f5e">
      <mxCell style="group" vertex="1" connectable="0" parent="3a493102-02e9-11eb-b860-f9eaec6c9f5e">
        <mxGeometry x="8.4473684210526017" y="20" width="250" height="25" as="geometry" />
      </mxCell>
    </object>
    
    
    <mxCell id="3a493108-02e9-11eb-b860-f9eaec6c9f5e" value="" style="group;labelBackgroundColor=#FF99CC;fillColor=#B281FF;strokeColor=#none;" parent="3a4930ed-02e9-11eb-b860-f9eaec6c9f5e" vertex="1" connectable="0">
      <mxGeometry x="10" y="377" width="280" height="105" as="geometry" />
    </mxCell>
    <object label="" Type="PhysicallayerElement" id="3a493107-02e9-11eb-b860-f9eaec6c9f5e" Node="3a4930ed-02e9-11eb-b860-f9eaec6c9f5e" Hub="False">
      <mxCell style="rounded=0;whiteSpace=wrap;html=1;labelPosition=center;verticalLabelPosition=middle;align=center;verticalAlign=middle;fillColor=#B281FF;strokeColor=#none;" parent="3a493108-02e9-11eb-b860-f9eaec6c9f5e" vertex="1">
        <mxGeometry width="280" height="105" as="geometry" />
      </mxCell>
    </object>
      
      <mxCell id="3a493108-02e9-11eb-b860-f9eaec6c9f5e1" value="" style="strokeWidth=2;endArrow=none;html=1;entryX=1;entryY=0;entryDx=0;entryDy=0;exitX=0;exitY=1;exitDx=0;exitDy=0;strokeColor=#FFFFFF;dashed=1;" parent="3a493108-02e9-11eb-b860-f9eaec6c9f5e" source="3a493107-02e9-11eb-b860-f9eaec6c9f5e" target="3a493107-02e9-11eb-b860-f9eaec6c9f5e" edge="1">
        <mxGeometry width="50" height="50" relative="1" as="geometry">
          <mxPoint x="210" y="520" as="sourcePoint" />
          <mxPoint x="260" y="470" as="targetPoint" />
        </mxGeometry>
      </mxCell>
      <mxCell id="3a493108-02e9-11eb-b860-f9eaec6c9f5e2" value="" style="strokeWidth=2;endArrow=none;html=1;entryX=1;entryY=0.25;entryDx=0;entryDy=0;exitX=0.25;exitY=1;exitDx=0;exitDy=0;strokeColor=#FFFFFF;dashed=1;" parent="3a493108-02e9-11eb-b860-f9eaec6c9f5e" source="3a493107-02e9-11eb-b860-f9eaec6c9f5e" target="3a493107-02e9-11eb-b860-f9eaec6c9f5e" edge="1">
        <mxGeometry width="50" height="50" relative="1" as="geometry">
          <mxPoint x="160" y="270" as="sourcePoint" />
          <mxPoint x="430" y="210" as="targetPoint" />
        </mxGeometry>
      </mxCell>
      <mxCell id="3a493108-02e9-11eb-b860-f9eaec6c9f5e3" value="" style="strokeWidth=2;endArrow=none;html=1;entryX=1;entryY=0.5;entryDx=0;entryDy=0;exitX=0.5;exitY=1;exitDx=0;exitDy=0;strokeColor=#FFFFFF;dashed=1;" parent="3a493108-02e9-11eb-b860-f9eaec6c9f5e" source="3a493107-02e9-11eb-b860-f9eaec6c9f5e" target="3a493107-02e9-11eb-b860-f9eaec6c9f5e" edge="1">
        <mxGeometry width="50" height="50" relative="1" as="geometry">
          <mxPoint x="227.5" y="270" as="sourcePoint" />
          <mxPoint x="430" y="225" as="targetPoint" />
        </mxGeometry>
      </mxCell>
      <mxCell id="3a493108-02e9-11eb-b860-f9eaec6c9f5e4" value="" style="strokeWidth=2;endArrow=none;html=1;entryX=0.75;entryY=0;entryDx=0;entryDy=0;exitX=0;exitY=0.75;exitDx=0;exitDy=0;strokeColor=#FFFFFF;dashed=1;" parent="3a493108-02e9-11eb-b860-f9eaec6c9f5e" source="3a493107-02e9-11eb-b860-f9eaec6c9f5e" target="3a493107-02e9-11eb-b860-f9eaec6c9f5e" edge="1">
        <mxGeometry width="50" height="50" relative="1" as="geometry">
          <mxPoint x="295" y="270" as="sourcePoint" />
          <mxPoint x="430" y="240" as="targetPoint" />
        </mxGeometry>
      </mxCell>
      <mxCell id="3a493108-02e9-11eb-b860-f9eaec6c9f5e5" value="" style="strokeWidth=2;endArrow=none;html=1;entryX=0.5;entryY=0;entryDx=0;entryDy=0;exitX=0;exitY=0.5;exitDx=0;exitDy=0;strokeColor=#FFFFFF;dashed=1;" parent="3a493108-02e9-11eb-b860-f9eaec6c9f5e" source="3a493107-02e9-11eb-b860-f9eaec6c9f5e" target="3a493107-02e9-11eb-b860-f9eaec6c9f5e" edge="1">
        <mxGeometry width="50" height="50" relative="1" as="geometry">
          <mxPoint x="305" y="280" as="sourcePoint" />
          <mxPoint x="440" y="250" as="targetPoint" />
        </mxGeometry>
      </mxCell>
      <mxCell id="3a493108-02e9-11eb-b860-f9eaec6c9f5e6" value="" style="strokeWidth=2;endArrow=none;html=1;entryX=0.25;entryY=0;entryDx=0;entryDy=0;exitX=0;exitY=0.25;exitDx=0;exitDy=0;strokeColor=#FFFFFF;dashed=1;" parent="3a493108-02e9-11eb-b860-f9eaec6c9f5e" source="3a493107-02e9-11eb-b860-f9eaec6c9f5e" target="3a493107-02e9-11eb-b860-f9eaec6c9f5e" edge="1">
        <mxGeometry width="50" height="50" relative="1" as="geometry">
          <mxPoint x="160" y="240" as="sourcePoint" />
          <mxPoint x="295" y="210" as="targetPoint" />
        </mxGeometry>
      </mxCell>
      <mxCell id="3a493108-02e9-11eb-b860-f9eaec6c9f5e7" value="" style="strokeWidth=2;endArrow=none;html=1;entryX=1;entryY=0.75;entryDx=0;entryDy=0;exitX=0.75;exitY=1;exitDx=0;exitDy=0;strokeColor=#FFFFFF;dashed=1;" parent="3a493108-02e9-11eb-b860-f9eaec6c9f5e" source="3a493107-02e9-11eb-b860-f9eaec6c9f5e" target="3a493107-02e9-11eb-b860-f9eaec6c9f5e" edge="1">
        <mxGeometry width="50" height="50" relative="1" as="geometry">
          <mxPoint x="407" y="305" as="sourcePoint" />
          <mxPoint x="474.5" y="290" as="targetPoint" />
        </mxGeometry>
      </mxCell>
      
    <mxCell id="3a493109-02e9-11eb-b860-f9eaec6c9f5e" value="Physical" style="text;html=1;strokeColor=none;fillColor=none;align=center;verticalAlign=middle;whiteSpace=wrap;rounded=0;fontStyle=2;fontColor=#none;fontSize=11;" parent="3a493108-02e9-11eb-b860-f9eaec6c9f5e" vertex="1">
      <mxGeometry x="7" y="-2" width="40" height="20" as="geometry" />
    </mxCell>
    
    
    
    
    <mxCell id="3a49310c-02e9-11eb-b860-f9eaec6c9f5e" value="" style="group;labelBackgroundColor=#FF99CC;fillColor=#F8CECC;strokeColor=#none;" parent="3a4930ed-02e9-11eb-b860-f9eaec6c9f5e" vertex="1" connectable="0">
      <mxGeometry x="10" y="492" width="280" height="60" as="geometry" />
    </mxCell>
    <object label="" Type="EnergylayerElement" id="3a49310b-02e9-11eb-b860-f9eaec6c9f5e" Node="3a4930ed-02e9-11eb-b860-f9eaec6c9f5e" Hub="False">
      <mxCell style="rounded=0;whiteSpace=wrap;html=1;labelPosition=center;verticalLabelPosition=middle;align=center;verticalAlign=middle;fillColor=#F8CECC;strokeColor=#none;" parent="3a49310c-02e9-11eb-b860-f9eaec6c9f5e" vertex="1">
        <mxGeometry width="280" height="60" as="geometry" />
      </mxCell>
    </object>
      
      <mxCell id="3a49310c-02e9-11eb-b860-f9eaec6c9f5e1" value="" style="strokeWidth=2;endArrow=none;html=1;entryX=1;entryY=0;entryDx=0;entryDy=0;exitX=0;exitY=1;exitDx=0;exitDy=0;strokeColor=#FFFFFF;dashed=1;" parent="3a49310c-02e9-11eb-b860-f9eaec6c9f5e" source="3a49310b-02e9-11eb-b860-f9eaec6c9f5e" target="3a49310b-02e9-11eb-b860-f9eaec6c9f5e" edge="1">
        <mxGeometry width="50" height="50" relative="1" as="geometry">
          <mxPoint x="210" y="520" as="sourcePoint" />
          <mxPoint x="260" y="470" as="targetPoint" />
        </mxGeometry>
      </mxCell>
      <mxCell id="3a49310c-02e9-11eb-b860-f9eaec6c9f5e2" value="" style="strokeWidth=2;endArrow=none;html=1;entryX=1;entryY=0.25;entryDx=0;entryDy=0;exitX=0.25;exitY=1;exitDx=0;exitDy=0;strokeColor=#FFFFFF;dashed=1;" parent="3a49310c-02e9-11eb-b860-f9eaec6c9f5e" source="3a49310b-02e9-11eb-b860-f9eaec6c9f5e" target="3a49310b-02e9-11eb-b860-f9eaec6c9f5e" edge="1">
        <mxGeometry width="50" height="50" relative="1" as="geometry">
          <mxPoint x="160" y="270" as="sourcePoint" />
          <mxPoint x="430" y="210" as="targetPoint" />
        </mxGeometry>
      </mxCell>
      <mxCell id="3a49310c-02e9-11eb-b860-f9eaec6c9f5e3" value="" style="strokeWidth=2;endArrow=none;html=1;entryX=1;entryY=0.5;entryDx=0;entryDy=0;exitX=0.5;exitY=1;exitDx=0;exitDy=0;strokeColor=#FFFFFF;dashed=1;" parent="3a49310c-02e9-11eb-b860-f9eaec6c9f5e" source="3a49310b-02e9-11eb-b860-f9eaec6c9f5e" target="3a49310b-02e9-11eb-b860-f9eaec6c9f5e" edge="1">
        <mxGeometry width="50" height="50" relative="1" as="geometry">
          <mxPoint x="227.5" y="270" as="sourcePoint" />
          <mxPoint x="430" y="225" as="targetPoint" />
        </mxGeometry>
      </mxCell>
      <mxCell id="3a49310c-02e9-11eb-b860-f9eaec6c9f5e4" value="" style="strokeWidth=2;endArrow=none;html=1;entryX=0.75;entryY=0;entryDx=0;entryDy=0;exitX=0;exitY=0.75;exitDx=0;exitDy=0;strokeColor=#FFFFFF;dashed=1;" parent="3a49310c-02e9-11eb-b860-f9eaec6c9f5e" source="3a49310b-02e9-11eb-b860-f9eaec6c9f5e" target="3a49310b-02e9-11eb-b860-f9eaec6c9f5e" edge="1">
        <mxGeometry width="50" height="50" relative="1" as="geometry">
          <mxPoint x="295" y="270" as="sourcePoint" />
          <mxPoint x="430" y="240" as="targetPoint" />
        </mxGeometry>
      </mxCell>
      <mxCell id="3a49310c-02e9-11eb-b860-f9eaec6c9f5e5" value="" style="strokeWidth=2;endArrow=none;html=1;entryX=0.5;entryY=0;entryDx=0;entryDy=0;exitX=0;exitY=0.5;exitDx=0;exitDy=0;strokeColor=#FFFFFF;dashed=1;" parent="3a49310c-02e9-11eb-b860-f9eaec6c9f5e" source="3a49310b-02e9-11eb-b860-f9eaec6c9f5e" target="3a49310b-02e9-11eb-b860-f9eaec6c9f5e" edge="1">
        <mxGeometry width="50" height="50" relative="1" as="geometry">
          <mxPoint x="305" y="280" as="sourcePoint" />
          <mxPoint x="440" y="250" as="targetPoint" />
        </mxGeometry>
      </mxCell>
      <mxCell id="3a49310c-02e9-11eb-b860-f9eaec6c9f5e6" value="" style="strokeWidth=2;endArrow=none;html=1;entryX=0.25;entryY=0;entryDx=0;entryDy=0;exitX=0;exitY=0.25;exitDx=0;exitDy=0;strokeColor=#FFFFFF;dashed=1;" parent="3a49310c-02e9-11eb-b860-f9eaec6c9f5e" source="3a49310b-02e9-11eb-b860-f9eaec6c9f5e" target="3a49310b-02e9-11eb-b860-f9eaec6c9f5e" edge="1">
        <mxGeometry width="50" height="50" relative="1" as="geometry">
          <mxPoint x="160" y="240" as="sourcePoint" />
          <mxPoint x="295" y="210" as="targetPoint" />
        </mxGeometry>
      </mxCell>
      <mxCell id="3a49310c-02e9-11eb-b860-f9eaec6c9f5e7" value="" style="strokeWidth=2;endArrow=none;html=1;entryX=1;entryY=0.75;entryDx=0;entryDy=0;exitX=0.75;exitY=1;exitDx=0;exitDy=0;strokeColor=#FFFFFF;dashed=1;" parent="3a49310c-02e9-11eb-b860-f9eaec6c9f5e" source="3a49310b-02e9-11eb-b860-f9eaec6c9f5e" target="3a49310b-02e9-11eb-b860-f9eaec6c9f5e" edge="1">
        <mxGeometry width="50" height="50" relative="1" as="geometry">
          <mxPoint x="407" y="305" as="sourcePoint" />
          <mxPoint x="474.5" y="290" as="targetPoint" />
        </mxGeometry>
      </mxCell>
      
    <mxCell id="3a49310d-02e9-11eb-b860-f9eaec6c9f5e" value="Energy" style="text;html=1;strokeColor=none;fillColor=none;align=center;verticalAlign=middle;whiteSpace=wrap;rounded=0;fontStyle=2;fontColor=#none;fontSize=11;" parent="3a49310c-02e9-11eb-b860-f9eaec6c9f5e" vertex="1">
      <mxGeometry x="4" y="-2" width="40" height="20" as="geometry" />
    </mxCell>
    
    
    
    
    
    
      <mxCell id="3a49310f-02e9-11eb-b860-f9eaec6c9f5e" value="" style="group" vertex="1" connectable="0" parent="1">
        <mxGeometry x="1070" y="-171.0" width="300" height="582" as="geometry" />
      </mxCell>

      <object label="" id="3a493111-02e9-11eb-b860-f9eaec6c9f5e" Type="label">
        <mxCell style="group;fontFamily=Comic Sans MS;fontColor=#FFF11F;" parent="3a49310f-02e9-11eb-b860-f9eaec6c9f5e" vertex="1" connectable="0">
          <mxGeometry width="300" height="60" as="geometry" />
        </mxCell>
      </object>
      <object label="Platform"   Type="Tier" id="3a493112-02e9-11eb-b860-f9eaec6c9f5e">
        <mxCell style="rounded=1;whiteSpace=wrap;html=1;arcSize=0;fillColor=#6E7A8A;strokeColor=#6C8EBF;fontFamily=Helvetica;fontSize=22;fontColor=#FFFFFF;" parent="3a493111-02e9-11eb-b860-f9eaec6c9f5e" vertex="1">
          <mxGeometry width="300" height="60" as="geometry" />
        </mxCell>
      </object>
      
      <object label="IoTHub" Type="PlatformNode" Tier="3a493112-02e9-11eb-b860-f9eaec6c9f5e" id="3a493113-02e9-11eb-b860-f9eaec6c9f5e">
        <mxCell  style="group;align=center;labelBackgroundColor=none;fillColor=none;fontSize=16;fontColor=#000000;rounded=1;fontStyle=1;" vertex="1" connectable="0" parent="3a49310f-02e9-11eb-b860-f9eaec6c9f5e">
          <mxGeometry x="0" y="80" width="300" height="562" as="geometry" />
        </mxCell>
      </object>
    <mxCell id="3a493114-02e9-11eb-b860-f9eaec6c9f5e" value="&lt;font style=&quot;font-size: 16px&quot;&gt;IoTHub&lt;/font&gt;" style="rounded=0;whiteSpace=wrap;html=1;align=center;horizontal=1;verticalAlign=top;fontStyle=1;dashed=1;dashPattern=1 4;;strokeWidth=2;" parent="3a493113-02e9-11eb-b860-f9eaec6c9f5e" vertex="1">
      <mxGeometry width="300" height="562" as="geometry" />
    </mxCell>

    
    <mxCell id="3a493117-02e9-11eb-b860-f9eaec6c9f5e" value="" style="group;labelBackgroundColor=#FF99CC;fillColor=#6ED7D3;strokeColor=#none;" parent="3a493113-02e9-11eb-b860-f9eaec6c9f5e" vertex="1" connectable="0">
      <mxGeometry x="10" y="27" width="280" height="60" as="geometry" />
    </mxCell>
    <object label="" Type="ServicelayerElement" id="3a493116-02e9-11eb-b860-f9eaec6c9f5e" Node="3a493113-02e9-11eb-b860-f9eaec6c9f5e" Hub="False">
      <mxCell style="rounded=0;whiteSpace=wrap;html=1;labelPosition=center;verticalLabelPosition=middle;align=center;verticalAlign=middle;fillColor=#6ED7D3;strokeColor=#none;" parent="3a493117-02e9-11eb-b860-f9eaec6c9f5e" vertex="1">
        <mxGeometry width="280" height="60" as="geometry" />
      </mxCell>
    </object>
      
    <mxCell id="3a493118-02e9-11eb-b860-f9eaec6c9f5e" value="Service" style="text;html=1;strokeColor=none;fillColor=none;align=center;verticalAlign=middle;whiteSpace=wrap;rounded=0;fontStyle=2;fontColor=#none;fontSize=11;" parent="3a493117-02e9-11eb-b860-f9eaec6c9f5e" vertex="1">
      <mxGeometry x="5" y="-2" width="40" height="20" as="geometry" />
    </mxCell>
    
    
      


      <object label="LX-DasboardService" Type="ServiceComponent" id="3a49311a-02e9-11eb-b860-f9eaec6c9f5e">
      <mxCell style="group" vertex="1" connectable="0" parent="3a493117-02e9-11eb-b860-f9eaec6c9f5e">
        <mxGeometry x="10" y="17" width="240" height="35" as="geometry" />
      </mxCell>
    </object>
    <mxCell id="3a49311a-02e9-11eb-b860-f9eaec6c9f5e1" value="" style="rounded=1;whiteSpace=wrap;html=1;strokeWidth=1;fillColor=#FFFFFF;fontColor=none;align=left;" vertex="1" parent="3a49311a-02e9-11eb-b860-f9eaec6c9f5e">
      <mxGeometry width="47" height="35" as="geometry" />
    </mxCell>
    <mxCell id="3a49311a-02e9-11eb-b860-f9eaec6c9f5e2" value="&lt;font style=&quot;font-size: 17px&quot;&gt;LX-DasboardService&lt;/font&gt;" style="rounded=0;whiteSpace=wrap;html=1;strokeWidth=1;fontColor=none;align=center;fillColor=#FFFFFF;" vertex="1" parent="3a49311a-02e9-11eb-b860-f9eaec6c9f5e">
      <mxGeometry x="22" width="240" height="35  " as="geometry" />
    </mxCell>
    <mxCell id="3a49311a-02e9-11eb-b860-f9eaec6c9f5e3" value="" style="html=1;verticalLabelPosition=bottom;align=center;labelBackgroundColor=#ffffff;verticalAlign=top;strokeWidth=1;shadow=0;dashed=0;shape=mxgraph.ios7.icons.cloud;rounded=0;fillColor=#FFFFFF;fontColor=none;aspect=fixed;" vertex="1" parent="3a49311a-02e9-11eb-b860-f9eaec6c9f5e">
      <mxGeometry x="2" y="13.099999999999994" width="18" height="10.8" as="geometry" />
    </mxCell>


      
    
    
    
    <mxCell id="3a49311c-02e9-11eb-b860-f9eaec6c9f5e" value="" style="group;labelBackgroundColor=#FF99CC;fillColor=#3CAEA3;strokeColor=#none;" parent="3a493113-02e9-11eb-b860-f9eaec6c9f5e" vertex="1" connectable="0">
      <mxGeometry x="10" y="97" width="280" height="60" as="geometry" />
    </mxCell>
    <object label="" Type="DatalayerElement" id="3a49311b-02e9-11eb-b860-f9eaec6c9f5e" Node="3a493113-02e9-11eb-b860-f9eaec6c9f5e" Hub="False">
      <mxCell style="rounded=0;whiteSpace=wrap;html=1;labelPosition=center;verticalLabelPosition=middle;align=center;verticalAlign=middle;fillColor=#3CAEA3;strokeColor=#none;" parent="3a49311c-02e9-11eb-b860-f9eaec6c9f5e" vertex="1">
        <mxGeometry width="280" height="60" as="geometry" />
      </mxCell>
    </object>
      
    <mxCell id="3a49311d-02e9-11eb-b860-f9eaec6c9f5e" value="Data" style="text;html=1;strokeColor=none;fillColor=none;align=center;verticalAlign=middle;whiteSpace=wrap;rounded=0;fontStyle=2;fontColor=#none;fontSize=11;" parent="3a49311c-02e9-11eb-b860-f9eaec6c9f5e" vertex="1">
      <mxGeometry x="-2" y="-2" width="40" height="20" as="geometry" />
    </mxCell>
    
    
      


      <object label="LX-Incyt.io" Type="ServiceComponent" id="3a49311f-02e9-11eb-b860-f9eaec6c9f5e">
      <mxCell style="group" vertex="1" connectable="0" parent="3a49311c-02e9-11eb-b860-f9eaec6c9f5e">
        <mxGeometry x="10" y="17" width="240" height="35" as="geometry" />
      </mxCell>
    </object>
    <mxCell id="3a49311f-02e9-11eb-b860-f9eaec6c9f5e1" value="" style="rounded=1;whiteSpace=wrap;html=1;strokeWidth=1;fillColor=#FFFFFF;fontColor=none;align=left;" vertex="1" parent="3a49311f-02e9-11eb-b860-f9eaec6c9f5e">
      <mxGeometry width="47" height="35" as="geometry" />
    </mxCell>
    <mxCell id="3a49311f-02e9-11eb-b860-f9eaec6c9f5e2" value="&lt;font style=&quot;font-size: 17px&quot;&gt;LX-Incyt.io&lt;/font&gt;" style="rounded=0;whiteSpace=wrap;html=1;strokeWidth=1;fontColor=none;align=center;fillColor=#FFFFFF;" vertex="1" parent="3a49311f-02e9-11eb-b860-f9eaec6c9f5e">
      <mxGeometry x="22" width="240" height="35  " as="geometry" />
    </mxCell>
    <mxCell id="3a49311f-02e9-11eb-b860-f9eaec6c9f5e3" value="" style="html=1;verticalLabelPosition=bottom;align=center;labelBackgroundColor=#ffffff;verticalAlign=top;strokeWidth=1;shadow=0;dashed=0;shape=mxgraph.ios7.icons.cloud;rounded=0;fillColor=#FFFFFF;fontColor=none;aspect=fixed;" vertex="1" parent="3a49311f-02e9-11eb-b860-f9eaec6c9f5e">
      <mxGeometry x="2" y="13.099999999999994" width="18" height="10.8" as="geometry" />
    </mxCell>


      
    
    
    
    <mxCell id="3a493121-02e9-11eb-b860-f9eaec6c9f5e" value="" style="group;labelBackgroundColor=#FF99CC;fillColor=#2A9187;strokeColor=#none;" parent="3a493113-02e9-11eb-b860-f9eaec6c9f5e" vertex="1" connectable="0">
      <mxGeometry x="10" y="167" width="280" height="60" as="geometry" />
    </mxCell>
    <object label="" Type="MessaginglayerElement" id="3a493120-02e9-11eb-b860-f9eaec6c9f5e" Node="3a493113-02e9-11eb-b860-f9eaec6c9f5e" Hub="False">
      <mxCell style="rounded=0;whiteSpace=wrap;html=1;labelPosition=center;verticalLabelPosition=middle;align=center;verticalAlign=middle;fillColor=#2A9187;strokeColor=#none;" parent="3a493121-02e9-11eb-b860-f9eaec6c9f5e" vertex="1">
        <mxGeometry width="280" height="60" as="geometry" />
      </mxCell>
    </object>
      
    <mxCell id="3a493122-02e9-11eb-b860-f9eaec6c9f5e" value="Messaging" style="text;html=1;strokeColor=none;fillColor=none;align=center;verticalAlign=middle;whiteSpace=wrap;rounded=0;fontStyle=2;fontColor=#none;fontSize=11;" parent="3a493121-02e9-11eb-b860-f9eaec6c9f5e" vertex="1">
      <mxGeometry x="13" y="-2" width="40" height="20" as="geometry" />
    </mxCell>
    
    
      


      <object label="IOT-Hub" Type="ServiceComponent" id="3a493124-02e9-11eb-b860-f9eaec6c9f5e">
      <mxCell style="group" vertex="1" connectable="0" parent="3a493121-02e9-11eb-b860-f9eaec6c9f5e">
        <mxGeometry x="10" y="17" width="240" height="35" as="geometry" />
      </mxCell>
    </object>
    <mxCell id="3a493124-02e9-11eb-b860-f9eaec6c9f5e1" value="" style="rounded=1;whiteSpace=wrap;html=1;strokeWidth=1;fillColor=#FFFFFF;fontColor=none;align=left;" vertex="1" parent="3a493124-02e9-11eb-b860-f9eaec6c9f5e">
      <mxGeometry width="47" height="35" as="geometry" />
    </mxCell>
    <mxCell id="3a493124-02e9-11eb-b860-f9eaec6c9f5e2" value="&lt;font style=&quot;font-size: 17px&quot;&gt;IOT-Hub&lt;/font&gt;" style="rounded=0;whiteSpace=wrap;html=1;strokeWidth=1;fontColor=none;align=center;fillColor=#FFFFFF;" vertex="1" parent="3a493124-02e9-11eb-b860-f9eaec6c9f5e">
      <mxGeometry x="22" width="240" height="35  " as="geometry" />
    </mxCell>
    <mxCell id="3a493124-02e9-11eb-b860-f9eaec6c9f5e3" value="" style="html=1;verticalLabelPosition=bottom;align=center;labelBackgroundColor=#ffffff;verticalAlign=top;strokeWidth=1;shadow=0;dashed=0;shape=mxgraph.ios7.icons.cloud;rounded=0;fillColor=#FFFFFF;fontColor=none;aspect=fixed;" vertex="1" parent="3a493124-02e9-11eb-b860-f9eaec6c9f5e">
      <mxGeometry x="2" y="13.099999999999994" width="18" height="10.8" as="geometry" />
    </mxCell>


      
    
    
    
    <mxCell id="3a493126-02e9-11eb-b860-f9eaec6c9f5e" value="" style="group;labelBackgroundColor=#FF99CC;fillColor=#5937AE;strokeColor=#none;" parent="3a493113-02e9-11eb-b860-f9eaec6c9f5e" vertex="1" connectable="0">
      <mxGeometry x="10" y="237" width="280" height="60" as="geometry" />
    </mxCell>
    <object label="" Type="ConnectivitylayerElement" id="3a493125-02e9-11eb-b860-f9eaec6c9f5e" Node="3a493113-02e9-11eb-b860-f9eaec6c9f5e" Hub="False">
      <mxCell style="rounded=0;whiteSpace=wrap;html=1;labelPosition=center;verticalLabelPosition=middle;align=center;verticalAlign=middle;fillColor=#5937AE;strokeColor=#none;" parent="3a493126-02e9-11eb-b860-f9eaec6c9f5e" vertex="1">
        <mxGeometry width="280" height="60" as="geometry" />
      </mxCell>
    </object>
      
    <mxCell id="3a493127-02e9-11eb-b860-f9eaec6c9f5e" value="Connectivity" style="text;html=1;strokeColor=none;fillColor=none;align=center;verticalAlign=middle;whiteSpace=wrap;rounded=0;fontStyle=2;fontColor=#none;fontSize=11;" parent="3a493126-02e9-11eb-b860-f9eaec6c9f5e" vertex="1">
      <mxGeometry x="16" y="-2" width="40" height="20" as="geometry" />
    </mxCell>
    
    
      


      <object label="AWS-IoT-SSL" Type="ServiceComponent" id="3a493129-02e9-11eb-b860-f9eaec6c9f5e">
      <mxCell style="group" vertex="1" connectable="0" parent="3a493126-02e9-11eb-b860-f9eaec6c9f5e">
        <mxGeometry x="10" y="17" width="240" height="35" as="geometry" />
      </mxCell>
    </object>
    <mxCell id="3a493129-02e9-11eb-b860-f9eaec6c9f5e1" value="" style="rounded=1;whiteSpace=wrap;html=1;strokeWidth=1;fillColor=#FFFFFF;fontColor=none;align=left;" vertex="1" parent="3a493129-02e9-11eb-b860-f9eaec6c9f5e">
      <mxGeometry width="47" height="35" as="geometry" />
    </mxCell>
    <mxCell id="3a493129-02e9-11eb-b860-f9eaec6c9f5e2" value="&lt;font style=&quot;font-size: 17px&quot;&gt;AWS-IoT-SSL&lt;/font&gt;" style="rounded=0;whiteSpace=wrap;html=1;strokeWidth=1;fontColor=none;align=center;fillColor=#FFFFFF;" vertex="1" parent="3a493129-02e9-11eb-b860-f9eaec6c9f5e">
      <mxGeometry x="22" width="240" height="35  " as="geometry" />
    </mxCell>
    <mxCell id="3a493129-02e9-11eb-b860-f9eaec6c9f5e3" value="" style="html=1;verticalLabelPosition=bottom;align=center;labelBackgroundColor=#ffffff;verticalAlign=top;strokeWidth=1;shadow=0;dashed=0;shape=mxgraph.ios7.icons.cloud;rounded=0;fillColor=#FFFFFF;fontColor=none;aspect=fixed;" vertex="1" parent="3a493129-02e9-11eb-b860-f9eaec6c9f5e">
      <mxGeometry x="2" y="13.099999999999994" width="18" height="10.8" as="geometry" />
    </mxCell>


      
    
    
    
    <mxCell id="3a49312b-02e9-11eb-b860-f9eaec6c9f5e" value="" style="group;labelBackgroundColor=#FF99CC;fillColor=#6D41DA;strokeColor=#none;" parent="3a493113-02e9-11eb-b860-f9eaec6c9f5e" vertex="1" connectable="0">
      <mxGeometry x="10" y="307" width="280" height="60" as="geometry" />
    </mxCell>
    <object label="" Type="NetworklayerElement" id="3a49312a-02e9-11eb-b860-f9eaec6c9f5e" Node="3a493113-02e9-11eb-b860-f9eaec6c9f5e" Hub="True">
      <mxCell style="rounded=0;whiteSpace=wrap;html=1;labelPosition=center;verticalLabelPosition=middle;align=center;verticalAlign=middle;fillColor=#6D41DA;strokeColor=#none;" parent="3a49312b-02e9-11eb-b860-f9eaec6c9f5e" vertex="1">
        <mxGeometry width="280" height="60" as="geometry" />
      </mxCell>
    </object>
      
    <mxCell id="3a49312c-02e9-11eb-b860-f9eaec6c9f5e" value="Network" style="text;html=1;strokeColor=none;fillColor=none;align=center;verticalAlign=middle;whiteSpace=wrap;rounded=0;fontStyle=2;fontColor=#none;fontSize=11;" parent="3a49312b-02e9-11eb-b860-f9eaec6c9f5e" vertex="1">
      <mxGeometry x="7" y="-2" width="40" height="20" as="geometry" />
    </mxCell>
    
    
      
      <object label="" Type="PhysicalComponent" id="3a49312e-02e9-11eb-b860-f9eaec6c9f5e">
      <mxCell style="group;strokeWidth=1;fillColor=none;fontColor=none;" vertex="1" connectable="0" parent="3a49312d-02e9-11eb-b860-f9eaec6c9f5e">
        <mxGeometry x="2.0" width="124.0" height="35" as="geometry" />
      </mxCell>
    </object>
    <mxCell id="3a49312e-02e9-11eb-b860-f9eaec6c9f5e1" value="" style="rounded=0;whiteSpace=wrap;html=1;strokeWidth=1;" vertex="1" parent="3a49312e-02e9-11eb-b860-f9eaec6c9f5e">
      <mxGeometry x="2.9165384615384653" width="121.08346153846153" height="35" as="geometry" />
    </mxCell>
    <mxCell id="3a49312e-02e9-11eb-b860-f9eaec6c9f5e2" value="&lt;font style=&quot;font-size: 17px&quot;&gt;AWS-Network&lt;/font&gt;" style="rounded=0;whiteSpace=wrap;html=1;strokeWidth=1;verticalAlign=middle;" vertex="1" parent="3a49312e-02e9-11eb-b860-f9eaec6c9f5e">
      <mxGeometry x="4.9581153846153825" y="2.2999999999999545" width="117.08346153846153" height="30.5"  as="geometry" />
    </mxCell>
    <mxCell id="3a49312e-02e9-11eb-b860-f9eaec6c9f5e3" value="" style="ellipse;whiteSpace=wrap;html=1;aspect=fixed;fillColor=#000000;" vertex="1" parent="3a49312e-02e9-11eb-b860-f9eaec6c9f5e">
      <mxGeometry x="7" y="4.559999999999945" width="2" height="2" as="geometry" />
    </mxCell>

    
    <mxCell id="3a49312e-02e9-11eb-b860-f9eaec6c9f5e9" value="" style="rounded=0;whiteSpace=wrap;html=1;fillColor=#000000;" vertex="1" parent="3a49312e-02e9-11eb-b860-f9eaec6c9f5e">
      <mxGeometry x="124.08346153846153" y="5" width="2.916538461538462" height="0.7844016136261763" as="geometry" />
    </mxCell>

    <mxCell id="3a49312e-02e9-11eb-b860-f9eaec6c9f5e1500000000005" value="" style="rounded=0;whiteSpace=wrap;html=1;fillColor=#000000;" vertex="1" parent="3a49312e-02e9-11eb-b860-f9eaec6c9f5e">
      <mxGeometry  y="5" width="2.916538461538462" height="0.7844016136261763" as="geometry" />
    </mxCell>


    
    <mxCell id="3a49312e-02e9-11eb-b860-f9eaec6c9f5e14" value="" style="rounded=0;whiteSpace=wrap;html=1;fillColor=#000000;" vertex="1" parent="3a49312e-02e9-11eb-b860-f9eaec6c9f5e">
      <mxGeometry x="124.08346153846153" y="10" width="2.916538461538462" height="0.7844016136261763" as="geometry" />
    </mxCell>

    <mxCell id="3a49312e-02e9-11eb-b860-f9eaec6c9f5e1500000000010" value="" style="rounded=0;whiteSpace=wrap;html=1;fillColor=#000000;" vertex="1" parent="3a49312e-02e9-11eb-b860-f9eaec6c9f5e">
      <mxGeometry  y="10" width="2.916538461538462" height="0.7844016136261763" as="geometry" />
    </mxCell>


    
    <mxCell id="3a49312e-02e9-11eb-b860-f9eaec6c9f5e19" value="" style="rounded=0;whiteSpace=wrap;html=1;fillColor=#000000;" vertex="1" parent="3a49312e-02e9-11eb-b860-f9eaec6c9f5e">
      <mxGeometry x="124.08346153846153" y="15" width="2.916538461538462" height="0.7844016136261763" as="geometry" />
    </mxCell>

    <mxCell id="3a49312e-02e9-11eb-b860-f9eaec6c9f5e1500000000015" value="" style="rounded=0;whiteSpace=wrap;html=1;fillColor=#000000;" vertex="1" parent="3a49312e-02e9-11eb-b860-f9eaec6c9f5e">
      <mxGeometry  y="15" width="2.916538461538462" height="0.7844016136261763" as="geometry" />
    </mxCell>


    
    <mxCell id="3a49312e-02e9-11eb-b860-f9eaec6c9f5e24" value="" style="rounded=0;whiteSpace=wrap;html=1;fillColor=#000000;" vertex="1" parent="3a49312e-02e9-11eb-b860-f9eaec6c9f5e">
      <mxGeometry x="124.08346153846153" y="20" width="2.916538461538462" height="0.7844016136261763" as="geometry" />
    </mxCell>

    <mxCell id="3a49312e-02e9-11eb-b860-f9eaec6c9f5e1500000000020" value="" style="rounded=0;whiteSpace=wrap;html=1;fillColor=#000000;" vertex="1" parent="3a49312e-02e9-11eb-b860-f9eaec6c9f5e">
      <mxGeometry  y="20" width="2.916538461538462" height="0.7844016136261763" as="geometry" />
    </mxCell>


    
    <mxCell id="3a49312e-02e9-11eb-b860-f9eaec6c9f5e29" value="" style="rounded=0;whiteSpace=wrap;html=1;fillColor=#000000;" vertex="1" parent="3a49312e-02e9-11eb-b860-f9eaec6c9f5e">
      <mxGeometry x="124.08346153846153" y="25" width="2.916538461538462" height="0.7844016136261763" as="geometry" />
    </mxCell>

    <mxCell id="3a49312e-02e9-11eb-b860-f9eaec6c9f5e1500000000025" value="" style="rounded=0;whiteSpace=wrap;html=1;fillColor=#000000;" vertex="1" parent="3a49312e-02e9-11eb-b860-f9eaec6c9f5e">
      <mxGeometry  y="25" width="2.916538461538462" height="0.7844016136261763" as="geometry" />
    </mxCell>


    
    <mxCell id="3a49312e-02e9-11eb-b860-f9eaec6c9f5e34" value="" style="rounded=0;whiteSpace=wrap;html=1;fillColor=#000000;" vertex="1" parent="3a49312e-02e9-11eb-b860-f9eaec6c9f5e">
      <mxGeometry x="124.08346153846153" y="30" width="2.916538461538462" height="0.7844016136261763" as="geometry" />
    </mxCell>

    <mxCell id="3a49312e-02e9-11eb-b860-f9eaec6c9f5e1500000000030" value="" style="rounded=0;whiteSpace=wrap;html=1;fillColor=#000000;" vertex="1" parent="3a49312e-02e9-11eb-b860-f9eaec6c9f5e">
      <mxGeometry  y="30" width="2.916538461538462" height="0.7844016136261763" as="geometry" />
    </mxCell>


    
      
    
      
      <object label="" Type="PhysicalComponent" id="3a49312f-02e9-11eb-b860-f9eaec6c9f5e">
      <mxCell style="group;strokeWidth=1;fillColor=none;fontColor=none;" vertex="1" connectable="0" parent="3a49312d-02e9-11eb-b860-f9eaec6c9f5e">
        <mxGeometry x="136.0" width="124.0" height="35" as="geometry" />
      </mxCell>
    </object>
    <mxCell id="3a49312f-02e9-11eb-b860-f9eaec6c9f5e1" value="" style="rounded=0;whiteSpace=wrap;html=1;strokeWidth=1;" vertex="1" parent="3a49312f-02e9-11eb-b860-f9eaec6c9f5e">
      <mxGeometry x="2.9165384615384653" width="121.08346153846153" height="35" as="geometry" />
    </mxCell>
    <mxCell id="3a49312f-02e9-11eb-b860-f9eaec6c9f5e2" value="&lt;font style=&quot;font-size: 17px&quot;&gt;AWS-App&lt;/font&gt;" style="rounded=0;whiteSpace=wrap;html=1;strokeWidth=1;verticalAlign=middle;" vertex="1" parent="3a49312f-02e9-11eb-b860-f9eaec6c9f5e">
      <mxGeometry x="4.9581153846153825" y="2.2999999999999545" width="117.08346153846153" height="30.5"  as="geometry" />
    </mxCell>
    <mxCell id="3a49312f-02e9-11eb-b860-f9eaec6c9f5e3" value="" style="ellipse;whiteSpace=wrap;html=1;aspect=fixed;fillColor=#000000;" vertex="1" parent="3a49312f-02e9-11eb-b860-f9eaec6c9f5e">
      <mxGeometry x="7" y="4.559999999999945" width="2" height="2" as="geometry" />
    </mxCell>

    
    <mxCell id="3a49312f-02e9-11eb-b860-f9eaec6c9f5e9" value="" style="rounded=0;whiteSpace=wrap;html=1;fillColor=#000000;" vertex="1" parent="3a49312f-02e9-11eb-b860-f9eaec6c9f5e">
      <mxGeometry x="124.08346153846153" y="5" width="2.916538461538462" height="0.7844016136261763" as="geometry" />
    </mxCell>

    <mxCell id="3a49312f-02e9-11eb-b860-f9eaec6c9f5e1500000000005" value="" style="rounded=0;whiteSpace=wrap;html=1;fillColor=#000000;" vertex="1" parent="3a49312f-02e9-11eb-b860-f9eaec6c9f5e">
      <mxGeometry  y="5" width="2.916538461538462" height="0.7844016136261763" as="geometry" />
    </mxCell>


    
    <mxCell id="3a49312f-02e9-11eb-b860-f9eaec6c9f5e14" value="" style="rounded=0;whiteSpace=wrap;html=1;fillColor=#000000;" vertex="1" parent="3a49312f-02e9-11eb-b860-f9eaec6c9f5e">
      <mxGeometry x="124.08346153846153" y="10" width="2.916538461538462" height="0.7844016136261763" as="geometry" />
    </mxCell>

    <mxCell id="3a49312f-02e9-11eb-b860-f9eaec6c9f5e1500000000010" value="" style="rounded=0;whiteSpace=wrap;html=1;fillColor=#000000;" vertex="1" parent="3a49312f-02e9-11eb-b860-f9eaec6c9f5e">
      <mxGeometry  y="10" width="2.916538461538462" height="0.7844016136261763" as="geometry" />
    </mxCell>


    
    <mxCell id="3a49312f-02e9-11eb-b860-f9eaec6c9f5e19" value="" style="rounded=0;whiteSpace=wrap;html=1;fillColor=#000000;" vertex="1" parent="3a49312f-02e9-11eb-b860-f9eaec6c9f5e">
      <mxGeometry x="124.08346153846153" y="15" width="2.916538461538462" height="0.7844016136261763" as="geometry" />
    </mxCell>

    <mxCell id="3a49312f-02e9-11eb-b860-f9eaec6c9f5e1500000000015" value="" style="rounded=0;whiteSpace=wrap;html=1;fillColor=#000000;" vertex="1" parent="3a49312f-02e9-11eb-b860-f9eaec6c9f5e">
      <mxGeometry  y="15" width="2.916538461538462" height="0.7844016136261763" as="geometry" />
    </mxCell>


    
    <mxCell id="3a49312f-02e9-11eb-b860-f9eaec6c9f5e24" value="" style="rounded=0;whiteSpace=wrap;html=1;fillColor=#000000;" vertex="1" parent="3a49312f-02e9-11eb-b860-f9eaec6c9f5e">
      <mxGeometry x="124.08346153846153" y="20" width="2.916538461538462" height="0.7844016136261763" as="geometry" />
    </mxCell>

    <mxCell id="3a49312f-02e9-11eb-b860-f9eaec6c9f5e1500000000020" value="" style="rounded=0;whiteSpace=wrap;html=1;fillColor=#000000;" vertex="1" parent="3a49312f-02e9-11eb-b860-f9eaec6c9f5e">
      <mxGeometry  y="20" width="2.916538461538462" height="0.7844016136261763" as="geometry" />
    </mxCell>


    
    <mxCell id="3a49312f-02e9-11eb-b860-f9eaec6c9f5e29" value="" style="rounded=0;whiteSpace=wrap;html=1;fillColor=#000000;" vertex="1" parent="3a49312f-02e9-11eb-b860-f9eaec6c9f5e">
      <mxGeometry x="124.08346153846153" y="25" width="2.916538461538462" height="0.7844016136261763" as="geometry" />
    </mxCell>

    <mxCell id="3a49312f-02e9-11eb-b860-f9eaec6c9f5e1500000000025" value="" style="rounded=0;whiteSpace=wrap;html=1;fillColor=#000000;" vertex="1" parent="3a49312f-02e9-11eb-b860-f9eaec6c9f5e">
      <mxGeometry  y="25" width="2.916538461538462" height="0.7844016136261763" as="geometry" />
    </mxCell>


    
    <mxCell id="3a49312f-02e9-11eb-b860-f9eaec6c9f5e34" value="" style="rounded=0;whiteSpace=wrap;html=1;fillColor=#000000;" vertex="1" parent="3a49312f-02e9-11eb-b860-f9eaec6c9f5e">
      <mxGeometry x="124.08346153846153" y="30" width="2.916538461538462" height="0.7844016136261763" as="geometry" />
    </mxCell>

    <mxCell id="3a49312f-02e9-11eb-b860-f9eaec6c9f5e1500000000030" value="" style="rounded=0;whiteSpace=wrap;html=1;fillColor=#000000;" vertex="1" parent="3a49312f-02e9-11eb-b860-f9eaec6c9f5e">
      <mxGeometry  y="30" width="2.916538461538462" height="0.7844016136261763" as="geometry" />
    </mxCell>


    
      
    
    <object label="" Type="Hub" id="3a49312d-02e9-11eb-b860-f9eaec6c9f5e">
      <mxCell style="group" vertex="1" connectable="0" parent="3a49312b-02e9-11eb-b860-f9eaec6c9f5e">
        <mxGeometry x="8.4473684210526017" y="20" width="250" height="25" as="geometry" />
      </mxCell>
    </object>
    
    
    <mxCell id="3a493131-02e9-11eb-b860-f9eaec6c9f5e" value="" style="group;labelBackgroundColor=#FF99CC;fillColor=#B281FF;strokeColor=#none;" parent="3a493113-02e9-11eb-b860-f9eaec6c9f5e" vertex="1" connectable="0">
      <mxGeometry x="10" y="377" width="280" height="105" as="geometry" />
    </mxCell>
    <object label="" Type="PhysicallayerElement" id="3a493130-02e9-11eb-b860-f9eaec6c9f5e" Node="3a493113-02e9-11eb-b860-f9eaec6c9f5e" Hub="False">
      <mxCell style="rounded=0;whiteSpace=wrap;html=1;labelPosition=center;verticalLabelPosition=middle;align=center;verticalAlign=middle;fillColor=#B281FF;strokeColor=#none;" parent="3a493131-02e9-11eb-b860-f9eaec6c9f5e" vertex="1">
        <mxGeometry width="280" height="105" as="geometry" />
      </mxCell>
    </object>
      
      <mxCell id="3a493131-02e9-11eb-b860-f9eaec6c9f5e1" value="" style="strokeWidth=2;endArrow=none;html=1;entryX=1;entryY=0;entryDx=0;entryDy=0;exitX=0;exitY=1;exitDx=0;exitDy=0;strokeColor=#FFFFFF;dashed=1;" parent="3a493131-02e9-11eb-b860-f9eaec6c9f5e" source="3a493130-02e9-11eb-b860-f9eaec6c9f5e" target="3a493130-02e9-11eb-b860-f9eaec6c9f5e" edge="1">
        <mxGeometry width="50" height="50" relative="1" as="geometry">
          <mxPoint x="210" y="520" as="sourcePoint" />
          <mxPoint x="260" y="470" as="targetPoint" />
        </mxGeometry>
      </mxCell>
      <mxCell id="3a493131-02e9-11eb-b860-f9eaec6c9f5e2" value="" style="strokeWidth=2;endArrow=none;html=1;entryX=1;entryY=0.25;entryDx=0;entryDy=0;exitX=0.25;exitY=1;exitDx=0;exitDy=0;strokeColor=#FFFFFF;dashed=1;" parent="3a493131-02e9-11eb-b860-f9eaec6c9f5e" source="3a493130-02e9-11eb-b860-f9eaec6c9f5e" target="3a493130-02e9-11eb-b860-f9eaec6c9f5e" edge="1">
        <mxGeometry width="50" height="50" relative="1" as="geometry">
          <mxPoint x="160" y="270" as="sourcePoint" />
          <mxPoint x="430" y="210" as="targetPoint" />
        </mxGeometry>
      </mxCell>
      <mxCell id="3a493131-02e9-11eb-b860-f9eaec6c9f5e3" value="" style="strokeWidth=2;endArrow=none;html=1;entryX=1;entryY=0.5;entryDx=0;entryDy=0;exitX=0.5;exitY=1;exitDx=0;exitDy=0;strokeColor=#FFFFFF;dashed=1;" parent="3a493131-02e9-11eb-b860-f9eaec6c9f5e" source="3a493130-02e9-11eb-b860-f9eaec6c9f5e" target="3a493130-02e9-11eb-b860-f9eaec6c9f5e" edge="1">
        <mxGeometry width="50" height="50" relative="1" as="geometry">
          <mxPoint x="227.5" y="270" as="sourcePoint" />
          <mxPoint x="430" y="225" as="targetPoint" />
        </mxGeometry>
      </mxCell>
      <mxCell id="3a493131-02e9-11eb-b860-f9eaec6c9f5e4" value="" style="strokeWidth=2;endArrow=none;html=1;entryX=0.75;entryY=0;entryDx=0;entryDy=0;exitX=0;exitY=0.75;exitDx=0;exitDy=0;strokeColor=#FFFFFF;dashed=1;" parent="3a493131-02e9-11eb-b860-f9eaec6c9f5e" source="3a493130-02e9-11eb-b860-f9eaec6c9f5e" target="3a493130-02e9-11eb-b860-f9eaec6c9f5e" edge="1">
        <mxGeometry width="50" height="50" relative="1" as="geometry">
          <mxPoint x="295" y="270" as="sourcePoint" />
          <mxPoint x="430" y="240" as="targetPoint" />
        </mxGeometry>
      </mxCell>
      <mxCell id="3a493131-02e9-11eb-b860-f9eaec6c9f5e5" value="" style="strokeWidth=2;endArrow=none;html=1;entryX=0.5;entryY=0;entryDx=0;entryDy=0;exitX=0;exitY=0.5;exitDx=0;exitDy=0;strokeColor=#FFFFFF;dashed=1;" parent="3a493131-02e9-11eb-b860-f9eaec6c9f5e" source="3a493130-02e9-11eb-b860-f9eaec6c9f5e" target="3a493130-02e9-11eb-b860-f9eaec6c9f5e" edge="1">
        <mxGeometry width="50" height="50" relative="1" as="geometry">
          <mxPoint x="305" y="280" as="sourcePoint" />
          <mxPoint x="440" y="250" as="targetPoint" />
        </mxGeometry>
      </mxCell>
      <mxCell id="3a493131-02e9-11eb-b860-f9eaec6c9f5e6" value="" style="strokeWidth=2;endArrow=none;html=1;entryX=0.25;entryY=0;entryDx=0;entryDy=0;exitX=0;exitY=0.25;exitDx=0;exitDy=0;strokeColor=#FFFFFF;dashed=1;" parent="3a493131-02e9-11eb-b860-f9eaec6c9f5e" source="3a493130-02e9-11eb-b860-f9eaec6c9f5e" target="3a493130-02e9-11eb-b860-f9eaec6c9f5e" edge="1">
        <mxGeometry width="50" height="50" relative="1" as="geometry">
          <mxPoint x="160" y="240" as="sourcePoint" />
          <mxPoint x="295" y="210" as="targetPoint" />
        </mxGeometry>
      </mxCell>
      <mxCell id="3a493131-02e9-11eb-b860-f9eaec6c9f5e7" value="" style="strokeWidth=2;endArrow=none;html=1;entryX=1;entryY=0.75;entryDx=0;entryDy=0;exitX=0.75;exitY=1;exitDx=0;exitDy=0;strokeColor=#FFFFFF;dashed=1;" parent="3a493131-02e9-11eb-b860-f9eaec6c9f5e" source="3a493130-02e9-11eb-b860-f9eaec6c9f5e" target="3a493130-02e9-11eb-b860-f9eaec6c9f5e" edge="1">
        <mxGeometry width="50" height="50" relative="1" as="geometry">
          <mxPoint x="407" y="305" as="sourcePoint" />
          <mxPoint x="474.5" y="290" as="targetPoint" />
        </mxGeometry>
      </mxCell>
      
    <mxCell id="3a493132-02e9-11eb-b860-f9eaec6c9f5e" value="Physical" style="text;html=1;strokeColor=none;fillColor=none;align=center;verticalAlign=middle;whiteSpace=wrap;rounded=0;fontStyle=2;fontColor=#none;fontSize=11;" parent="3a493131-02e9-11eb-b860-f9eaec6c9f5e" vertex="1">
      <mxGeometry x="7" y="-2" width="40" height="20" as="geometry" />
    </mxCell>
    
    
    
    
    <mxCell id="3a493135-02e9-11eb-b860-f9eaec6c9f5e" value="" style="group;labelBackgroundColor=#FF99CC;fillColor=#F8CECC;strokeColor=#none;" parent="3a493113-02e9-11eb-b860-f9eaec6c9f5e" vertex="1" connectable="0">
      <mxGeometry x="10" y="492" width="280" height="60" as="geometry" />
    </mxCell>
    <object label="" Type="EnergylayerElement" id="3a493134-02e9-11eb-b860-f9eaec6c9f5e" Node="3a493113-02e9-11eb-b860-f9eaec6c9f5e" Hub="False">
      <mxCell style="rounded=0;whiteSpace=wrap;html=1;labelPosition=center;verticalLabelPosition=middle;align=center;verticalAlign=middle;fillColor=#F8CECC;strokeColor=#none;" parent="3a493135-02e9-11eb-b860-f9eaec6c9f5e" vertex="1">
        <mxGeometry width="280" height="60" as="geometry" />
      </mxCell>
    </object>
      
      <mxCell id="3a493135-02e9-11eb-b860-f9eaec6c9f5e1" value="" style="strokeWidth=2;endArrow=none;html=1;entryX=1;entryY=0;entryDx=0;entryDy=0;exitX=0;exitY=1;exitDx=0;exitDy=0;strokeColor=#FFFFFF;dashed=1;" parent="3a493135-02e9-11eb-b860-f9eaec6c9f5e" source="3a493134-02e9-11eb-b860-f9eaec6c9f5e" target="3a493134-02e9-11eb-b860-f9eaec6c9f5e" edge="1">
        <mxGeometry width="50" height="50" relative="1" as="geometry">
          <mxPoint x="210" y="520" as="sourcePoint" />
          <mxPoint x="260" y="470" as="targetPoint" />
        </mxGeometry>
      </mxCell>
      <mxCell id="3a493135-02e9-11eb-b860-f9eaec6c9f5e2" value="" style="strokeWidth=2;endArrow=none;html=1;entryX=1;entryY=0.25;entryDx=0;entryDy=0;exitX=0.25;exitY=1;exitDx=0;exitDy=0;strokeColor=#FFFFFF;dashed=1;" parent="3a493135-02e9-11eb-b860-f9eaec6c9f5e" source="3a493134-02e9-11eb-b860-f9eaec6c9f5e" target="3a493134-02e9-11eb-b860-f9eaec6c9f5e" edge="1">
        <mxGeometry width="50" height="50" relative="1" as="geometry">
          <mxPoint x="160" y="270" as="sourcePoint" />
          <mxPoint x="430" y="210" as="targetPoint" />
        </mxGeometry>
      </mxCell>
      <mxCell id="3a493135-02e9-11eb-b860-f9eaec6c9f5e3" value="" style="strokeWidth=2;endArrow=none;html=1;entryX=1;entryY=0.5;entryDx=0;entryDy=0;exitX=0.5;exitY=1;exitDx=0;exitDy=0;strokeColor=#FFFFFF;dashed=1;" parent="3a493135-02e9-11eb-b860-f9eaec6c9f5e" source="3a493134-02e9-11eb-b860-f9eaec6c9f5e" target="3a493134-02e9-11eb-b860-f9eaec6c9f5e" edge="1">
        <mxGeometry width="50" height="50" relative="1" as="geometry">
          <mxPoint x="227.5" y="270" as="sourcePoint" />
          <mxPoint x="430" y="225" as="targetPoint" />
        </mxGeometry>
      </mxCell>
      <mxCell id="3a493135-02e9-11eb-b860-f9eaec6c9f5e4" value="" style="strokeWidth=2;endArrow=none;html=1;entryX=0.75;entryY=0;entryDx=0;entryDy=0;exitX=0;exitY=0.75;exitDx=0;exitDy=0;strokeColor=#FFFFFF;dashed=1;" parent="3a493135-02e9-11eb-b860-f9eaec6c9f5e" source="3a493134-02e9-11eb-b860-f9eaec6c9f5e" target="3a493134-02e9-11eb-b860-f9eaec6c9f5e" edge="1">
        <mxGeometry width="50" height="50" relative="1" as="geometry">
          <mxPoint x="295" y="270" as="sourcePoint" />
          <mxPoint x="430" y="240" as="targetPoint" />
        </mxGeometry>
      </mxCell>
      <mxCell id="3a493135-02e9-11eb-b860-f9eaec6c9f5e5" value="" style="strokeWidth=2;endArrow=none;html=1;entryX=0.5;entryY=0;entryDx=0;entryDy=0;exitX=0;exitY=0.5;exitDx=0;exitDy=0;strokeColor=#FFFFFF;dashed=1;" parent="3a493135-02e9-11eb-b860-f9eaec6c9f5e" source="3a493134-02e9-11eb-b860-f9eaec6c9f5e" target="3a493134-02e9-11eb-b860-f9eaec6c9f5e" edge="1">
        <mxGeometry width="50" height="50" relative="1" as="geometry">
          <mxPoint x="305" y="280" as="sourcePoint" />
          <mxPoint x="440" y="250" as="targetPoint" />
        </mxGeometry>
      </mxCell>
      <mxCell id="3a493135-02e9-11eb-b860-f9eaec6c9f5e6" value="" style="strokeWidth=2;endArrow=none;html=1;entryX=0.25;entryY=0;entryDx=0;entryDy=0;exitX=0;exitY=0.25;exitDx=0;exitDy=0;strokeColor=#FFFFFF;dashed=1;" parent="3a493135-02e9-11eb-b860-f9eaec6c9f5e" source="3a493134-02e9-11eb-b860-f9eaec6c9f5e" target="3a493134-02e9-11eb-b860-f9eaec6c9f5e" edge="1">
        <mxGeometry width="50" height="50" relative="1" as="geometry">
          <mxPoint x="160" y="240" as="sourcePoint" />
          <mxPoint x="295" y="210" as="targetPoint" />
        </mxGeometry>
      </mxCell>
      <mxCell id="3a493135-02e9-11eb-b860-f9eaec6c9f5e7" value="" style="strokeWidth=2;endArrow=none;html=1;entryX=1;entryY=0.75;entryDx=0;entryDy=0;exitX=0.75;exitY=1;exitDx=0;exitDy=0;strokeColor=#FFFFFF;dashed=1;" parent="3a493135-02e9-11eb-b860-f9eaec6c9f5e" source="3a493134-02e9-11eb-b860-f9eaec6c9f5e" target="3a493134-02e9-11eb-b860-f9eaec6c9f5e" edge="1">
        <mxGeometry width="50" height="50" relative="1" as="geometry">
          <mxPoint x="407" y="305" as="sourcePoint" />
          <mxPoint x="474.5" y="290" as="targetPoint" />
        </mxGeometry>
      </mxCell>
      
    <mxCell id="3a493136-02e9-11eb-b860-f9eaec6c9f5e" value="Energy" style="text;html=1;strokeColor=none;fillColor=none;align=center;verticalAlign=middle;whiteSpace=wrap;rounded=0;fontStyle=2;fontColor=#none;fontSize=11;" parent="3a493135-02e9-11eb-b860-f9eaec6c9f5e" vertex="1">
      <mxGeometry x="4" y="-2" width="40" height="20" as="geometry" />
    </mxCell>
    
    
    
    
    
    
      <mxCell id="3a493138-02e9-11eb-b860-f9eaec6c9f5e" value="" style="group" vertex="1" connectable="0" parent="1">
        <mxGeometry x="1420" y="-171.0" width="300" height="582" as="geometry" />
      </mxCell>

      <object label="" id="3a49313a-02e9-11eb-b860-f9eaec6c9f5e" Type="label">
        <mxCell style="group;fontFamily=Comic Sans MS;fontColor=#FFF11F;" parent="3a493138-02e9-11eb-b860-f9eaec6c9f5e" vertex="1" connectable="0">
          <mxGeometry width="300" height="60" as="geometry" />
        </mxCell>
      </object>
      <object label="Application"   Type="Tier" id="3a49313b-02e9-11eb-b860-f9eaec6c9f5e">
        <mxCell style="rounded=1;whiteSpace=wrap;html=1;arcSize=0;fillColor=#6E7A8A;strokeColor=#6C8EBF;fontFamily=Helvetica;fontSize=22;fontColor=#FFFFFF;" parent="3a49313a-02e9-11eb-b860-f9eaec6c9f5e" vertex="1">
          <mxGeometry width="300" height="60" as="geometry" />
        </mxCell>
      </object>
      
      <object label="Lx-Dashboard" Type="ApplicationNode" Tier="3a49313b-02e9-11eb-b860-f9eaec6c9f5e" id="3a49313c-02e9-11eb-b860-f9eaec6c9f5e">
        <mxCell  style="group;align=center;labelBackgroundColor=none;fillColor=none;fontSize=16;fontColor=#000000;rounded=1;fontStyle=1;" vertex="1" connectable="0" parent="3a493138-02e9-11eb-b860-f9eaec6c9f5e">
          <mxGeometry x="0" y="80" width="300" height="562" as="geometry" />
        </mxCell>
      </object>
    <mxCell id="3a49313d-02e9-11eb-b860-f9eaec6c9f5e" value="&lt;font style=&quot;font-size: 16px&quot;&gt;Lx-Dashboard&lt;/font&gt;" style="rounded=0;whiteSpace=wrap;html=1;align=center;horizontal=1;verticalAlign=top;fontStyle=1;dashed=1;;strokeWidth=2;" parent="3a49313c-02e9-11eb-b860-f9eaec6c9f5e" vertex="1">
      <mxGeometry width="300" height="562" as="geometry" />
    </mxCell>

    
    <mxCell id="3a493140-02e9-11eb-b860-f9eaec6c9f5e" value="" style="group;labelBackgroundColor=#FF99CC;fillColor=#6ED7D3;strokeColor=#none;" parent="3a49313c-02e9-11eb-b860-f9eaec6c9f5e" vertex="1" connectable="0">
      <mxGeometry x="10" y="27" width="280" height="60" as="geometry" />
    </mxCell>
    <object label="" Type="ServicelayerElement" id="3a49313f-02e9-11eb-b860-f9eaec6c9f5e" Node="3a49313c-02e9-11eb-b860-f9eaec6c9f5e" Hub="False">
      <mxCell style="rounded=0;whiteSpace=wrap;html=1;labelPosition=center;verticalLabelPosition=middle;align=center;verticalAlign=middle;fillColor=#6ED7D3;strokeColor=#none;" parent="3a493140-02e9-11eb-b860-f9eaec6c9f5e" vertex="1">
        <mxGeometry width="280" height="60" as="geometry" />
      </mxCell>
    </object>
      
    <mxCell id="3a493141-02e9-11eb-b860-f9eaec6c9f5e" value="Service" style="text;html=1;strokeColor=none;fillColor=none;align=center;verticalAlign=middle;whiteSpace=wrap;rounded=0;fontStyle=2;fontColor=#none;fontSize=11;" parent="3a493140-02e9-11eb-b860-f9eaec6c9f5e" vertex="1">
      <mxGeometry x="5" y="-2" width="40" height="20" as="geometry" />
    </mxCell>
    
    
      


      <object label="LX-APPService" Type="ServiceComponent" id="3a493143-02e9-11eb-b860-f9eaec6c9f5e">
      <mxCell style="group" vertex="1" connectable="0" parent="3a493140-02e9-11eb-b860-f9eaec6c9f5e">
        <mxGeometry x="10" y="17" width="240" height="35" as="geometry" />
      </mxCell>
    </object>
    <mxCell id="3a493143-02e9-11eb-b860-f9eaec6c9f5e1" value="" style="rounded=1;whiteSpace=wrap;html=1;strokeWidth=1;fillColor=#FFFFFF;fontColor=none;align=left;" vertex="1" parent="3a493143-02e9-11eb-b860-f9eaec6c9f5e">
      <mxGeometry width="47" height="35" as="geometry" />
    </mxCell>
    <mxCell id="3a493143-02e9-11eb-b860-f9eaec6c9f5e2" value="&lt;font style=&quot;font-size: 17px&quot;&gt;LX-APPService&lt;/font&gt;" style="rounded=0;whiteSpace=wrap;html=1;strokeWidth=1;fontColor=none;align=center;fillColor=#FFFFFF;" vertex="1" parent="3a493143-02e9-11eb-b860-f9eaec6c9f5e">
      <mxGeometry x="22" width="240" height="35  " as="geometry" />
    </mxCell>
    <mxCell id="3a493143-02e9-11eb-b860-f9eaec6c9f5e3" value="" style="html=1;verticalLabelPosition=bottom;align=center;labelBackgroundColor=#ffffff;verticalAlign=top;strokeWidth=1;shadow=0;dashed=0;shape=mxgraph.ios7.icons.cloud;rounded=0;fillColor=#FFFFFF;fontColor=none;aspect=fixed;" vertex="1" parent="3a493143-02e9-11eb-b860-f9eaec6c9f5e">
      <mxGeometry x="2" y="13.099999999999994" width="18" height="10.8" as="geometry" />
    </mxCell>


      
    
    
    
    <mxCell id="3a493145-02e9-11eb-b860-f9eaec6c9f5e" value="" style="group;labelBackgroundColor=#FF99CC;fillColor=#3CAEA3;strokeColor=#none;" parent="3a49313c-02e9-11eb-b860-f9eaec6c9f5e" vertex="1" connectable="0">
      <mxGeometry x="10" y="97" width="280" height="60" as="geometry" />
    </mxCell>
    <object label="" Type="DatalayerElement" id="3a493144-02e9-11eb-b860-f9eaec6c9f5e" Node="3a49313c-02e9-11eb-b860-f9eaec6c9f5e" Hub="False">
      <mxCell style="rounded=0;whiteSpace=wrap;html=1;labelPosition=center;verticalLabelPosition=middle;align=center;verticalAlign=middle;fillColor=#3CAEA3;strokeColor=#none;" parent="3a493145-02e9-11eb-b860-f9eaec6c9f5e" vertex="1">
        <mxGeometry width="280" height="60" as="geometry" />
      </mxCell>
    </object>
      
    <mxCell id="3a493146-02e9-11eb-b860-f9eaec6c9f5e" value="Data" style="text;html=1;strokeColor=none;fillColor=none;align=center;verticalAlign=middle;whiteSpace=wrap;rounded=0;fontStyle=2;fontColor=#none;fontSize=11;" parent="3a493145-02e9-11eb-b860-f9eaec6c9f5e" vertex="1">
      <mxGeometry x="-2" y="-2" width="40" height="20" as="geometry" />
    </mxCell>
    
    
      


      <object label="LX-AppData" Type="SoftwareComponent" id="3a493148-02e9-11eb-b860-f9eaec6c9f5e">
      <mxCell style="group" vertex="1" connectable="0" parent="3a493145-02e9-11eb-b860-f9eaec6c9f5e">
        <mxGeometry x="10" y="17" width="240" height="35" as="geometry" />
      </mxCell>
    </object>
    <mxCell id="3a493148-02e9-11eb-b860-f9eaec6c9f5e1" value="&lt;span&gt;&amp;lt;/&amp;gt;&lt;/span&gt;" style="rounded=1;whiteSpace=wrap;html=1;strokeColor=#000000;strokeWidth=1;fontColor=none;align=left;" vertex="1" parent="3a493148-02e9-11eb-b860-f9eaec6c9f5e">
      <mxGeometry width="29" height="35" as="geometry" />
    </mxCell>
    <mxCell id="3a493148-02e9-11eb-b860-f9eaec6c9f5e2" value="&lt;font style=&quot;font-size: 17px&quot;&gt;LX-AppData&lt;/font&gt;" style="rounded=0;whiteSpace=wrap;html=1;strokeWidth=1;fontColor=none;align=center;fillColor=#FFFFFF;" vertex="1" parent="3a493148-02e9-11eb-b860-f9eaec6c9f5e">
      <mxGeometry x="21" width="240" height="35" as="geometry" />
    </mxCell>
    
    
    
    
    <mxCell id="3a49314a-02e9-11eb-b860-f9eaec6c9f5e" value="" style="group;labelBackgroundColor=#FF99CC;fillColor=#2A9187;strokeColor=#none;" parent="3a49313c-02e9-11eb-b860-f9eaec6c9f5e" vertex="1" connectable="0">
      <mxGeometry x="10" y="167" width="280" height="60" as="geometry" />
    </mxCell>
    <object label="" Type="MessaginglayerElement" id="3a493149-02e9-11eb-b860-f9eaec6c9f5e" Node="3a49313c-02e9-11eb-b860-f9eaec6c9f5e" Hub="False">
      <mxCell style="rounded=0;whiteSpace=wrap;html=1;labelPosition=center;verticalLabelPosition=middle;align=center;verticalAlign=middle;fillColor=#2A9187;strokeColor=#none;" parent="3a49314a-02e9-11eb-b860-f9eaec6c9f5e" vertex="1">
        <mxGeometry width="280" height="60" as="geometry" />
      </mxCell>
    </object>
      
    <mxCell id="3a49314b-02e9-11eb-b860-f9eaec6c9f5e" value="Messaging" style="text;html=1;strokeColor=none;fillColor=none;align=center;verticalAlign=middle;whiteSpace=wrap;rounded=0;fontStyle=2;fontColor=#none;fontSize=11;" parent="3a49314a-02e9-11eb-b860-f9eaec6c9f5e" vertex="1">
      <mxGeometry x="13" y="-2" width="40" height="20" as="geometry" />
    </mxCell>
    
    
    
    
    <mxCell id="3a49314e-02e9-11eb-b860-f9eaec6c9f5e" value="" style="group;labelBackgroundColor=#FF99CC;fillColor=#5937AE;strokeColor=#none;" parent="3a49313c-02e9-11eb-b860-f9eaec6c9f5e" vertex="1" connectable="0">
      <mxGeometry x="10" y="237" width="280" height="60" as="geometry" />
    </mxCell>
    <object label="" Type="ConnectivitylayerElement" id="3a49314d-02e9-11eb-b860-f9eaec6c9f5e" Node="3a49313c-02e9-11eb-b860-f9eaec6c9f5e" Hub="False">
      <mxCell style="rounded=0;whiteSpace=wrap;html=1;labelPosition=center;verticalLabelPosition=middle;align=center;verticalAlign=middle;fillColor=#5937AE;strokeColor=#none;" parent="3a49314e-02e9-11eb-b860-f9eaec6c9f5e" vertex="1">
        <mxGeometry width="280" height="60" as="geometry" />
      </mxCell>
    </object>
      
    <mxCell id="3a49314f-02e9-11eb-b860-f9eaec6c9f5e" value="Connectivity" style="text;html=1;strokeColor=none;fillColor=none;align=center;verticalAlign=middle;whiteSpace=wrap;rounded=0;fontStyle=2;fontColor=#none;fontSize=11;" parent="3a49314e-02e9-11eb-b860-f9eaec6c9f5e" vertex="1">
      <mxGeometry x="16" y="-2" width="40" height="20" as="geometry" />
    </mxCell>
    
    
    
    
    <mxCell id="3a493152-02e9-11eb-b860-f9eaec6c9f5e" value="" style="group;labelBackgroundColor=#FF99CC;fillColor=#6D41DA;strokeColor=#none;" parent="3a49313c-02e9-11eb-b860-f9eaec6c9f5e" vertex="1" connectable="0">
      <mxGeometry x="10" y="307" width="280" height="60" as="geometry" />
    </mxCell>
    <object label="" Type="NetworklayerElement" id="3a493151-02e9-11eb-b860-f9eaec6c9f5e" Node="3a49313c-02e9-11eb-b860-f9eaec6c9f5e" Hub="False">
      <mxCell style="rounded=0;whiteSpace=wrap;html=1;labelPosition=center;verticalLabelPosition=middle;align=center;verticalAlign=middle;fillColor=#6D41DA;strokeColor=#none;" parent="3a493152-02e9-11eb-b860-f9eaec6c9f5e" vertex="1">
        <mxGeometry width="280" height="60" as="geometry" />
      </mxCell>
    </object>
      
    <mxCell id="3a493153-02e9-11eb-b860-f9eaec6c9f5e" value="Network" style="text;html=1;strokeColor=none;fillColor=none;align=center;verticalAlign=middle;whiteSpace=wrap;rounded=0;fontStyle=2;fontColor=#none;fontSize=11;" parent="3a493152-02e9-11eb-b860-f9eaec6c9f5e" vertex="1">
      <mxGeometry x="7" y="-2" width="40" height="20" as="geometry" />
    </mxCell>
    
    
      
      <object label="LX-Connection" Type="PhysicalComponent" id="3a493155-02e9-11eb-b860-f9eaec6c9f5e">
      <mxCell style="group;strokeWidth=1;fillColor=none;fontColor=none;" vertex="1" connectable="0" parent="3a493152-02e9-11eb-b860-f9eaec6c9f5e">
        <mxGeometry x="10" y="17" width="260" height="35" as="geometry" />
      </mxCell>
    </object>
    <mxCell id="3a493155-02e9-11eb-b860-f9eaec6c9f5e1" value="" style="rounded=0;whiteSpace=wrap;html=1;strokeWidth=1;" vertex="1" parent="3a493155-02e9-11eb-b860-f9eaec6c9f5e">
      <mxGeometry x="2.9165384615384653" width="257.08346153846156" height="35" as="geometry" />
    </mxCell>
    <mxCell id="3a493155-02e9-11eb-b860-f9eaec6c9f5e2" value="&lt;font style=&quot;font-size: 17px&quot;&gt;LX-Connection&lt;/font&gt;" style="rounded=0;whiteSpace=wrap;html=1;strokeWidth=1;verticalAlign=middle;" vertex="1" parent="3a493155-02e9-11eb-b860-f9eaec6c9f5e">
      <mxGeometry x="4.9581153846153825" y="2.2999999999999545" width="253.08346153846153" height="30.5" as="geometry" />
    </mxCell>
    <mxCell id="3a493155-02e9-11eb-b860-f9eaec6c9f5e3" value="" style="ellipse;whiteSpace=wrap;html=1;aspect=fixed;fillColor=#000000;" vertex="1" parent="3a493155-02e9-11eb-b860-f9eaec6c9f5e">
      <mxGeometry x="7" y="4.559999999999945" width="2" height="2" as="geometry" />
    </mxCell>
    
    <mxCell id="3a493155-02e9-11eb-b860-f9eaec6c9f5e9" value="" style="rounded=0;whiteSpace=wrap;html=1;fillColor=#000000;" vertex="1" parent="3a493155-02e9-11eb-b860-f9eaec6c9f5e">
      <mxGeometry x="260.08346153846156" y="5" width="2.916538461538462" height="0.7844016136261763" as="geometry" />
    </mxCell>

    <mxCell id="3a493155-02e9-11eb-b860-f9eaec6c9f5e1500000000005" value="" style="rounded=0;whiteSpace=wrap;html=1;fillColor=#000000;" vertex="1" parent="3a493155-02e9-11eb-b860-f9eaec6c9f5e">
      <mxGeometry y="5" width="2.916538461538462" height="0.7844016136261763" as="geometry" />
    </mxCell>
    
    <mxCell id="3a493155-02e9-11eb-b860-f9eaec6c9f5e14" value="" style="rounded=0;whiteSpace=wrap;html=1;fillColor=#000000;" vertex="1" parent="3a493155-02e9-11eb-b860-f9eaec6c9f5e">
      <mxGeometry x="260.08346153846156" y="10" width="2.916538461538462" height="0.7844016136261763" as="geometry" />
    </mxCell>

    <mxCell id="3a493155-02e9-11eb-b860-f9eaec6c9f5e1500000000010" value="" style="rounded=0;whiteSpace=wrap;html=1;fillColor=#000000;" vertex="1" parent="3a493155-02e9-11eb-b860-f9eaec6c9f5e">
      <mxGeometry y="10" width="2.916538461538462" height="0.7844016136261763" as="geometry" />
    </mxCell>
    
    <mxCell id="3a493155-02e9-11eb-b860-f9eaec6c9f5e19" value="" style="rounded=0;whiteSpace=wrap;html=1;fillColor=#000000;" vertex="1" parent="3a493155-02e9-11eb-b860-f9eaec6c9f5e">
      <mxGeometry x="260.08346153846156" y="15" width="2.916538461538462" height="0.7844016136261763" as="geometry" />
    </mxCell>

    <mxCell id="3a493155-02e9-11eb-b860-f9eaec6c9f5e1500000000015" value="" style="rounded=0;whiteSpace=wrap;html=1;fillColor=#000000;" vertex="1" parent="3a493155-02e9-11eb-b860-f9eaec6c9f5e">
      <mxGeometry y="15" width="2.916538461538462" height="0.7844016136261763" as="geometry" />
    </mxCell>
    
    <mxCell id="3a493155-02e9-11eb-b860-f9eaec6c9f5e24" value="" style="rounded=0;whiteSpace=wrap;html=1;fillColor=#000000;" vertex="1" parent="3a493155-02e9-11eb-b860-f9eaec6c9f5e">
      <mxGeometry x="260.08346153846156" y="20" width="2.916538461538462" height="0.7844016136261763" as="geometry" />
    </mxCell>

    <mxCell id="3a493155-02e9-11eb-b860-f9eaec6c9f5e1500000000020" value="" style="rounded=0;whiteSpace=wrap;html=1;fillColor=#000000;" vertex="1" parent="3a493155-02e9-11eb-b860-f9eaec6c9f5e">
      <mxGeometry y="20" width="2.916538461538462" height="0.7844016136261763" as="geometry" />
    </mxCell>
    
    <mxCell id="3a493155-02e9-11eb-b860-f9eaec6c9f5e29" value="" style="rounded=0;whiteSpace=wrap;html=1;fillColor=#000000;" vertex="1" parent="3a493155-02e9-11eb-b860-f9eaec6c9f5e">
      <mxGeometry x="260.08346153846156" y="25" width="2.916538461538462" height="0.7844016136261763" as="geometry" />
    </mxCell>

    <mxCell id="3a493155-02e9-11eb-b860-f9eaec6c9f5e1500000000025" value="" style="rounded=0;whiteSpace=wrap;html=1;fillColor=#000000;" vertex="1" parent="3a493155-02e9-11eb-b860-f9eaec6c9f5e">
      <mxGeometry y="25" width="2.916538461538462" height="0.7844016136261763" as="geometry" />
    </mxCell>
    
    <mxCell id="3a493155-02e9-11eb-b860-f9eaec6c9f5e34" value="" style="rounded=0;whiteSpace=wrap;html=1;fillColor=#000000;" vertex="1" parent="3a493155-02e9-11eb-b860-f9eaec6c9f5e">
      <mxGeometry x="260.08346153846156" y="30" width="2.916538461538462" height="0.7844016136261763" as="geometry" />
    </mxCell>

    <mxCell id="3a493155-02e9-11eb-b860-f9eaec6c9f5e1500000000030" value="" style="rounded=0;whiteSpace=wrap;html=1;fillColor=#000000;" vertex="1" parent="3a493155-02e9-11eb-b860-f9eaec6c9f5e">
      <mxGeometry y="30" width="2.916538461538462" height="0.7844016136261763" as="geometry" />
    </mxCell>
    
      
    
    
    
    <mxCell id="3a493157-02e9-11eb-b860-f9eaec6c9f5e" value="" style="group;labelBackgroundColor=#FF99CC;fillColor=#B281FF;strokeColor=#none;" parent="3a49313c-02e9-11eb-b860-f9eaec6c9f5e" vertex="1" connectable="0">
      <mxGeometry x="10" y="377" width="280" height="105" as="geometry" />
    </mxCell>
    <object label="" Type="PhysicallayerElement" id="3a493156-02e9-11eb-b860-f9eaec6c9f5e" Node="3a49313c-02e9-11eb-b860-f9eaec6c9f5e" Hub="False">
      <mxCell style="rounded=0;whiteSpace=wrap;html=1;labelPosition=center;verticalLabelPosition=middle;align=center;verticalAlign=middle;fillColor=#B281FF;strokeColor=#none;" parent="3a493157-02e9-11eb-b860-f9eaec6c9f5e" vertex="1">
        <mxGeometry width="280" height="105" as="geometry" />
      </mxCell>
    </object>
      
      <mxCell id="3a493157-02e9-11eb-b860-f9eaec6c9f5e1" value="" style="strokeWidth=2;endArrow=none;html=1;entryX=1;entryY=0;entryDx=0;entryDy=0;exitX=0;exitY=1;exitDx=0;exitDy=0;strokeColor=#FFFFFF;dashed=1;" parent="3a493157-02e9-11eb-b860-f9eaec6c9f5e" source="3a493156-02e9-11eb-b860-f9eaec6c9f5e" target="3a493156-02e9-11eb-b860-f9eaec6c9f5e" edge="1">
        <mxGeometry width="50" height="50" relative="1" as="geometry">
          <mxPoint x="210" y="520" as="sourcePoint" />
          <mxPoint x="260" y="470" as="targetPoint" />
        </mxGeometry>
      </mxCell>
      <mxCell id="3a493157-02e9-11eb-b860-f9eaec6c9f5e2" value="" style="strokeWidth=2;endArrow=none;html=1;entryX=1;entryY=0.25;entryDx=0;entryDy=0;exitX=0.25;exitY=1;exitDx=0;exitDy=0;strokeColor=#FFFFFF;dashed=1;" parent="3a493157-02e9-11eb-b860-f9eaec6c9f5e" source="3a493156-02e9-11eb-b860-f9eaec6c9f5e" target="3a493156-02e9-11eb-b860-f9eaec6c9f5e" edge="1">
        <mxGeometry width="50" height="50" relative="1" as="geometry">
          <mxPoint x="160" y="270" as="sourcePoint" />
          <mxPoint x="430" y="210" as="targetPoint" />
        </mxGeometry>
      </mxCell>
      <mxCell id="3a493157-02e9-11eb-b860-f9eaec6c9f5e3" value="" style="strokeWidth=2;endArrow=none;html=1;entryX=1;entryY=0.5;entryDx=0;entryDy=0;exitX=0.5;exitY=1;exitDx=0;exitDy=0;strokeColor=#FFFFFF;dashed=1;" parent="3a493157-02e9-11eb-b860-f9eaec6c9f5e" source="3a493156-02e9-11eb-b860-f9eaec6c9f5e" target="3a493156-02e9-11eb-b860-f9eaec6c9f5e" edge="1">
        <mxGeometry width="50" height="50" relative="1" as="geometry">
          <mxPoint x="227.5" y="270" as="sourcePoint" />
          <mxPoint x="430" y="225" as="targetPoint" />
        </mxGeometry>
      </mxCell>
      <mxCell id="3a493157-02e9-11eb-b860-f9eaec6c9f5e4" value="" style="strokeWidth=2;endArrow=none;html=1;entryX=0.75;entryY=0;entryDx=0;entryDy=0;exitX=0;exitY=0.75;exitDx=0;exitDy=0;strokeColor=#FFFFFF;dashed=1;" parent="3a493157-02e9-11eb-b860-f9eaec6c9f5e" source="3a493156-02e9-11eb-b860-f9eaec6c9f5e" target="3a493156-02e9-11eb-b860-f9eaec6c9f5e" edge="1">
        <mxGeometry width="50" height="50" relative="1" as="geometry">
          <mxPoint x="295" y="270" as="sourcePoint" />
          <mxPoint x="430" y="240" as="targetPoint" />
        </mxGeometry>
      </mxCell>
      <mxCell id="3a493157-02e9-11eb-b860-f9eaec6c9f5e5" value="" style="strokeWidth=2;endArrow=none;html=1;entryX=0.5;entryY=0;entryDx=0;entryDy=0;exitX=0;exitY=0.5;exitDx=0;exitDy=0;strokeColor=#FFFFFF;dashed=1;" parent="3a493157-02e9-11eb-b860-f9eaec6c9f5e" source="3a493156-02e9-11eb-b860-f9eaec6c9f5e" target="3a493156-02e9-11eb-b860-f9eaec6c9f5e" edge="1">
        <mxGeometry width="50" height="50" relative="1" as="geometry">
          <mxPoint x="305" y="280" as="sourcePoint" />
          <mxPoint x="440" y="250" as="targetPoint" />
        </mxGeometry>
      </mxCell>
      <mxCell id="3a493157-02e9-11eb-b860-f9eaec6c9f5e6" value="" style="strokeWidth=2;endArrow=none;html=1;entryX=0.25;entryY=0;entryDx=0;entryDy=0;exitX=0;exitY=0.25;exitDx=0;exitDy=0;strokeColor=#FFFFFF;dashed=1;" parent="3a493157-02e9-11eb-b860-f9eaec6c9f5e" source="3a493156-02e9-11eb-b860-f9eaec6c9f5e" target="3a493156-02e9-11eb-b860-f9eaec6c9f5e" edge="1">
        <mxGeometry width="50" height="50" relative="1" as="geometry">
          <mxPoint x="160" y="240" as="sourcePoint" />
          <mxPoint x="295" y="210" as="targetPoint" />
        </mxGeometry>
      </mxCell>
      <mxCell id="3a493157-02e9-11eb-b860-f9eaec6c9f5e7" value="" style="strokeWidth=2;endArrow=none;html=1;entryX=1;entryY=0.75;entryDx=0;entryDy=0;exitX=0.75;exitY=1;exitDx=0;exitDy=0;strokeColor=#FFFFFF;dashed=1;" parent="3a493157-02e9-11eb-b860-f9eaec6c9f5e" source="3a493156-02e9-11eb-b860-f9eaec6c9f5e" target="3a493156-02e9-11eb-b860-f9eaec6c9f5e" edge="1">
        <mxGeometry width="50" height="50" relative="1" as="geometry">
          <mxPoint x="407" y="305" as="sourcePoint" />
          <mxPoint x="474.5" y="290" as="targetPoint" />
        </mxGeometry>
      </mxCell>
      
    <mxCell id="3a493158-02e9-11eb-b860-f9eaec6c9f5e" value="Physical" style="text;html=1;strokeColor=none;fillColor=none;align=center;verticalAlign=middle;whiteSpace=wrap;rounded=0;fontStyle=2;fontColor=#none;fontSize=11;" parent="3a493157-02e9-11eb-b860-f9eaec6c9f5e" vertex="1">
      <mxGeometry x="7" y="-2" width="40" height="20" as="geometry" />
    </mxCell>
    
    
    
    
    <mxCell id="3a49315b-02e9-11eb-b860-f9eaec6c9f5e" value="" style="group;labelBackgroundColor=#FF99CC;fillColor=#F8CECC;strokeColor=#none;" parent="3a49313c-02e9-11eb-b860-f9eaec6c9f5e" vertex="1" connectable="0">
      <mxGeometry x="10" y="492" width="280" height="60" as="geometry" />
    </mxCell>
    <object label="" Type="EnergylayerElement" id="3a49315a-02e9-11eb-b860-f9eaec6c9f5e" Node="3a49313c-02e9-11eb-b860-f9eaec6c9f5e" Hub="False">
      <mxCell style="rounded=0;whiteSpace=wrap;html=1;labelPosition=center;verticalLabelPosition=middle;align=center;verticalAlign=middle;fillColor=#F8CECC;strokeColor=#none;" parent="3a49315b-02e9-11eb-b860-f9eaec6c9f5e" vertex="1">
        <mxGeometry width="280" height="60" as="geometry" />
      </mxCell>
    </object>
      
      <mxCell id="3a49315b-02e9-11eb-b860-f9eaec6c9f5e1" value="" style="strokeWidth=2;endArrow=none;html=1;entryX=1;entryY=0;entryDx=0;entryDy=0;exitX=0;exitY=1;exitDx=0;exitDy=0;strokeColor=#FFFFFF;dashed=1;" parent="3a49315b-02e9-11eb-b860-f9eaec6c9f5e" source="3a49315a-02e9-11eb-b860-f9eaec6c9f5e" target="3a49315a-02e9-11eb-b860-f9eaec6c9f5e" edge="1">
        <mxGeometry width="50" height="50" relative="1" as="geometry">
          <mxPoint x="210" y="520" as="sourcePoint" />
          <mxPoint x="260" y="470" as="targetPoint" />
        </mxGeometry>
      </mxCell>
      <mxCell id="3a49315b-02e9-11eb-b860-f9eaec6c9f5e2" value="" style="strokeWidth=2;endArrow=none;html=1;entryX=1;entryY=0.25;entryDx=0;entryDy=0;exitX=0.25;exitY=1;exitDx=0;exitDy=0;strokeColor=#FFFFFF;dashed=1;" parent="3a49315b-02e9-11eb-b860-f9eaec6c9f5e" source="3a49315a-02e9-11eb-b860-f9eaec6c9f5e" target="3a49315a-02e9-11eb-b860-f9eaec6c9f5e" edge="1">
        <mxGeometry width="50" height="50" relative="1" as="geometry">
          <mxPoint x="160" y="270" as="sourcePoint" />
          <mxPoint x="430" y="210" as="targetPoint" />
        </mxGeometry>
      </mxCell>
      <mxCell id="3a49315b-02e9-11eb-b860-f9eaec6c9f5e3" value="" style="strokeWidth=2;endArrow=none;html=1;entryX=1;entryY=0.5;entryDx=0;entryDy=0;exitX=0.5;exitY=1;exitDx=0;exitDy=0;strokeColor=#FFFFFF;dashed=1;" parent="3a49315b-02e9-11eb-b860-f9eaec6c9f5e" source="3a49315a-02e9-11eb-b860-f9eaec6c9f5e" target="3a49315a-02e9-11eb-b860-f9eaec6c9f5e" edge="1">
        <mxGeometry width="50" height="50" relative="1" as="geometry">
          <mxPoint x="227.5" y="270" as="sourcePoint" />
          <mxPoint x="430" y="225" as="targetPoint" />
        </mxGeometry>
      </mxCell>
      <mxCell id="3a49315b-02e9-11eb-b860-f9eaec6c9f5e4" value="" style="strokeWidth=2;endArrow=none;html=1;entryX=0.75;entryY=0;entryDx=0;entryDy=0;exitX=0;exitY=0.75;exitDx=0;exitDy=0;strokeColor=#FFFFFF;dashed=1;" parent="3a49315b-02e9-11eb-b860-f9eaec6c9f5e" source="3a49315a-02e9-11eb-b860-f9eaec6c9f5e" target="3a49315a-02e9-11eb-b860-f9eaec6c9f5e" edge="1">
        <mxGeometry width="50" height="50" relative="1" as="geometry">
          <mxPoint x="295" y="270" as="sourcePoint" />
          <mxPoint x="430" y="240" as="targetPoint" />
        </mxGeometry>
      </mxCell>
      <mxCell id="3a49315b-02e9-11eb-b860-f9eaec6c9f5e5" value="" style="strokeWidth=2;endArrow=none;html=1;entryX=0.5;entryY=0;entryDx=0;entryDy=0;exitX=0;exitY=0.5;exitDx=0;exitDy=0;strokeColor=#FFFFFF;dashed=1;" parent="3a49315b-02e9-11eb-b860-f9eaec6c9f5e" source="3a49315a-02e9-11eb-b860-f9eaec6c9f5e" target="3a49315a-02e9-11eb-b860-f9eaec6c9f5e" edge="1">
        <mxGeometry width="50" height="50" relative="1" as="geometry">
          <mxPoint x="305" y="280" as="sourcePoint" />
          <mxPoint x="440" y="250" as="targetPoint" />
        </mxGeometry>
      </mxCell>
      <mxCell id="3a49315b-02e9-11eb-b860-f9eaec6c9f5e6" value="" style="strokeWidth=2;endArrow=none;html=1;entryX=0.25;entryY=0;entryDx=0;entryDy=0;exitX=0;exitY=0.25;exitDx=0;exitDy=0;strokeColor=#FFFFFF;dashed=1;" parent="3a49315b-02e9-11eb-b860-f9eaec6c9f5e" source="3a49315a-02e9-11eb-b860-f9eaec6c9f5e" target="3a49315a-02e9-11eb-b860-f9eaec6c9f5e" edge="1">
        <mxGeometry width="50" height="50" relative="1" as="geometry">
          <mxPoint x="160" y="240" as="sourcePoint" />
          <mxPoint x="295" y="210" as="targetPoint" />
        </mxGeometry>
      </mxCell>
      <mxCell id="3a49315b-02e9-11eb-b860-f9eaec6c9f5e7" value="" style="strokeWidth=2;endArrow=none;html=1;entryX=1;entryY=0.75;entryDx=0;entryDy=0;exitX=0.75;exitY=1;exitDx=0;exitDy=0;strokeColor=#FFFFFF;dashed=1;" parent="3a49315b-02e9-11eb-b860-f9eaec6c9f5e" source="3a49315a-02e9-11eb-b860-f9eaec6c9f5e" target="3a49315a-02e9-11eb-b860-f9eaec6c9f5e" edge="1">
        <mxGeometry width="50" height="50" relative="1" as="geometry">
          <mxPoint x="407" y="305" as="sourcePoint" />
          <mxPoint x="474.5" y="290" as="targetPoint" />
        </mxGeometry>
      </mxCell>
      
    <mxCell id="3a49315c-02e9-11eb-b860-f9eaec6c9f5e" value="Energy" style="text;html=1;strokeColor=none;fillColor=none;align=center;verticalAlign=middle;whiteSpace=wrap;rounded=0;fontStyle=2;fontColor=#none;fontSize=11;" parent="3a49315b-02e9-11eb-b860-f9eaec6c9f5e" vertex="1">
      <mxGeometry x="4" y="-2" width="40" height="20" as="geometry" />
    </mxCell>
    
    
    
    
    
    
    
      <mxCell Layer="Network" Type="Link" id="3a49315e-02e9-11eb-b860-f9eaec6c9f5e" style="edgeStyle=entityRelationEdgeStyle;startArrow=classic;startFill=1;rounded=0;orthogonalLoop=1;jettySize=auto;html=1;fontFamily=Comic Sans MS;fontSize=17;fontColor=#000000;strokeColor=#6D41DA;strokeWidth=4;elbow=vertical;"  edge="1" parent="1" source="3a4930af-02e9-11eb-b860-f9eaec6c9f5e" target="3a4930d9-02e9-11eb-b860-f9eaec6c9f5e">
        <mxGeometry relative="1" as="geometry" />
      </mxCell>
      
      <mxCell Layer="Network" Type="Link" id="3a49315f-02e9-11eb-b860-f9eaec6c9f5e" style="edgeStyle=entityRelationEdgeStyle;startArrow=classic;startFill=1;rounded=0;orthogonalLoop=1;jettySize=auto;html=1;fontFamily=Comic Sans MS;fontSize=17;fontColor=#000000;strokeColor=#6D41DA;strokeWidth=4;elbow=vertical;"  edge="1" parent="1" source="3a4930d9-02e9-11eb-b860-f9eaec6c9f5e" target="3a493101-02e9-11eb-b860-f9eaec6c9f5e">
        <mxGeometry relative="1" as="geometry" />
      </mxCell>
      
      <mxCell Layer="Network" Type="Link" id="3a493160-02e9-11eb-b860-f9eaec6c9f5e" style="edgeStyle=entityRelationEdgeStyle;startArrow=classic;startFill=1;rounded=0;orthogonalLoop=1;jettySize=auto;html=1;fontFamily=Comic Sans MS;fontSize=17;fontColor=#000000;strokeColor=#6D41DA;strokeWidth=4;elbow=vertical;"  edge="1" parent="1" source="3a493101-02e9-11eb-b860-f9eaec6c9f5e" target="3a49312a-02e9-11eb-b860-f9eaec6c9f5e">
        <mxGeometry relative="1" as="geometry" />
      </mxCell>
      
      <mxCell Layer="Network" Type="Link" id="3a493161-02e9-11eb-b860-f9eaec6c9f5e" style="edgeStyle=entityRelationEdgeStyle;startArrow=classic;startFill=1;rounded=0;orthogonalLoop=1;jettySize=auto;html=1;fontFamily=Comic Sans MS;fontSize=17;fontColor=#000000;strokeColor=#6D41DA;strokeWidth=4;elbow=vertical;"  edge="1" parent="1" source="3a49312a-02e9-11eb-b860-f9eaec6c9f5e" target="3a493151-02e9-11eb-b860-f9eaec6c9f5e">
        <mxGeometry relative="1" as="geometry" />
      </mxCell>
      
      <mxCell Layer="Connectivity" Type="Link" id="3a493162-02e9-11eb-b860-f9eaec6c9f5e" style="edgeStyle=entityRelationEdgeStyle;startArrow=classic;startFill=1;rounded=0;orthogonalLoop=1;jettySize=auto;html=1;fontFamily=Comic Sans MS;fontSize=17;fontColor=#000000;strokeColor=#5937AE;strokeWidth=4;elbow=vertical;"  edge="1" parent="1" source="3a4930aa-02e9-11eb-b860-f9eaec6c9f5e" target="3a4930d3-02e9-11eb-b860-f9eaec6c9f5e">
        <mxGeometry relative="1" as="geometry" />
      </mxCell>
      
      <mxCell Layer="Connectivity" Type="Link" id="3a493163-02e9-11eb-b860-f9eaec6c9f5e" style="edgeStyle=entityRelationEdgeStyle;startArrow=classic;startFill=1;rounded=0;orthogonalLoop=1;jettySize=auto;html=1;fontFamily=Comic Sans MS;fontSize=17;fontColor=#000000;strokeColor=#5937AE;strokeWidth=4;elbow=vertical;"  edge="1" parent="1" source="3a4930d3-02e9-11eb-b860-f9eaec6c9f5e" target="3a4930fc-02e9-11eb-b860-f9eaec6c9f5e">
        <mxGeometry relative="1" as="geometry" />
      </mxCell>
      
      <mxCell Layer="Connectivity" Type="Link" id="3a493164-02e9-11eb-b860-f9eaec6c9f5e" style="edgeStyle=entityRelationEdgeStyle;startArrow=classic;startFill=1;rounded=0;orthogonalLoop=1;jettySize=auto;html=1;fontFamily=Comic Sans MS;fontSize=17;fontColor=#000000;strokeColor=#5937AE;strokeWidth=4;elbow=vertical;"  edge="1" parent="1" source="3a4930fc-02e9-11eb-b860-f9eaec6c9f5e" target="3a493125-02e9-11eb-b860-f9eaec6c9f5e">
        <mxGeometry relative="1" as="geometry" />
      </mxCell>
      
      <mxCell Layer="Messaging" Type="Link" id="3a493165-02e9-11eb-b860-f9eaec6c9f5e" style="edgeStyle=entityRelationEdgeStyle;startArrow=classic;startFill=1;rounded=0;orthogonalLoop=1;jettySize=auto;html=1;fontFamily=Comic Sans MS;fontSize=17;fontColor=#000000;strokeColor=#2A9187;strokeWidth=4;elbow=vertical;"  edge="1" parent="1" source="3a4930a5-02e9-11eb-b860-f9eaec6c9f5e" target="3a4930ce-02e9-11eb-b860-f9eaec6c9f5e">
        <mxGeometry relative="1" as="geometry" />
      </mxCell>
      
      <mxCell Layer="Messaging" Type="Link" id="3a493166-02e9-11eb-b860-f9eaec6c9f5e" style="edgeStyle=entityRelationEdgeStyle;startArrow=classic;startFill=1;rounded=0;orthogonalLoop=1;jettySize=auto;html=1;fontFamily=Comic Sans MS;fontSize=17;fontColor=#000000;strokeColor=#2A9187;strokeWidth=4;elbow=vertical;"  edge="1" parent="1" source="3a4930ce-02e9-11eb-b860-f9eaec6c9f5e" target="3a493120-02e9-11eb-b860-f9eaec6c9f5e">
        <mxGeometry relative="1" as="geometry" />
      </mxCell>
      
      <mxCell Layer="Data" Type="Link" id="3a493169-02e9-11eb-b860-f9eaec6c9f5e" style="edgeStyle=entityRelationEdgeStyle;startArrow=classic;startFill=1;rounded=0;orthogonalLoop=1;jettySize=auto;html=1;fontFamily=Comic Sans MS;fontSize=17;fontColor=#000000;strokeColor=#2A9187;strokeWidth=4;elbow=vertical;"  edge="1" parent="1" source="3a49311b-02e9-11eb-b860-f9eaec6c9f5e" target="3a493144-02e9-11eb-b860-f9eaec6c9f5e">
        <mxGeometry relative="1" as="geometry" />
      </mxCell>
      
      <mxCell Layer="Service" Type="Link" id="3a49316a-02e9-11eb-b860-f9eaec6c9f5e" style="edgeStyle=entityRelationEdgeStyle;startArrow=classic;startFill=1;rounded=0;orthogonalLoop=1;jettySize=auto;html=1;fontFamily=Comic Sans MS;fontSize=17;fontColor=#000000;strokeColor=#2A9187;strokeWidth=4;elbow=vertical;"  edge="1" parent="1" source="3a493116-02e9-11eb-b860-f9eaec6c9f5e" target="3a49313f-02e9-11eb-b860-f9eaec6c9f5e">
        <mxGeometry relative="1" as="geometry" />
      </mxCell>
      
  </root>
</mxGraphModel>